<?xml version="1.0" encoding="utf-8"?>
<!-- Generator: Adobe Illustrator 25.0.1, SVG Export Plug-In . SVG Version: 6.00 Build 0)  -->
<svg version="1.1" id="Layer_1" xmlns="http://www.w3.org/2000/svg" xmlns:xlink="http://www.w3.org/1999/xlink" x="0px" y="0px"
	 viewBox="0 0 306.9 1065.1" style="enable-background:new 0 0 306.9 1065.1;" xml:space="preserve">
<style type="text/css">
	.st0{clip-path:url(#SVGID_2_);}
	.st1{clip-path:url(#SVGID_4_);}
	.st2{fill:#8C4F45;}
	.st3{fill:#753C36;}
	.st4{fill:#FFFFFF;}
	.st5{clip-path:url(#SVGID_6_);}
	.st6{fill:url(#SVGID_7_);}
	.st7{clip-path:url(#SVGID_9_);}
	.st8{fill:url(#SVGID_10_);}
	.st9{clip-path:url(#SVGID_12_);}
	.st10{fill:#23242B;}
	.st11{fill:#BCB5A4;}
	.st12{fill:#272733;}
	.st13{fill:#454456;}
	.st14{fill:#6C6C87;}
	.st15{fill:#453878;}
	.st16{fill:#D4D6D4;}
	.st17{fill:#2F2E72;}
	.st18{fill:#E8E8EF;}
</style>
<g id="Layer_2_1_">
	<g id="Layer_1-2">
		<g id="Alex">
			<g>
				<defs>
					<rect id="SVGID_1_" x="5" width="297" height="1065.1"/>
				</defs>
				<clipPath id="SVGID_2_">
					<use xlink:href="#SVGID_1_"  style="overflow:visible;"/>
				</clipPath>
				<g class="st0">
					<g>
						<defs>
							<rect id="SVGID_3_" x="5" width="297" height="1065.1"/>
						</defs>
						<clipPath id="SVGID_4_">
							<use xlink:href="#SVGID_3_"  style="overflow:visible;"/>
						</clipPath>
						<g class="st1">
							<path class="st2" d="M135.1,151c0,0,1.7,38.8,0,45.2c-1.7,6.4-17.2,16.6-33.2,24.1c0,0,20.5,47.3,60.6,46.4
								c40.1-0.8,50.2-36.8,56.6-45.9c0,0-30.6-10.4-31.3-23.4c-0.7-13,0-46.3,0-46.3H135.1z"/>
							<path class="st3" d="M161.1,187.4c12.7,0,21.5-8.2,26.4-15c0.1-11.5,0.3-21.4,0.3-21.4h-52.7c0,0,0.4,9.9,0.6,20.9
								C140,178.8,148.1,187.4,161.1,187.4"/>
							<path class="st2" d="M126.3,112.2c0,0-2.2-6.4-10.8-5.7c-8.3,0.7-5.5,22,1.8,25.6s9.7-7.1,9.7-7.1L126.3,112.2z"/>
							<path class="st2" d="M199,112.2c0,0,2.2-6.4,10.8-5.7c8.3,0.7,5.5,22-1.8,25.6c-7.3,3.5-9.7-7.1-9.7-7.1L199,112.2z"/>
							<path class="st2" d="M206,110.5c-3.7,45.6-16.5,67.5-43.4,67.5s-39.9-18.1-43.4-67.5c-2.6-36.5,16.5-59,43.4-59
								S209.1,72.6,206,110.5"/>
							<path d="M128.1,107.9c-0.9,0-1.6-0.7-1.6-1.6c0-0.4,0.1-0.8,0.4-1.1c2.5-2.8,8.8-8.7,17.8-2.8c0.8,0.4,1.1,1.4,0.7,2.2
								c-0.4,0.8-1.4,1.1-2.2,0.7c0,0,0,0,0,0c-4.6-2.5-10.3-1.6-13.9,2.1C129,107.8,128.5,107.9,128.1,107.9"/>
							<path d="M198.2,107.9c0.9,0,1.6-0.7,1.6-1.6c0-0.4-0.1-0.8-0.4-1.1c-2.5-2.8-8.7-8.7-17.8-2.8c-0.8,0.4-1.1,1.4-0.7,2.2
								c0.4,0.8,1.4,1.1,2.2,0.7c0,0,0,0,0,0c4.6-2.5,10.2-1.6,13.9,2.1C197.3,107.8,197.7,107.9,198.2,107.9"/>
							<path class="st3" d="M162,144.2c-2.3-0.1-4.1-0.7-4.9-2.4c-2.6-5.2,2.4-13.7,2.8-14.7c0.3-0.7,0.8-1.1,1.5-0.8s0.4,1.3,0.1,2
								c-1.5,3.4-2.5,9.7-1.1,12.1c0.4,0.6,1,1,1.8,1c0.8,0.1,1.4,0.8,1.3,1.5C163.5,144.3,162,144.2,162,144.2"/>
							<path class="st4" d="M154.3,150.8c0.5,0.1,6,2.8,15.3,0c0,0,2-1,2.6,0c0.6,1-0.5,7.8-9.2,7.9c-8.8,0.1-10.4-4.5-10.4-5.8
								C152.5,152.9,151.9,150.1,154.3,150.8"/>
						</g>
					</g>
					<g>
						<defs>
							<path id="SVGID_5_" d="M160.8,0c-2.6,0.1-5.2,1-7.3,2.6c-7.9,5.2-14.2,9.6-18.1,15c0.2-10.7,14.3-16.8,14.3-16.8
								c-15.9,3.6-15.9,12.9-14.8,17.5c-2,2.8-3.2,6.1-3.7,9.5c-0.8,5.1-0.7,10.2,0.3,15.3c-3.5-4.8-8.7-14-2.8-19.7
								c0,0-11.9,6.3,3.1,20.8c1.1,4.2,3.5,8,6.9,10.8c7.7,6.2,39.2,6.2,45.2-2.7c0.8-1.1,5.3-3.2,8-7.7c3.6-2,11.5-8.4,1.5-22.6
								c0,0,6.8,13.1-0.9,21.4c1.4-3,1.7-6.4,1.1-9.7c-2.1-12.8-6.3-20.2-14.4-22.9C173,8.6,168.4,0.1,160.9,0H160.8z"/>
						</defs>
						<clipPath id="SVGID_6_">
							<use xlink:href="#SVGID_5_"  style="overflow:visible;"/>
						</clipPath>
						<g class="st5">
							
								<linearGradient id="SVGID_7_" gradientUnits="userSpaceOnUse" x1="-3258.5828" y1="4097.2178" x2="-3257.6152" y2="4097.2178" gradientTransform="matrix(0 -61.27 61.27 0 -250876.5156 -199590.5625)">
								<stop  offset="0" style="stop-color:#231F20"/>
								<stop  offset="1" style="stop-color:#1FAB7A"/>
							</linearGradient>
							<rect x="116.7" class="st6" width="86.6" height="61.1"/>
						</g>
					</g>
					<g>
						<defs>
							<path id="SVGID_8_" d="M125.5,53.4c-9,6.6-7.7,18.2-10,25.4c-2.4,7.2,1.4,12,0.4,20c-1,8,0,10.8,0,10.8c4.7,13.7,5.6,1,5.6,1
								c1.8-4,2.7-8.4,2.9-12.8c0.4-7.7,2.6-30.3,37-33c34.4-2.7,38.4,26,39.9,31.5c1.5,5.4,3,13.3,3,13.3c1.4,15.7,5.4,0,5.4,0
								c1-3.2-1.6-7.7,1.3-16.2s-0.4-10.6-2.2-23.2S201,52.8,190,43.7c-7-5.8-11.9-5.2-18.8-4.5c-4.9,0.6-9.9,0.5-14.8-0.1
								c-1.6-0.2-3.1-0.3-4.7-0.3C138.5,38.7,133.6,47.4,125.5,53.4"/>
						</defs>
						<clipPath id="SVGID_9_">
							<use xlink:href="#SVGID_8_"  style="overflow:visible;"/>
						</clipPath>
						<g class="st7">
							
								<linearGradient id="SVGID_10_" gradientUnits="userSpaceOnUse" x1="-3242.7012" y1="4085.0059" x2="-3241.7334" y2="4085.0059" gradientTransform="matrix(0 -80.43 80.43 0 -328393.4688 -260700.5625)">
								<stop  offset="0" style="stop-color:#231F20"/>
								<stop  offset="0.66" style="stop-color:#231F20"/>
								<stop  offset="1" style="stop-color:#007373"/>
							</linearGradient>
							<rect x="113.1" y="37.9" class="st8" width="101" height="87.3"/>
						</g>
					</g>
					<g>
						<defs>
							<rect id="SVGID_11_" x="5" width="297" height="1065.1"/>
						</defs>
						<clipPath id="SVGID_12_">
							<use xlink:href="#SVGID_11_"  style="overflow:visible;"/>
						</clipPath>
						<g class="st9">
							<path class="st10" d="M140.3,118.8c-0.2,1.5-1.6,2.6-3.1,2.3s-2.6-1.6-2.3-3.1c0.2-1.4,1.4-2.4,2.7-2.4
								C139.1,115.7,140.4,117.1,140.3,118.8"/>
							<path class="st10" d="M190.2,118.8c-0.2,1.5-1.6,2.6-3.1,2.3c-1.5-0.2-2.6-1.6-2.3-3.1c0.2-1.4,1.4-2.4,2.7-2.4
								C189.1,115.7,190.3,117.1,190.2,118.8"/>
							<polygon class="st11" points="73.1,987.1 68.5,1017.3 39.5,1016 42.6,982.8 							"/>
							<path class="st12" d="M59.7,1053.9c0,0-5.5,13.5-21.7,10.9s-13.2-16.5-13.2-16.5L59.7,1053.9z"/>
							<path class="st13" d="M27.6,1035.1c3.9-8.3,13-24.6,13-24.6c14.6-8.6,23.4-2.1,27.8,1.9l0,0c0,0,0.7,0,1.4-3.9
								c0,0,0.7,8.2-1.2,13.3l0,0c-1,3.6-4.7,7.9-5.4,19.7c-1,17.8-14.3,22.3-27.9,19.1S23.7,1043.3,27.6,1035.1"/>
							<path class="st12" d="M60.8,1018.6c0.3,0,0.7-0.1,1-0.3c0.5-0.2,0.7-0.8,0.5-1.3c-0.1-0.2-0.2-0.3-0.3-0.4
								c-0.3-0.3-6.4-6.1-18.4-2.9c-0.8,0.2-1.2,0.9-0.9,1.5c0.4,0.7,1.2,1,1.9,0.7c9.9-2.7,14.9,2.1,15,2.1
								C60,1018.4,60.4,1018.6,60.8,1018.6"/>
							<path class="st12" d="M58.6,1024.5c0.3,0,0.7-0.1,1-0.3c0.5-0.2,0.7-0.8,0.5-1.3c-0.1-0.2-0.2-0.3-0.3-0.4
								c-0.3-0.3-6.4-6.1-18.4-2.9c-0.8,0.2-1.2,0.9-1,1.5c0.4,0.7,1.2,1,1.9,0.7c10-2.7,14.9,2.1,15,2.1
								C57.7,1024.3,58.1,1024.5,58.6,1024.5"/>
							<path class="st12" d="M56.3,1030.4c0.3,0,0.7-0.1,1-0.3c0.5-0.3,0.7-0.9,0.5-1.4c-0.1-0.1-0.1-0.2-0.2-0.3
								c-0.3-0.3-6.4-6.1-18.4-2.9c-0.6,0.1-1.1,0.6-1,1.3c0,0.1,0,0.2,0.1,0.2c0.4,0.7,1.2,1,1.9,0.7c9.9-2.7,14.9,2.1,15,2.1
								C55.4,1030.2,55.9,1030.4,56.3,1030.4"/>
							<path class="st14" d="M55.5,1046.4c0,0-21.6,9.7-29-3.6c0,0-4.8,9.6,11.4,12.3C48.6,1056.9,55.5,1046.4,55.5,1046.4"/>
							<polygon class="st11" points="224.2,984.6 223.9,1018.9 193.4,1018.9 192.8,984.6 							"/>
							<path class="st12" d="M189.7,1028.8l0.6,8.3c5.4,3.1,11.6,4.6,17.9,4.4c0,0,9.6-3.4,15,1.3c10.2,9,43.1,16,46.4,4
								L189.7,1028.8z"/>
							<path class="st13" d="M190.6,1008.6c0,0-4,19.4-0.8,22.2c3.3,2.8,24.7,6.3,35.5,11.9c10.8,5.6,43.4,11.6,44.9,2.3
								c1.5-9.3-11.8-15.1-20.9-18.7c-9.1-3.5-18.1-16.1-22.9-17.6c0,0-2.6-2.1-12.4,4.5C209.1,1016.6,196.1,1005.8,190.6,1008.6"/>
							<path class="st12" d="M223.8,1019.2c0.5,0,0.9-0.2,1.2-0.6c1.9-2.6,4.8-4.3,7.9-4.6c0.8-0.1,1.4-0.8,1.3-1.7
								c-0.1-0.8-0.7-1.3-1.5-1.4c-4.1,0.4-7.8,2.5-10.2,5.8c-0.5,0.7-0.4,1.6,0.3,2.1C223.2,1019.2,223.5,1019.3,223.8,1019.2"/>
							<path class="st12" d="M229.1,1024.5c0.5,0,0.9-0.2,1.2-0.6c1.9-2.6,4.8-4.3,7.9-4.6c0.8,0,1.5-0.7,1.4-1.6c0,0,0,0,0,0
								c0-0.8-0.7-1.5-1.6-1.4c0,0,0,0,0,0c-4.1,0.4-7.8,2.5-10.2,5.8c-0.5,0.7-0.4,1.6,0.3,2.1
								C228.4,1024.5,228.8,1024.6,229.1,1024.5"/>
							<path class="st12" d="M233.6,1029.1c0.5,0,0.9-0.2,1.2-0.6c1.9-2.6,4.8-4.2,7.9-4.6c0.8-0.1,1.4-0.8,1.3-1.7
								c-0.1-0.8-0.7-1.3-1.5-1.4c-4.1,0.4-7.8,2.5-10.2,5.8c-0.5,0.7-0.4,1.6,0.3,2.1C233,1029,233.3,1029.1,233.6,1029.1"/>
							<path class="st14" d="M264.7,1035.4c0,0-4.4,7.7-24.2,5.3c0,0,18.9,5.2,28.1,0.7C267.7,1039.2,266.4,1037.1,264.7,1035.4"/>
							<path class="st2" d="M294.7,571.1c0,0-1.2,14.3-4.2,29.2c-3,14.9-7.6,30.5-22.5,33.1c0,0-12.9,2.2-15.9,1c0,0-1.2-3,2.3-5.7
								c3.5-2.7,13-5.6,14.5-10.1c3-9.3,3.4-23,0.6-22.2s-9,22.7-14.8,20.9c0,0-1.6-0.4-0.8-6.6c0.8-6.2,6.7-29.7,9.1-33.8
								c2.4-4.1,5.2-16.9,5.2-16.9s16.1-11.2,25.1,0.7L294.7,571.1z"/>
							<path class="st15" d="M248.3,236.3c0,0,18.9,17.8,22.6,50.6c3.4,29.8,9.4,64.5,15.7,118.3c0,0,16.3,58.3,15.3,132.9
								c0,0-2.3,8-6.3,9.1c0.2,4.7,0.3,20.3,0.3,22.7c0,0-17.7,8.7-35,0.8c0,0-1.2-15.6-1.5-20.8c-2.2-0.2-8-6.6-8.5-12.3
								c0,0-7.9-78.2-12.9-110.9c-2.6-16.6-12.7-53.2-15.7-100.4C219.4,281.8,227.9,241.2,248.3,236.3"/>
							<path class="st16" d="M100.8,424.2h128.2c0,0,1.3,1.2,2.8,4.9c0.7,1.7,1,7.1,1.9,9.5c9.8,26.6,29.5,82.6,22.5,166.7
								c-9.1,108.7-8.6,386-8.6,386s-19,19.1-85.3,7.1l6.5-424.8c0,0-64.9,363.3-72.8,427.9c0,0-49.3,9.2-89.3-11.1
								c0,0,61.5-392.3,69.9-445c7.5-47.7,17.6-76.2,20.1-100.8c0.2-2.3,0.5-9.3,0.6-11.1C97.5,428.4,99.4,425.2,100.8,424.2"/>
							<path class="st4" d="M169.5,574c0.2,0,0.4-0.1,0.6-0.2l23.6-18.4c0.5-0.3,0.6-0.9,0.3-1.4c-0.3-0.5-0.9-0.6-1.4-0.3
								c0,0-0.1,0.1-0.1,0.1L169,572.2c-0.5,0.3-0.6,1-0.2,1.4c0,0,0,0,0,0C168.9,573.9,169.2,574,169.5,574"/>
							<path class="st17" d="M229.3,424.8l0.2-44.3H101.2l-0.5,43.2C100.8,423.7,163,436,229.3,424.8"/>
							<path class="st4" d="M95.4,497.6c0.5,0,0.9-0.3,1-0.8c8.6-34.5,17.8-69.2,18-69.6V427v-43.1c0-0.5-0.4-1-1-1
								c-0.5,0-1,0.4-1,1v42.7c-1,2.8-9.8,36.4-18,69.7c-0.1,0.6,0.2,1.1,0.8,1.2L95.4,497.6z"/>
							<path class="st15" d="M191.8,200.4c0,0-26.3,16.9-60.1-1c0,0-39.2,22.1-58.9,36.9c0,0,16,69.5,24.8,128.8
								c0.6,3.7-6.5,6-4.3,13.3c0.8,2.6,6.4,5.6,6.4,5.6s81.2,18.7,132.5,0.3c3.3-1,5.6-3.9,6-7.3c0.4-2.4-4.6-7.6-4.1-10.8
								c6.4-39.5,14.7-122,14.1-129.7C232.1,220.6,212.9,208.4,191.8,200.4"/>
							<path class="st17" d="M232.7,384.8c-0.2-0.6-0.3-1.1-0.6-1.6c2.8-1,4.8-3.5,5.1-6.5c0.1-0.8-0.9-2.5-1.7-4.1
								c-1.3-2.3-2.7-4.7-2.3-6.8c4.5-27.9,10.1-77.6,12.7-106.9c0.6,0.3,1.3,0.6,1.9,0.8c-2.6,29.5-8.1,78.7-12.6,106.4
								c-0.2,1.4,1,3.5,2.1,5.4c1.2,2.1,2.2,3.9,1.9,5.4c-0.4,3.7-3,6.8-6.5,8L232.7,384.8z"/>
							<path class="st17" d="M150.9,239.1l15.1-28.1l17.6,27.8l14.3-35.9c-1.9-0.9-4-1.7-6-2.4c0,0-26.3,16.9-60.1-1
								c0,0-1.3,0.8-3.6,2.2l0,0L150.9,239.1z"/>
							<polygon class="st15" points="187.6,183.3 166.1,206.2 135.8,184.3 126.9,200 150.7,231.2 165.7,209.1 182.8,231.2 
								199.1,200.4 							"/>
							<path class="st17" d="M167.3,387.5c0.5,0,1-0.4,1-0.9c0,0,0,0,0,0c4.2-76.8-1.5-171.5-1.5-172.4c-0.1-0.6-0.6-1-1.2-0.9
								c-0.5,0.1-0.9,0.5-0.9,1c0.1,1,5.7,95.5,1.5,172.2c0,0.5,0.4,1,0.9,1C167.2,387.4,167.2,387.4,167.3,387.5L167.3,387.5z"/>
							<path class="st15" d="M72.8,236.3c0,0-24.3,27.2-46.1,82c-22.2,55.6-27.5,73.4-15.2,82.2C33,416,59,373.2,89.1,314.8
								C89.1,314.8,96,265.8,72.8,236.3"/>
							<path class="st15" d="M39.1,338.3c0,0-9.2,1.6-15.7,12.8S6.8,371.4,5.4,381.3c-1.4,10,0.1,19.2,10.1,23.4s23.9,2.8,29.2-1
								c12.7-9,20.2-38.2,20.2-38.2s6.1-12.9-11.1-23.1C43.2,336.3,39.1,338.3,39.1,338.3"/>
							<path class="st17" d="M15,361.7c2.7-3.5,5.3-7.2,7.6-11c4.2-7.2,9.4-10.5,12.8-12c-0.3,0.7-0.5,1.5-0.6,2.3
								c-4.5,2.5-8.2,6.2-10.7,10.6c-2.4,3.9-4.9,7.6-7.7,11.2c-2.7,3.5-5.2,7.2-7.4,11c-0.4-0.4-0.9-0.8-1.4-1.2
								C9.8,368.8,12.3,365.1,15,361.7"/>
							<polygon class="st18" points="129.1,255.4 21.9,255.4 61.5,370.6 160.3,370.6 							"/>
							<path class="st2" d="M48.8,334.8c0,0,20.9-20.1,28.8-27.6c0,0,3.3-3.9,5.8-1.2c2.5,2.7-1.2,6.9-1.2,6.9l-15.5,19.2l12.3-5.6
								c3.5-1.6,12.4-7,15-7.2c2.7-0.2,5.1,5.4-1.1,7.9c0,0,3.1-1,3.9,1.4c0.5,1.4,1,3.1-1.8,5.6c0,0,3.8,3.5-3.5,10.1
								c-6.2,5.6-14.3,12.4-16.3,13.7c-3.7,2.5-16.6,6.7-20.1,6.1c-3.5-0.5-15.8-6.1-15.3-22.8s4.2-20.7,4.2-20.7L48.8,334.8z"/>
							<path class="st3" d="M71.7,340.1l0.2-0.1l20.3-11.6c0.2-0.1,0.3-0.4,0.2-0.6c0,0,0,0,0,0c-0.1-0.2-0.4-0.3-0.7-0.2
								l-20.3,11.6c-0.2,0.1-0.3,0.4-0.2,0.6c0,0,0,0,0,0C71.3,340,71.5,340.1,71.7,340.1"/>
							<path class="st3" d="M76.9,347.3c0.1,0,0.2,0,0.3-0.1l17.3-12c0.2-0.2,0.3-0.5,0.1-0.7c-0.1-0.2-0.4-0.3-0.7-0.1c0,0,0,0,0,0
								l-17.3,12c-0.2,0.2-0.3,0.5-0.1,0.7C76.6,347.2,76.8,347.3,76.9,347.3"/>
						</g>
					</g>
				</g>
			</g>
		</g>
	</g>
</g>
</svg>
