<?xml version="1.0" encoding="utf-8"?>
<!-- Generator: Adobe Illustrator 25.0.1, SVG Export Plug-In . SVG Version: 6.00 Build 0)  -->
<svg version="1.1" id="Layer_1" xmlns="http://www.w3.org/2000/svg" xmlns:xlink="http://www.w3.org/1999/xlink" x="0px" y="0px"
	 viewBox="0 0 306 1065.1" style="enable-background:new 0 0 306 1065.1;" xml:space="preserve">
<style type="text/css">
	.st0{clip-path:url(#SVGID_2_);}
	.st1{clip-path:url(#SVGID_4_);}
	.st2{clip-path:url(#SVGID_6_);}
	.st3{fill:#EA997D;}
	.st4{fill:#4C4960;}
	.st5{fill:#453878;}
	.st6{fill:#6154C7;}
	.st7{fill:#D87E66;}
	.st8{fill:#EFCBB4;}
	.st9{opacity:0.9;}
	.st10{clip-path:url(#SVGID_8_);}
	.st11{clip-path:url(#SVGID_10_);}
	.st12{clip-path:url(#SVGID_12_);}
	.st13{fill:#EA9579;}
	.st14{clip-path:url(#SVGID_14_);}
	.st15{fill:#EB9175;}
	.st16{clip-path:url(#SVGID_16_);}
	.st17{fill:#EB8D71;}
	.st18{clip-path:url(#SVGID_18_);}
	.st19{fill:#EC896D;}
	.st20{clip-path:url(#SVGID_20_);}
	.st21{fill:#EC8569;}
	.st22{clip-path:url(#SVGID_22_);}
	.st23{fill:#ED8264;}
	.st24{clip-path:url(#SVGID_24_);}
	.st25{fill:#ED7E60;}
	.st26{clip-path:url(#SVGID_26_);}
	.st27{fill:#EE7A5C;}
	.st28{clip-path:url(#SVGID_28_);}
	.st29{fill:#EE7658;}
	.st30{clip-path:url(#SVGID_30_);}
	.st31{fill:#EF7254;}
	.st32{clip-path:url(#SVGID_32_);}
	.st33{fill:#EF6E50;}
	.st34{clip-path:url(#SVGID_34_);}
	.st35{clip-path:url(#SVGID_36_);}
	.st36{clip-path:url(#SVGID_38_);}
	.st37{clip-path:url(#SVGID_40_);}
	.st38{clip-path:url(#SVGID_42_);}
	.st39{clip-path:url(#SVGID_44_);}
	.st40{clip-path:url(#SVGID_46_);}
	.st41{clip-path:url(#SVGID_48_);}
	.st42{clip-path:url(#SVGID_50_);}
	.st43{clip-path:url(#SVGID_52_);}
	.st44{clip-path:url(#SVGID_54_);}
	.st45{clip-path:url(#SVGID_56_);}
	.st46{clip-path:url(#SVGID_58_);}
	.st47{fill:#23242B;}
	.st48{fill:#FFFFFF;}
	.st49{fill:#D7DAE2;}
	.st50{fill:#CE9052;}
	.st51{fill:#A36D3D;}
	.st52{fill:#BED1DF;}
	.st53{fill:#FDF2EE;}
</style>
<g id="Layer_2_1_">
	<g id="Layer_1-2">
		<g id="Alice">
			<g>
				<defs>
					<rect id="SVGID_1_" x="0" width="551.8" height="1065.1"/>
				</defs>
				<clipPath id="SVGID_2_">
					<use xlink:href="#SVGID_1_"  style="overflow:visible;"/>
				</clipPath>
				<g class="st0">
					<g>
						<defs>
							<rect id="SVGID_3_" x="0" width="551.8" height="1065.1"/>
						</defs>
						<clipPath id="SVGID_4_">
							<use xlink:href="#SVGID_3_"  style="overflow:visible;"/>
						</clipPath>
						<g class="st1">
							<g>
								<defs>
									<rect id="SVGID_5_" x="0" width="551.8" height="1065.1"/>
								</defs>
								<clipPath id="SVGID_6_">
									<use xlink:href="#SVGID_5_"  style="overflow:visible;"/>
								</clipPath>
								<g class="st2">
									<path class="st3" d="M233.8,953c1.4,17.9,1.4,41.3,3.1,62.1c0,0,17.9,9.1,23.7-1c0,0,1.6-27.3,4.8-62.4
										C252.5,948.7,244.9,949.9,233.8,953"/>
									<path class="st4" d="M271.9,1036.4c-6-11.2-8.9-24.7-8.9-24.7c-13.4-8.3-21.3-2-24.6,1.8l0,0c0,0-1.3,0.3-2-3.5
										c0,0-2.1,8.4,0.4,12.9l0,0c0.8,3.8,2.9,7.5,4.8,18.6c3.7,21.4,14.8,25.8,25.9,22.7C279.8,1060.9,275.5,1043.1,271.9,1036.4
										"/>
									<path class="st3" d="M103.4,939.6c3.9,34,9.4,74.4,9.4,74.4c5.8,10.2,23.6,1,23.6,1c1.2-14.5-1.3-49.8-2.4-75.4
										L103.4,939.6z"/>
									<path class="st4" d="M101.4,1036.4c6-11.2,8.9-24.7,8.9-24.7c13.4-8.3,21.3-2,24.6,1.8l0,0c0,0,0.9,0.3,1.6-3.5
										c0,0,2.5,8.4-0.8,12.9l0,0c0,3.8-2.5,7.5-4.4,18.6c-3.7,21.4-14.6,25.8-25.7,22.7C93.2,1060.9,97.8,1043.1,101.4,1036.4"/>
									<path class="st5" d="M119.3,392.3c0,0-71.7,113.4-48.6,557.7c0,0,24.6,18.8,97.7,6l13.2-236.2l17.3,235.9
										c0,0,50.8,12.1,106.2-5.7c0,0,4-442.6-60.5-557.7C244.6,392.2,176.9,378.8,119.3,392.3"/>
									<path class="st6" d="M184.1,698.4c-0.6,0-1.1-1-1.1-1.6l-4.6-143.7c-2.2-2.1-13.5-12.8-16.3-18.3c-0.3-0.6-0.1-1.3,0.5-1.7
										c0.6-0.3,1.3-0.1,1.6,0.4c0,0,0,0,0,0c2.9,5.6,16.1,17.8,16.2,17.9l0.4,0.3l4.6,144.9C185.2,697.3,184.8,696.7,184.1,698.4
										L184.1,698.4z"/>
									<path class="st3" d="M201.5,113.9c0,0-1.4,35.5,0,41.3c1.4,5.7,15,15.2,28.9,22c0,0-17.9,25.5-52.9,24.7
										c-35-0.8-41.4-15.9-47-24.3c0,0,24.2-9.6,24.9-21.4c0.6-11.9,0-42.3,0-42.3L201.5,113.9z"/>
									<path class="st7" d="M178.8,147.4c-11.1,0-18.8-7.5-23.1-13.8c-0.1-10.5-0.3-19.6-0.3-19.6h46c0,0-0.4,9.1-0.6,19.1
										C197.2,139.4,190.1,147.4,178.8,147.4"/>
									<path class="st3" d="M218,74.7c0,0,3.1-6.5,11.7-4.5c8.3,1.9,2.7,24.2-5.2,26.9c-7.9,2.7-8.9-8.8-8.9-8.8L218,74.7z"/>
									<path class="st3" d="M144.2,64.8c0,0-1.4-7.1-10.2-7.5c-8.5-0.4-8.4,22.7-1.5,27.4c7,4.7,10.8-6.2,10.8-6.2L144.2,64.8z"/>
									<path class="st3" d="M137.8,57.3c-2.2,48.9,12.7,74.5,35.3,77.6S216.1,121.1,226,69c7.4-38.4-9.1-65-36.4-68.6
										S139.6,16.6,137.8,57.3"/>
									<path class="st8" d="M226.4,66.6c-5.7,34.8,2-22.1-15.8-45.2c-6.6-8.6-18.6,6.2-26,5.5c-7.8-0.7-18.8-16.2-27.2-7.8
										c-20.8,21-19.8,76.7-19.2,39.3c0.6-38.7,22.1-60.6,49.4-58.1S232.8,26.9,226.4,66.6"/>
									<g class="st9">
										<g>
											<defs>
												<rect id="SVGID_7_" x="138.5" y="69.6" width="33.8" height="35.3"/>
											</defs>
											<clipPath id="SVGID_8_">
												<use xlink:href="#SVGID_7_"  style="overflow:visible;"/>
											</clipPath>
											<g class="st10">
												<g>
													<defs>
														<rect id="SVGID_9_" x="138.5" y="69.6" width="33.8" height="35.3"/>
													</defs>
													<clipPath id="SVGID_10_">
														<use xlink:href="#SVGID_9_"  style="overflow:visible;"/>
													</clipPath>
													<g class="st11">
														<path class="st3" d="M138.5,88.3c0.6,9.7,8.6,17.2,17.9,16.6c9.3-0.6,16.4-9,15.9-18.7c-0.6-9.7-8.6-17.2-17.9-16.6
															c0,0,0,0,0,0C145,70.2,137.9,78.6,138.5,88.3"/>
													</g>
												</g>
												<g>
													<defs>
														<rect id="SVGID_11_" x="140" y="71.2" width="30.8" height="32.2"/>
													</defs>
													<clipPath id="SVGID_12_">
														<use xlink:href="#SVGID_11_"  style="overflow:visible;"/>
													</clipPath>
													<g class="st12">
														<path class="st13" d="M154.4,71.2c-8.5,0.5-15,8.2-14.5,17s7.8,15.7,16.3,15.1c8.5-0.5,15-8.2,14.5-17c0,0,0,0,0,0
															C170.2,77.4,162.9,70.7,154.4,71.2"/>
													</g>
												</g>
												<g>
													<defs>
														<rect id="SVGID_13_" x="141.4" y="72.7" width="27.9" height="29.1"/>
													</defs>
													<clipPath id="SVGID_14_">
														<use xlink:href="#SVGID_13_"  style="overflow:visible;"/>
													</clipPath>
													<g class="st14">
														<path class="st15" d="M154.5,72.8c-7.7,0.5-13.5,7.4-13.1,15.4c0.5,8,7.1,14.2,14.7,13.7s13.5-7.4,13.1-15.4
															c0,0,0,0,0,0C168.8,78.4,162.2,72.3,154.5,72.8"/>
													</g>
												</g>
												<g>
													<defs>
														<rect id="SVGID_15_" x="142.9" y="74.3" width="24.9" height="26"/>
													</defs>
													<clipPath id="SVGID_16_">
														<use xlink:href="#SVGID_15_"  style="overflow:visible;"/>
													</clipPath>
													<g class="st16">
														<path class="st17" d="M154.6,74.3c-6.9,0.4-12.1,6.6-11.7,13.8c0.4,7.2,6.3,12.6,13.2,12.2
															c6.9-0.4,12.1-6.6,11.7-13.8C167.4,79.3,161.5,73.9,154.6,74.3"/>
													</g>
												</g>
												<g>
													<defs>
														<rect id="SVGID_17_" x="144.4" y="75.8" width="21.9" height="22.9"/>
													</defs>
													<clipPath id="SVGID_18_">
														<use xlink:href="#SVGID_17_"  style="overflow:visible;"/>
													</clipPath>
													<g class="st18">
														<path class="st19" d="M154.7,75.9c-6.1,0.4-10.7,5.8-10.4,12.1c0.3,6.3,5.5,11.2,11.6,10.8
															c6.1-0.4,10.7-5.8,10.4-12.1c0,0,0-0.1,0-0.1C165.9,80.3,160.7,75.5,154.7,75.9"/>
													</g>
												</g>
												<g>
													<defs>
														<rect id="SVGID_19_" x="145.9" y="77.4" width="18.9" height="19.8"/>
													</defs>
													<clipPath id="SVGID_20_">
														<use xlink:href="#SVGID_19_"  style="overflow:visible;"/>
													</clipPath>
													<g class="st20">
														<path class="st21" d="M154.8,77.4c-5.2,0.3-9.2,5-8.9,10.5c0.3,5.5,4.8,9.6,10,9.3c5.2-0.3,9.2-5,8.9-10.5
															c0,0,0,0,0,0C164.5,81.2,160,77.1,154.8,77.4"/>
													</g>
												</g>
												<g>
													<defs>
														<rect id="SVGID_21_" x="147.4" y="78.9" width="16" height="16.7"/>
													</defs>
													<clipPath id="SVGID_22_">
														<use xlink:href="#SVGID_21_"  style="overflow:visible;"/>
													</clipPath>
													<g class="st22">
														<path class="st23" d="M154.9,78.9c-4.4,0.3-7.8,4.2-7.5,8.8c0.3,4.6,4.1,8.1,8.5,7.9c4.4-0.3,7.8-4.2,7.5-8.8
															c0,0,0,0,0,0C163.1,82.2,159.3,78.7,154.9,78.9"/>
													</g>
												</g>
												<g>
													<defs>
														<rect id="SVGID_23_" x="148.9" y="80.5" width="13" height="13.6"/>
													</defs>
													<clipPath id="SVGID_24_">
														<use xlink:href="#SVGID_23_"  style="overflow:visible;"/>
													</clipPath>
													<g class="st24">
														<path class="st25" d="M155,80.5c-3.6,0.2-6.3,3.4-6.1,7.2c0.2,3.8,3.3,6.6,6.9,6.4c3.6-0.2,6.3-3.4,6.1-7.2
															c0,0,0,0,0,0C161.7,83.1,158.6,80.3,155,80.5C155,80.5,155,80.5,155,80.5"/>
													</g>
												</g>
												<g>
													<defs>
														<rect id="SVGID_25_" x="150.4" y="82" width="10" height="10.5"/>
													</defs>
													<clipPath id="SVGID_26_">
														<use xlink:href="#SVGID_25_"  style="overflow:visible;"/>
													</clipPath>
													<g class="st26">
														<path class="st27" d="M155.1,82.1c-2.8,0.2-4.8,2.7-4.7,5.5c0.2,2.9,2.6,5.1,5.3,4.9c2.7-0.2,4.8-2.6,4.7-5.5
															C160.2,84.1,157.9,81.9,155.1,82.1C155.1,82.1,155.1,82.1,155.1,82.1"/>
													</g>
												</g>
												<g>
													<defs>
														<rect id="SVGID_27_" x="151.8" y="83.6" width="7.1" height="7.4"/>
													</defs>
													<clipPath id="SVGID_28_">
														<use xlink:href="#SVGID_27_"  style="overflow:visible;"/>
													</clipPath>
													<g class="st28">
														<path class="st29" d="M155.2,83.6c-2,0.1-3.4,1.9-3.3,3.9c0.1,2,1.8,3.6,3.7,3.5c2-0.1,3.4-1.9,3.3-3.9c0,0,0,0,0,0
															C158.8,85.1,157.1,83.5,155.2,83.6"/>
													</g>
												</g>
												<g>
													<defs>
														<rect id="SVGID_29_" x="153.3" y="85.1" width="4.1" height="4.3"/>
													</defs>
													<clipPath id="SVGID_30_">
														<use xlink:href="#SVGID_29_"  style="overflow:visible;"/>
													</clipPath>
													<g class="st30">
														<path class="st31" d="M155.2,85.1c-1.1,0.1-2,1.1-1.9,2.3c0.1,1.2,1,2.1,2.2,2c1.1-0.1,2-1.1,1.9-2.3
															c0-1.2-1-2.1-2.1-2C155.3,85.1,155.3,85.1,155.2,85.1"/>
													</g>
												</g>
												<g>
													<defs>
														<rect id="SVGID_31_" x="154.8" y="86.7" width="1.1" height="1.2"/>
													</defs>
													<clipPath id="SVGID_32_">
														<use xlink:href="#SVGID_31_"  style="overflow:visible;"/>
													</clipPath>
													<g class="st32">
														<path class="st33" d="M154.8,87.3c0,0.3,0.3,0.6,0.6,0.6c0.3,0,0.6-0.3,0.5-0.6c0-0.3-0.3-0.6-0.6-0.6
															C155,86.7,154.8,87,154.8,87.3C154.8,87.3,154.8,87.3,154.8,87.3"/>
													</g>
												</g>
											</g>
										</g>
									</g>
									<g class="st9">
										<g>
											<defs>
												<rect id="SVGID_33_" x="184.3" y="75.7" width="33.8" height="35.3"/>
											</defs>
											<clipPath id="SVGID_34_">
												<use xlink:href="#SVGID_33_"  style="overflow:visible;"/>
											</clipPath>
											<g class="st34">
												<g>
													<defs>
														<rect id="SVGID_35_" x="184.3" y="75.7" width="33.8" height="35.3"/>
													</defs>
													<clipPath id="SVGID_36_">
														<use xlink:href="#SVGID_35_"  style="overflow:visible;"/>
													</clipPath>
													<g class="st35">
														<path class="st3" d="M184.3,94.5c0.6,9.7,8.6,17.2,17.9,16.6c9.3-0.6,16.4-8.9,15.9-18.7c-0.6-9.7-8.6-17.2-17.9-16.6
															c0,0,0,0,0,0C190.8,76.4,183.7,84.7,184.3,94.5"/>
													</g>
												</g>
												<g>
													<defs>
														<rect id="SVGID_37_" x="185.7" y="77.3" width="30.8" height="32.2"/>
													</defs>
													<clipPath id="SVGID_38_">
														<use xlink:href="#SVGID_37_"  style="overflow:visible;"/>
													</clipPath>
													<g class="st36">
														<path class="st13" d="M200.2,77.4c-8.5,0.5-15,8.2-14.5,17c0.5,8.9,7.8,15.7,16.3,15.1c8.5-0.5,15-8.2,14.5-17
															c0,0,0,0,0,0C216,83.6,208.7,76.8,200.2,77.4"/>
													</g>
												</g>
												<g>
													<defs>
														<rect id="SVGID_39_" x="187.2" y="78.8" width="27.9" height="29.1"/>
													</defs>
													<clipPath id="SVGID_40_">
														<use xlink:href="#SVGID_39_"  style="overflow:visible;"/>
													</clipPath>
													<g class="st37">
														<path class="st15" d="M200.3,78.9c-7.7,0.5-13.5,7.4-13.1,15.4s7.1,14.1,14.7,13.7c7.7-0.5,13.5-7.4,13.1-15.4
															C214.6,84.5,208,78.4,200.3,78.9C200.3,78.9,200.3,78.9,200.3,78.9"/>
													</g>
												</g>
												<g>
													<defs>
														<rect id="SVGID_41_" x="188.7" y="80.4" width="24.9" height="26"/>
													</defs>
													<clipPath id="SVGID_42_">
														<use xlink:href="#SVGID_41_"  style="overflow:visible;"/>
													</clipPath>
													<g class="st38">
														<path class="st17" d="M200.4,80.4c-6.9,0.4-12.1,6.6-11.7,13.8c0.4,7.2,6.3,12.6,13.2,12.2s12.1-6.6,11.7-13.8
															c0,0,0,0,0,0C213.2,85.5,207.3,80,200.4,80.4"/>
													</g>
												</g>
												<g>
													<defs>
														<rect id="SVGID_43_" x="190.2" y="81.9" width="21.9" height="22.9"/>
													</defs>
													<clipPath id="SVGID_44_">
														<use xlink:href="#SVGID_43_"  style="overflow:visible;"/>
													</clipPath>
													<g class="st39">
														<path class="st19" d="M200.5,82c-6.1,0.4-10.7,5.8-10.4,12.1c0.3,6.3,5.5,11.2,11.6,10.8c6.1-0.4,10.7-5.8,10.4-12.1
															c0,0,0-0.1,0-0.1C211.7,86.4,206.5,81.6,200.5,82"/>
													</g>
												</g>
												<g>
													<defs>
														<rect id="SVGID_45_" x="191.7" y="83.5" width="19" height="19.8"/>
													</defs>
													<clipPath id="SVGID_46_">
														<use xlink:href="#SVGID_45_"  style="overflow:visible;"/>
													</clipPath>
													<g class="st40">
														<path class="st21" d="M200.6,83.5c-5.2,0.3-9.2,5-8.9,10.5c0.3,5.5,4.8,9.6,10,9.3c5.2-0.3,9.2-5,8.9-10.5
															c0,0,0,0,0,0C210.3,87.4,205.8,83.2,200.6,83.5"/>
													</g>
												</g>
												<g>
													<defs>
														<rect id="SVGID_47_" x="193.2" y="85.1" width="16" height="16.7"/>
													</defs>
													<clipPath id="SVGID_48_">
														<use xlink:href="#SVGID_47_"  style="overflow:visible;"/>
													</clipPath>
													<g class="st41">
														<path class="st23" d="M200.7,85.1c-4.4,0.3-7.8,4.2-7.5,8.8c0.3,4.6,4,8.1,8.5,7.9c4.4-0.3,7.8-4.2,7.5-8.8
															c0,0,0,0,0,0C208.9,88.3,205.1,84.8,200.7,85.1"/>
													</g>
												</g>
												<g>
													<defs>
														<rect id="SVGID_49_" x="194.7" y="86.6" width="13" height="13.6"/>
													</defs>
													<clipPath id="SVGID_50_">
														<use xlink:href="#SVGID_49_"  style="overflow:visible;"/>
													</clipPath>
													<g class="st42">
														<path class="st25" d="M200.8,86.6c-3.6,0.2-6.3,3.4-6.1,7.2c0.2,3.8,3.3,6.6,6.9,6.4c3.6-0.2,6.3-3.4,6.1-7.2
															c0,0,0,0,0,0C207.4,89.3,204.4,86.4,200.8,86.6C200.8,86.6,200.8,86.6,200.8,86.6"/>
													</g>
												</g>
												<g>
													<defs>
														<rect id="SVGID_51_" x="196.1" y="88.2" width="10" height="10.5"/>
													</defs>
													<clipPath id="SVGID_52_">
														<use xlink:href="#SVGID_51_"  style="overflow:visible;"/>
													</clipPath>
													<g class="st43">
														<path class="st27" d="M200.9,88.2c-2.8,0.2-4.8,2.7-4.7,5.6c0.2,2.9,2.6,5.1,5.3,4.9c2.7-0.2,4.8-2.6,4.7-5.5
															C206,90.2,203.7,88,200.9,88.2C200.9,88.2,200.9,88.2,200.9,88.2"/>
													</g>
												</g>
												<g>
													<defs>
														<rect id="SVGID_53_" x="197.6" y="89.7" width="7.1" height="7.4"/>
													</defs>
													<clipPath id="SVGID_54_">
														<use xlink:href="#SVGID_53_"  style="overflow:visible;"/>
													</clipPath>
													<g class="st44">
														<path class="st29" d="M200.9,89.7c-2,0.1-3.4,1.9-3.3,3.9s1.8,3.6,3.7,3.5c2-0.1,3.4-1.9,3.3-3.9
															C204.6,91.1,202.9,89.6,200.9,89.7"/>
													</g>
												</g>
												<g>
													<defs>
														<rect id="SVGID_55_" x="199.1" y="91.3" width="4.1" height="4.3"/>
													</defs>
													<clipPath id="SVGID_56_">
														<use xlink:href="#SVGID_55_"  style="overflow:visible;"/>
													</clipPath>
													<g class="st45">
														<path class="st31" d="M201,91.3c-1.1,0.1-2,1.1-1.9,2.3c0.1,1.2,1,2.1,2.2,2c1.1-0.1,2-1.1,1.9-2.3
															C203.1,92.1,202.1,91.2,201,91.3"/>
													</g>
												</g>
												<g>
													<defs>
														<rect id="SVGID_57_" x="200.6" y="92.8" width="1.1" height="1.2"/>
													</defs>
													<clipPath id="SVGID_58_">
														<use xlink:href="#SVGID_57_"  style="overflow:visible;"/>
													</clipPath>
													<g class="st46">
														<path class="st33" d="M200.6,93.4c0,0.3,0.2,0.6,0.5,0.6s0.6-0.2,0.6-0.6c0,0,0-0.1,0-0.1c0-0.3-0.3-0.6-0.6-0.6
															c0,0,0,0,0,0C200.8,92.8,200.6,93.1,200.6,93.4C200.6,93.4,200.6,93.4,200.6,93.4"/>
													</g>
												</g>
											</g>
										</g>
									</g>
									<path class="st47" d="M201.9,77c0,1.6,1.3,2.9,2.9,2.9c1.6,0,2.8-1.4,2.8-3c0-1.5-1.1-2.7-2.5-2.9
										C203.4,73.9,202,75.3,201.9,77"/>
									<path class="st47" d="M154.8,70.7c0,1.6,1.3,2.9,2.8,2.9c1.6,0,2.8-1.3,2.8-3c0-1.5-1.1-2.7-2.5-2.9
										C156.3,67.6,154.9,69,154.8,70.7"/>
									<path class="st8" d="M216.3,66.5c0.4,0,0.8-0.2,1.1-0.5c0.6-0.7,0.6-1.8,0-2.5c0,0,0,0,0,0c-2.8-2.8-9.5-8.7-18.3-1.7
										c-0.8,0.5-1,1.6-0.6,2.4c0.5,0.8,1.5,1.1,2.3,0.6c4.5-2.9,10.3-2.4,14.3,1.2C215.3,66.3,215.8,66.5,216.3,66.5"/>
									<path class="st8" d="M147.6,57c-0.9-0.3-1.3-1.3-1-2.2c0.1-0.4,0.4-0.7,0.8-0.9c3.4-1.9,11.5-5.5,18.1,3.8
										c0.6,0.7,0.5,1.8-0.1,2.4c-0.7,0.6-1.7,0.6-2.3-0.1c-3.5-4.2-9.2-5.5-14.1-3.1C148.5,57.1,148,57.1,147.6,57"/>
									<path class="st48" d="M175.7,113.4c6.4,0.8,9.9-1.4,11.6-2.8c0.7-0.6,1-1.6,0.6-2.5c-0.5-0.9-1.5-1.2-2.4-0.7
										c-6.1,2.2-12.9,1.2-18.2-2.6c-0.8-0.6-1.8-0.4-2.4,0.4c0,0,0,0,0,0c-0.5,0.8-0.3,1.9,0.4,2.5
										C167.7,110.7,170.4,112.5,175.7,113.4"/>
									<path class="st7" d="M178.2,99c2.3,0.2,4.2-0.2,5.3-1.9c3.4-5.2-0.6-14.9-1-16c-0.2-0.8-0.7-1.3-1.4-1
										c-0.8,0.3-0.6,1.3-0.4,2.1c1.1,3.8,1.3,10.7-0.5,13c-0.5,0.6-1.2,0.9-1.9,0.8c-0.8,0-1.5,0.6-1.5,1.5
										C176.7,98.9,178.1,99,178.2,99"/>
									<path class="st49" d="M222.6,171c0,0-41,49.7-87.3,1.7c0,0-35,17.7-54,36.4c0,0,22.1,120.1,26.4,185.1
										c0,0,51.5,13.4,144.4,0c0,0,25.7-174.4,24.9-185.1C276.9,209.2,253.1,185.8,222.6,171"/>
									<path class="st50" d="M127.8,176.5c0,0,3.9,504.7,0.2,556.7c0,0-7.6,18.8-40.5,0c-32.8-18.8-32.5-35-32.5-35l20.9-367.6
										c0,0-2.3-87.4-3.9-123.6C71.9,207,89,196.9,127.8,176.5"/>
									<path class="st51" d="M77.4,327.9h-0.1c-0.6-0.1-1-0.6-0.9-1.2l7.9-80.9c0-0.6,0.5-1,1-1c0,0,0.1,0,0.1,0
										c0.6,0,1,0.6,1,1.2c0,0,0,0,0,0l-8,80.9C78.4,327.5,78,328,77.4,327.9"/>
									<path class="st51" d="M113.7,534c-0.1,0-0.3,0-0.4-0.1l-40.8-17.5c-0.6-0.2-0.8-0.9-0.6-1.5c0.2-0.6,0.8-0.9,1.4-0.6l0,0
										l40.8,17.5c0.5,0.2,0.8,0.9,0.6,1.5C114.6,533.7,114.2,534,113.7,534"/>
									<path class="st3" d="M481.3,384.5c0,0,14.8-14.6,21-14.9s20.9-2.1,23.8-1.6c7.1,1.4,17-0.3,17.3,1.8s1.3,6.3-13.3,8.1
										l16.3,1.9c0,0,5.9,0.3,5.6,5.2c-0.1,2.9-2.3,5.3-5.1,5.4l-6.1,0.4c1.8,1.1,2.7,3.4,2,5.4c-1.5,5.6-8.1,4-8.1,4
										c1.7,1.4,2.3,3.8,1.5,6c-0.8,2.1-2.5,3.6-4.6,4c0,0,1,2.5-0.1,4.2c-1.6,2.7-8.4,3.3-8.4,3.3c-13.6-0.7-26.9-3.7-39.6-8.8
										C483.3,408.9,463.4,399.3,481.3,384.5"/>
									<path class="st3" d="M517.8,414.7c0,0,6-2.5,3.5-7.2l2.1,0.2c0,0,5.9-3.1,3.7-9.6l1.8,0.7c0,0,7.5-3.3,4.1-10.6
										s-11.3-4.5-11.3-4.5l-12.5,24.1C509.1,407.8,509.4,415.6,517.8,414.7"/>
									<path class="st3" d="M544.1,390.2c0,0,3.4-5.2,1.1-10.5c0,0-4.9-0.3-5.7,4.5C538.8,389,544.1,390.2,544.1,390.2"/>
									<path class="st7" d="M530,377.8c-1.2,0.1-2.3,0-3.4-0.3l-7.4,1.3c0,0-11.8,13.2-21.4,12.7c0,0,12.2,10.4,10.8,22.9
										c0,0,11,2.8,16.1,2l-11.1-4.4c-1.9-0.6-3-2.8-2.4-4.8c0-0.1,0-0.1,0.1-0.2c1-3.9,4.9-2.4,4.9-2.4l15.1,5.4l-12.4-6
										c0,0-4.1-1.8-2.3-5.9c1.5-3.5,5.4-2,5.4-2l12,3.8l-10-4.2c0,0-2.8-1.4-1.6-5.3c1.2-3.9,5.3-2.8,5.3-2.8l12.5,2.9l4-0.4
										c0,0-3.8-1.6-3.7-5.6c0.1-4,4.9-4.9,4.9-4.9L530,377.8z"/>
									<path class="st50" d="M236,176.6c0,0-9.9,500.3-6.2,552.2c0,0,0,27.2,45.7,4.4c28.3-14,29.7-34.9,29.7-34.9l-16.4-353.2
										c0,0,43.3,75.3,192.3,70.1c0,0,10.6-14,12.2-50.2c0,0-135-1.6-182.8-110C290.9,210.8,249,183.4,236,176.6"/>
									<path class="st51" d="M286.6,338.4c-0.6,0-1-0.5-1.1-1c0-0.7-4.2-66.6-6.3-82.4c-0.1-0.6,0.2-1.2,0.8-1.3
										c0.6-0.1,1.1,0.2,1.3,0.8c0,0.1,0,0.1,0,0.2c2.1,15.9,6.3,81.9,6.4,82.6C287.7,337.9,287.2,338.4,286.6,338.4L286.6,338.4"
										/>
									<path class="st51" d="M243.7,530.7c-0.6,0-1.1-0.5-1.1-1.1c0-0.6,0.4-1,0.9-1.1l42.9-5.9c0.6-0.1,1.1,0.3,1.2,1
										c0.1,0.6-0.3,1.2-0.9,1.2l-42.9,5.8L243.7,530.7"/>
									<path class="st50" d="M71,206.9c0,0-25.5,29.8-48.3,89.7c-23.2,60.8-28.8,80.2-15.9,89.9c22.6,16.9,49.8-29.9,81.2-93.7
										C88,292.7,95.2,239.1,71,206.9"/>
									<path class="st50" d="M35.7,318.4c0,0-9.6,1.8-16.4,14c-6.8,12.2-17.3,22.1-18.8,33c-1.5,10.9,0.1,21,10.5,25.5
										c10.4,4.5,25,3.1,30.6-1c13.3-9.8,21.1-41.7,21.1-41.7S69.1,334,51,322.9C40,316.1,35.7,318.4,35.7,318.4"/>
									<path class="st51" d="M10.5,343.9c2.8-3.9,5.5-7.9,7.9-12c4.4-7.9,9.9-11.5,13.4-13.2c-0.3,0.8-0.5,1.7-0.6,2.5
										c-4.7,2.7-8.6,6.7-11.2,11.6c-2.5,4.2-5.1,8.3-8,12.2c-2.9,3.8-5.5,7.9-7.8,12.1c-0.5-0.5-0.9-0.9-1.5-1.3
										C5.1,351.7,7.7,347.7,10.5,343.9"/>
									<path class="st52" d="M51.6,253.7h35.1c1.1,0,1.9,0.9,1.9,2v75.1c0,1.1-0.9,2-1.9,2H51.6c-1.1,0-1.9-0.9-1.9-2v-75.1
										C49.6,254.6,50.5,253.7,51.6,253.7z"/>
									<path class="st53" d="M75.2,258.8c0,1,0.7,2.2,1.5,2.2h6.8c0.8,0,1.5-1.2,1.5-2.2c0-1-0.6-2.2-1.5-2.2h-6.8
										C75.9,256.6,75.2,257.8,75.2,258.8"/>
									<path class="st3" d="M45.9,283.3c0,0,4.5-1.4,4.5,3.9c0,4.2,0,18.8,0,18.8s33.4-18.6,38.4-20.6c4.1-1.7,5.9,1,5.2,4.5
										c-0.6,2.8-5.2,5.6-5.2,5.6s4.3-1.5,4.8,3c0.4,4-4.8,7.5-4.8,7.5s3.7-2.7,4.7,1.3c1.2,4.8-4.7,9-4.7,9s3.6-2.4,4.8,1.2
										c1.4,4.3-7.2,12.4-15.6,17.6s-11.7,7.8-17,9.8s-20.8,2.5-22-8.7s0.7-30.3,1.7-33.8s3.3-13.9,3.6-15.8
										S44.8,283.2,45.9,283.3"/>
									<path class="st7" d="M75.7,303.9c0.1,0,0.2,0,0.2-0.1l11.8-7.5c0.2-0.1,0.3-0.5,0.2-0.7c-0.1-0.2-0.4-0.3-0.7-0.2l0,0
										l-11.8,7.5c-0.2,0.1-0.3,0.5-0.2,0.7C75.4,303.8,75.5,303.9,75.7,303.9"/>
									<path class="st7" d="M79.4,312.4c0.1,0,0.2,0,0.2-0.1l9.1-5.8c0.2-0.1,0.3-0.5,0.2-0.7c-0.1-0.2-0.4-0.3-0.7-0.2
										c0,0,0,0,0,0l-9.1,5.8c-0.2,0.1-0.3,0.4-0.2,0.7c0,0,0,0,0,0C79.1,312.3,79.3,312.4,79.4,312.4"/>
									<path class="st7" d="M81.7,321.9c0.1,0,0.2,0,0.3-0.1l6.8-4.8c0.2-0.2,0.3-0.5,0.1-0.7c0,0,0,0,0,0
										c-0.1-0.2-0.4-0.3-0.6-0.2c0,0,0,0,0,0l-6.8,4.7c-0.2,0.2-0.3,0.5-0.1,0.7C81.4,321.8,81.6,321.8,81.7,321.9"/>
								</g>
							</g>
						</g>
					</g>
				</g>
			</g>
		</g>
	</g>
</g>
</svg>
