<svg xmlns="http://www.w3.org/2000/svg" viewBox="0 0 1103.57 292.9"><defs><style>.cls-1{fill:#db5252;}.cls-2{fill:#ce4949;}.cls-3{fill:#b73939;}.cls-4{fill:#30323d;}.cls-5{fill:#23242b;}.cls-6{fill:#ef7159;}.cls-7{fill:#d35948;}.cls-8{fill:#ee7159;}.cls-9{fill:#ee6f58;}.cls-10{fill:#ed6d57;}.cls-11{fill:#eb6a54;}.cls-12{fill:#ea6652;}.cls-13{fill:#e9614e;}.cls-14{fill:#e85b4a;}.cls-15{fill:#e65444;}.cls-16{fill:#e34b3e;}.cls-17{fill:#e14237;}.cls-18{fill:#df392f;}.cls-19{fill:#fff;}.cls-20{fill:#ddd8cc;}.cls-21{fill:#efe8e4;}.cls-22{fill:#686d82;}.cls-23{fill:#efe7df;}.cls-24{fill:#c6b7ab;}.cls-25{fill:#a1a9bf;}.cls-26{fill:#d6c5bd;}.cls-27{fill:#b6c1e0;}.cls-28{fill:#8c97af;}.cls-29{fill:#5c83aa;}.cls-30{fill:#c6b3a3;}.cls-31{fill:#59876e;}.cls-32{fill:#4e8264;}.cls-33{fill:#3e634e;}.cls-34{fill:#565a68;}.cls-35{fill:#c1bcb0;}.cls-36{fill:#c64646;}.cls-37{fill:#77839e;}.cls-38{fill:#87a9c6;}.cls-39{fill:#7297b2;}.cls-40{fill:#bf4545;}.cls-41{fill:#d8a987;}.cls-42{fill:#edc6a6;}.cls-43{fill:#e0d7d3;}.cls-44{fill:#b7a69f;}.cls-45{fill:#4c7393;}.cls-46{fill:#d8c5b8;}.cls-47{fill:#e87777;}.cls-48{fill:#684d42;}.cls-49{fill:#606575;}.cls-50{fill:#513a33;}.cls-51{fill:#3e4659;}</style></defs><g id="Layer_2" data-name="Layer 2"><g id="Layer_1-2" data-name="Layer 1"><path class="cls-1" d="M386.5,248.74s-22.7,4.86-36.37,0-80-6.23-90-47.63-23.41-54.31-11.7-83,36.23-56.12,63-58.28,109.25-16.11,157.74-1,55.74,60.65,54.07,79.1-5.58,56.28-21.74,68.3S478.9,253.6,386.5,248.74"/><path class="cls-2" d="M331.76,187.36S317.42,172,309.24,168.72s15.24-15,15.24-15-4.59-16.59-17-21.42,16.31-13.56,24.26-9.57-8-28.34,5-24.25,25.09,8.41,35.89-8.81,27.35,2.72,27.63,8.81,31-10.77,35.56-1.86-16.68,24.16-4.74,24.16,45.76,4.46,32.75,11.89-25.25,11.52-24.14,18.21S472.38,166.53,464.2,171,435,189.51,433.86,198.12s-102.1-10.76-102.1-10.76Z"/><path class="cls-3" d="M298.83,197.74a.37.37,0,0,1-.14-.71c17.8-7.33,34.56-2.24,37.74-1.14l.05,0a.37.37,0,1,1-.23.7l-.06,0c-3.14-1.08-19.67-6.1-37.21,1.13a.39.39,0,0,1-.15,0Z"/><path class="cls-3" d="M326.52,181.32a.36.36,0,0,1-.27-.12c-.18-.19-18.32-19.06-38.87-15.42a.37.37,0,0,1-.13-.73c11-1.94,21.13,2.42,27.73,6.42a62.61,62.61,0,0,1,11.81,9.22.38.38,0,0,1,0,.53.35.35,0,0,1-.25.1Z"/><path class="cls-3" d="M442.57,198.86a.37.37,0,0,1-.16-.71l.25-.2A32,32,0,0,1,453,192.47c7.39-2.35,15.56-2.31,24.29.13a.37.37,0,1,1-.2.71c-18.37-5.13-29.89,1.94-34,5.22-.35.28-.41.33-.56.33Z"/><path class="cls-3" d="M438.58,190.51a.37.37,0,0,1-.26-.1.37.37,0,0,1,0-.52c.23-.25,23.74-24.82,43.75-23.72a.37.37,0,0,1,0,.74c-19.67-1.07-42.94,23.24-43.17,23.49a.43.43,0,0,1-.27.11Z"/><path class="cls-3" d="M321.91,147.65a.4.4,0,0,1-.32-.17c-11.67-18.22-34.86-26.95-36.14-27a.4.4,0,0,1-.36-.39.36.36,0,0,1,.36-.36c1.16,0,24.87,8.8,36.77,27.37a.38.38,0,0,1-.11.52.39.39,0,0,1-.2.06Z"/><path class="cls-3" d="M443.07,144.43a.38.38,0,0,1-.3-.15.38.38,0,0,1,.08-.52c1-.73,24-17.73,39.23-16.25a.37.37,0,0,1-.07.74c-14.93-1.46-38.48,15.93-38.72,16.1a.35.35,0,0,1-.22.08Z"/><polygon class="cls-4" points="369.77 168.92 412.48 170.45 415.74 184.02 366.47 184.02 369.77 168.92 369.77 168.92"/><path class="cls-5" d="M409.58,63.64s-.5,19.25,1.16,25.36c0,0-19.94,5-34.43-.74V61.45l33.27,2.19"/><path class="cls-6" d="M383.38,79.59s.51,12,0,13.89-11.87,8-16.75,10.25c0,0,11,19.3,23.31,19s23.84-15.78,25.79-18.58c0,0-16-6.37-16.19-10.36s0-14.24,0-14.24Z"/><path class="cls-7" d="M391.35,90.86c3.88,0,6.58-2.56,8.09-4.65,0-3.54.1-6.62.1-6.62H383.38s.14,3.08.2,6.45c1.3,2.12,3.79,4.82,7.77,4.82Z"/><path class="cls-6" d="M405.05,65.65s.78-2.31,3.87-2,2,7.92-.65,9.18-3.49-2.54-3.49-2.54l.27-4.61"/><path class="cls-6" d="M407.59,62.62C406.28,79,400,86.87,392,86.87s-14.35-6.5-15.6-24.25c-.92-13.12,5.95-21.23,15.6-21.23s16.69,7.61,15.6,21.23"/><path class="cls-5" d="M405.15,75.11c.29-.83.56-1.69.81-2.61l.12.11c0,.11,0,.22-.05.33a6,6,0,0,1-.88,2.17"/><path class="cls-6" d="M406.08,72.61,406,72.5c.06-.21.12-.44.17-.66a5.06,5.06,0,0,1-.05.77"/><path class="cls-6" d="M400.21,77.76a5.93,5.93,0,1,1,5.92-5.92c-.05.22-.11.45-.17.66-.25.92-.52,1.78-.81,2.61a5.94,5.94,0,0,1-4.94,2.65m0-11.34a5.41,5.41,0,0,0-1,10.73,5.75,5.75,0,0,0,1,.09,5.41,5.41,0,0,0,1-10.72,5.86,5.86,0,0,0-1-.1"/><path class="cls-8" d="M400.21,77.24a5.75,5.75,0,0,1-1-.09,5.41,5.41,0,0,1,1-10.73,5.86,5.86,0,0,1,1,.1,5.41,5.41,0,0,1-1,10.72m0-10.29a4.89,4.89,0,0,0-.91,9.69,5.82,5.82,0,0,0,.92.08,4.89,4.89,0,0,0,.9-9.69,4.67,4.67,0,0,0-.91-.08"/><path class="cls-9" d="M400.21,76.72a5.82,5.82,0,0,1-.92-.08A4.89,4.89,0,0,1,400.2,67a4.67,4.67,0,0,1,.91.08,4.89,4.89,0,0,1-.9,9.69m0-9.25a4.36,4.36,0,0,0-.81,8.65,3.86,3.86,0,0,0,.82.08,4.37,4.37,0,0,0,.8-8.66,4.43,4.43,0,0,0-.81-.07"/><path class="cls-10" d="M400.21,76.2a3.86,3.86,0,0,1-.82-.08,4.36,4.36,0,0,1,.81-8.65,4.43,4.43,0,0,1,.81.07,4.37,4.37,0,0,1-.8,8.66m0-8.21a3.84,3.84,0,0,0-.71,7.62,3.51,3.51,0,0,0,.72.07,3.84,3.84,0,0,0,.71-7.62,3.58,3.58,0,0,0-.72-.07"/><path class="cls-11" d="M400.21,75.68a3.51,3.51,0,0,1-.72-.07A3.84,3.84,0,0,1,400.2,68a3.58,3.58,0,0,1,.72.07,3.84,3.84,0,0,1-.71,7.62m0-7.17a3.32,3.32,0,0,0-.62,6.59,3.36,3.36,0,0,0,.63.06,3.32,3.32,0,0,0,.61-6.59,3.26,3.26,0,0,0-.62-.06"/><path class="cls-12" d="M400.21,75.16a3.36,3.36,0,0,1-.63-.06,3.32,3.32,0,0,1,.62-6.59,3.26,3.26,0,0,1,.62.06,3.32,3.32,0,0,1-.61,6.59m0-6.13a2.8,2.8,0,0,0-.52,5.56,3.15,3.15,0,0,0,.52,0,2.8,2.8,0,0,0,.52-5.56,3.05,3.05,0,0,0-.52,0"/><path class="cls-13" d="M400.2,74.64a3.15,3.15,0,0,1-.52,0A2.8,2.8,0,0,1,400.2,69a3.05,3.05,0,0,1,.52,0,2.8,2.8,0,0,1-.52,5.56m0-5.09a2.28,2.28,0,0,0-.42,4.53,3,3,0,0,0,.42,0,2.28,2.28,0,0,0,.43-4.53,2.15,2.15,0,0,0-.43,0"/><path class="cls-14" d="M400.2,74.12a3,3,0,0,1-.42,0,2.28,2.28,0,0,1,.42-4.53,2.15,2.15,0,0,1,.43,0,2.28,2.28,0,0,1-.43,4.53m0-4.05a1.76,1.76,0,0,0-.33,3.49l.33,0a1.76,1.76,0,0,0,.33-3.49,1.84,1.84,0,0,0-.33,0"/><path class="cls-15" d="M400.2,73.59l-.33,0a1.76,1.76,0,0,1,.33-3.49,1.84,1.84,0,0,1,.33,0,1.76,1.76,0,0,1-.33,3.49m0-3a1.24,1.24,0,0,0-.23,2.46.93.93,0,0,0,.23,0,1.24,1.24,0,0,0,.23-2.46l-.23,0"/><path class="cls-16" d="M400.2,73.07a.93.93,0,0,1-.23,0,1.24,1.24,0,0,1,.23-2.46l.23,0a1.24,1.24,0,0,1-.23,2.46m0-2a.72.72,0,0,0-.13,1.43h.13a.72.72,0,0,0,.71-.58.71.71,0,0,0-.57-.84l-.14,0"/><path class="cls-17" d="M400.2,72.55h-.13a.72.72,0,0,1,.13-1.43l.14,0a.71.71,0,0,1,.57.84.72.72,0,0,1-.71.58m0-.92a.2.2,0,0,0,0,.4h0a.2.2,0,0,0,0-.39h0"/><path class="cls-18" d="M400.2,72h0a.2.2,0,0,1,0-.4h0a.2.2,0,0,1,0,.39"/><path class="cls-6" d="M384,77.76a5.93,5.93,0,1,1,5.82-4.82A6,6,0,0,1,384,77.76m0-11.34a5.41,5.41,0,0,0-1,10.73,5.86,5.86,0,0,0,1,.09,5.41,5.41,0,0,0,1-10.72,6,6,0,0,0-1-.1"/><path class="cls-8" d="M384,77.24a5.86,5.86,0,0,1-1-.09,5.41,5.41,0,0,1,1-10.73,6,6,0,0,1,1,.1,5.41,5.41,0,0,1-1,10.72M384,67a4.89,4.89,0,0,0-.9,9.69,5.69,5.69,0,0,0,.91.08,4.89,4.89,0,0,0,.91-9.69A4.77,4.77,0,0,0,384,67"/><path class="cls-9" d="M384,76.72a5.69,5.69,0,0,1-.91-.08A4.89,4.89,0,0,1,384,67a4.77,4.77,0,0,1,.92.08,4.89,4.89,0,0,1-.91,9.69m0-9.25a4.36,4.36,0,0,0-.81,8.65,3.77,3.77,0,0,0,.81.08,4.37,4.37,0,0,0,.81-8.66,4.51,4.51,0,0,0-.81-.07"/><path class="cls-10" d="M384,76.2a3.77,3.77,0,0,1-.81-.08,4.36,4.36,0,0,1,.81-8.65,4.51,4.51,0,0,1,.81.07A4.37,4.37,0,0,1,384,76.2M384,68a3.84,3.84,0,0,0-.72,7.62,3.58,3.58,0,0,0,.72.07,3.84,3.84,0,0,0,.71-7.62A3.49,3.49,0,0,0,384,68"/><path class="cls-11" d="M384,75.68a3.58,3.58,0,0,1-.72-.07A3.84,3.84,0,0,1,384,68a3.49,3.49,0,0,1,.71.07,3.84,3.84,0,0,1-.71,7.62m0-7.17a3.34,3.34,0,1,0,.62.06,3.33,3.33,0,0,0-.62-.06"/><path class="cls-12" d="M384,75.16a3.32,3.32,0,1,1,3.27-2.71A3.34,3.34,0,0,1,384,75.16M384,69a2.8,2.8,0,0,0-.52,5.56,3.05,3.05,0,0,0,.52,0,2.8,2.8,0,0,0,.52-5.56,3.05,3.05,0,0,0-.52,0"/><path class="cls-13" d="M384,74.64a3.05,3.05,0,0,1-.52,0A2.8,2.8,0,0,1,384,69a3.05,3.05,0,0,1,.52,0,2.8,2.8,0,0,1-.52,5.56m0-5.09a2.28,2.28,0,0,0-.42,4.53,3,3,0,0,0,.42,0,2.28,2.28,0,0,0,.42-4.53,2,2,0,0,0-.42,0"/><path class="cls-14" d="M384,74.12a3,3,0,0,1-.42,0,2.28,2.28,0,0,1,.42-4.53,2,2,0,0,1,.42,0,2.28,2.28,0,0,1-.42,4.53m0-4.05a1.76,1.76,0,0,0-.33,3.49,1.84,1.84,0,0,0,.33,0,1.76,1.76,0,0,0,.33-3.49,1.93,1.93,0,0,0-.33,0"/><path class="cls-15" d="M384,73.59a1.84,1.84,0,0,1-.33,0,1.76,1.76,0,0,1,.33-3.49,1.93,1.93,0,0,1,.33,0,1.76,1.76,0,0,1-.33,3.49m0-3a1.24,1.24,0,0,0-.23,2.46.93.93,0,0,0,.23,0,1.24,1.24,0,0,0,1.22-1,1.25,1.25,0,0,0-1-1.45l-.23,0"/><path class="cls-16" d="M384,73.07a.93.93,0,0,1-.23,0,1.24,1.24,0,0,1,.23-2.46l.23,0a1.25,1.25,0,0,1,1,1.45,1.24,1.24,0,0,1-1.22,1m0-2a.72.72,0,0,0-.13,1.43H384a.72.72,0,0,0,.13-1.42l-.13,0"/><path class="cls-17" d="M384,72.55h-.13a.72.72,0,0,1,.13-1.43l.13,0a.72.72,0,0,1-.13,1.42m0-.92a.21.21,0,0,0-.2.17A.2.2,0,0,0,384,72h0a.18.18,0,0,0,.19-.16.2.2,0,0,0-.15-.23h0"/><path class="cls-18" d="M384,72h0a.2.2,0,0,1-.16-.23.21.21,0,0,1,.2-.17h0a.2.2,0,0,1,.15.23A.18.18,0,0,1,384,72"/><path class="cls-4" d="M380.2,62.91a.64.64,0,0,1-.4-.13.58.58,0,0,1-.08-.82c.86-1.06,3-3.29,6.33-1.31a.61.61,0,0,1,.29.77.59.59,0,0,1-.77.29,4.21,4.21,0,0,0-4.95,1,.62.62,0,0,1-.42.22Z"/><path class="cls-4" d="M403.89,62.88a.61.61,0,0,0,.4-.14.58.58,0,0,0,.07-.82c-.87-1-3-3.25-6.34-1.24a.61.61,0,0,0-.29.77.59.59,0,0,0,.78.28,4.19,4.19,0,0,1,5,.94.59.59,0,0,0,.42.21Z"/><path class="cls-19" d="M391.61,79.5a4.69,4.69,0,0,1-3.55-1.32.63.63,0,0,1-.12-.77.55.55,0,0,1,.78-.11,6.57,6.57,0,0,0,5.83,0,.56.56,0,0,1,.75.23c.11.21.05.48-.23.75a4.84,4.84,0,0,1-3.46,1.27Z"/><path class="cls-7" d="M391.75,74.71a1.85,1.85,0,0,1-1.77-.85c-1-1.88.86-4.92,1-5.29s.3-.41.55-.3.16.46.05.72c-.55,1.22-.89,3.49-.39,4.35a.71.71,0,0,0,.63.35.52.52,0,0,1,.47.56.49.49,0,0,1-.56.46Z"/><path class="cls-4" d="M384.31,67.49a.76.76,0,0,1-.32-.08.89.89,0,0,0-.86-.07.68.68,0,0,1-.94-.18.67.67,0,0,1,.18-.93,2.19,2.19,0,0,1,2.26,0,.67.67,0,0,1-.32,1.27Z"/><path class="cls-4" d="M399.48,67.49a.72.72,0,0,0,.32-.08.91.91,0,0,1,.87-.07.67.67,0,1,0,.76-1.11,2.21,2.21,0,0,0-2.27,0,.67.67,0,0,0-.27.91.66.66,0,0,0,.59.36Z"/><path class="cls-4" d="M398.37,46.61s-14.84-5.22-16.29,3.24c-1.73,10,.85,27.25-4,39.13,0,0-9.62,3.19-15.2-3.73,0,0,4.6-5.58,7.44-19.77,1.26-6.35,1.59-16.57,4.66-22.38,3.53-6.68,11.41-11.34,25.28-2.43,0,0,10.12-.67,9.85,9.45s-.57,13.68-.57,13.68a2.91,2.91,0,0,0-1.78-.16s-1.92,5.87-1.88,0c0,0,1-17.52-7.51-17Z"/><path class="cls-5" d="M399.67,72.5a4.5,4.5,0,1,1,4.5-4.49,4.5,4.5,0,0,1-4.5,4.49Zm-16.24,0A4.5,4.5,0,1,1,387.92,68a4.5,4.5,0,0,1-4.49,4.49ZM408.67,63a.38.38,0,0,0-.54,0l-3.31,3.86a5.26,5.26,0,0,0-10.38.56,9.54,9.54,0,0,0-5.79,0A5.25,5.25,0,0,0,378.27,67l-2.95-3.89a.38.38,0,1,0-.6.46L378,67.94a.33.33,0,0,0,.13.11,5.25,5.25,0,0,0,10.5.21,8.67,8.67,0,0,1,5.76,0A5.25,5.25,0,0,0,404.92,68v0l0,0,3.76-4.38a.39.39,0,0,0,0-.54Z"/><path class="cls-7" d="M387.28,106.23a.4.4,0,0,1-.25-.09c-1.82-1.61-11-2.42-14.42-2.6a.38.38,0,0,1-.35-.39.36.36,0,0,1,.39-.35c.51,0,12.48.68,14.87,2.78a.38.38,0,0,1,0,.53.39.39,0,0,1-.28.12Z"/><path class="cls-7" d="M394.4,106.23a.36.36,0,0,1-.31-.16.37.37,0,0,1,.1-.52c.14-.1,3.76-2.47,15.06-1.82a.36.36,0,0,1,.35.39.38.38,0,0,1-.39.35c-11.06-.64-14.57,1.67-14.6,1.7a.42.42,0,0,1-.21.06Z"/><path class="cls-6" d="M392.63,198.65c11.58,1.26,33.59,2.67,33.59,2.67,3.75-1.29,2-8.06,2-8.06-6.58-2-27.18-4.22-32.87-5.9-2,4.82-2.67,7.52-2.72,11.29Z"/><path class="cls-20" d="M432.75,206.73a33.84,33.84,0,0,0-7.5-4.67c-1.76-5.16.77-7.06,2.33-8.25h0s.16-.35-1-.83c0,0,2.92-.3,4.2,1.11h0c1.24.26,2.31,1.33,5.82,2.75,6.77,2.73,7.43,6.75,5.65,10.35-2,4-7.52,1.23-9.48-.46Z"/><path class="cls-4" d="M370.62,101.17s-10.47,5-14.18,8c0,0,9.9,34.66,11.7,54.23,0,0,23.95,11.89,44.46,0,0,0,6.72-42.44,12.18-54.23,0,0-9.34-5.81-13.59-7.77,0,0-6,13.35-20.83,12.89a22.11,22.11,0,0,1-19.74-13.15Z"/><path class="cls-21" d="M336.37,167.83s9.85-3.72,22.11,1.49,18.06,7.24,21.48,7.06,17.92,1.55,21.07,2,10,.93,10,.93-.8,20.25-4,27.68c0,0-13,.38-17.49-1.11s-16.54,2.23-24.34-2.42-25.27-6.13-26.94-7.61-18.21-18.77-1.86-28.06Z"/><path class="cls-4" d="M356.44,109.2s-7.69,4.39-13.88,34.08c0,0-5.7,22.75,2.23,23.25s15.19.1,21.47-31.29c0,0-1.15-18.21-9.82-26Z"/><path class="cls-22" d="M346.9,168.72s-7.56-1.18-8.06-5.71-.21-7.51,2.68-12.09,21.14-.53,14.92,12.09c-3.72,7.52-9.54,5.71-9.54,5.71Z"/><path class="cls-4" d="M424.78,109.2s7.68,4.39,13.87,34.08c0,0,5.7,22.75-2.23,23.25s-15.19.1-21.47-31.29c0,0,1.16-18.21,9.83-26Z"/><path class="cls-22" d="M434.32,168.72s7.55-1.18,8-5.71.22-7.51-2.67-12.09-21.14-.53-14.91,12.09c3.71,7.52,9.54,5.71,9.54,5.71Z"/><path class="cls-6" d="M358.68,162s-5,4.66-10.23,4.61-7.62-2.84-6.76-7.42c1.74-9.26,13.36-3.91,13.36-3.91s4.21,2.72,3.63,6.72Z"/><path class="cls-6" d="M422.53,162s5,4.66,10.22,4.61,7.63-2.84,6.77-7.42c-1.74-9.26-13.36-3.91-13.36-3.91S422,158,422.53,162Z"/><path class="cls-23" d="M359.74,138.7l5.87-3.46s23.62,1.52,24.75,8.43c0,0,1.06-8.31,25.13-8.31.36,0,6.67,3.57,6.67,3.57l-31.8,17.63L359.74,138.7Z"/><path class="cls-24" d="M391.74,144.6l-.11,0a.33.33,0,0,1-.15-.41c.1-.29,2.87-7,22.35-7.72a.3.3,0,0,1,.3.3.31.31,0,0,1-.28.33c-19.11.69-21.82,7.26-21.84,7.33a.3.3,0,0,1-.27.19Z"/><path class="cls-24" d="M394.68,144.06a.3.3,0,0,1-.28-.32.32.32,0,0,1,.21-.3l.18-.13c5-3.73,14.5-5.07,21.54-5.54a.29.29,0,0,1,.31.29.31.31,0,0,1-.27.33c-7,.46-16.33,1.78-21.25,5.43-.23.17-.32.24-.44.24Z"/><path class="cls-24" d="M388.37,143.28a.28.28,0,0,1-.25-.16c-.09-.15-2-3.09-21.25-6.37a.3.3,0,0,1-.23-.35.28.28,0,0,1,.32-.26c19.94,3.4,21.61,6.56,21.66,6.69a.32.32,0,0,1-.12.42.31.31,0,0,1-.13,0Z"/><path class="cls-24" d="M382.92,142.81l-.1,0A80.38,80.38,0,0,0,370,139.08a.32.32,0,0,1-.24-.36.29.29,0,0,1,.33-.25,79.79,79.79,0,0,1,12.9,3.74.32.32,0,0,1,.17.4.28.28,0,0,1-.27.2Z"/><path class="cls-25" d="M357.74,137.14,359,170.23l26.11,9.32a9.85,9.85,0,0,0,4.52,1.4,12.49,12.49,0,0,0,5-1.48l27.11-9.71,2-33-28.17,8.93s-3.37,1.79-5.93,1.45c-2.3-.31-3.92-2.07-4.21-2.07l-27.69-7.93Z"/><path class="cls-22" d="M389.64,147.14c-2.3-.31-3.92-2.07-4.21-2.07l-.29,34.48a9.85,9.85,0,0,0,4.52,1.4,12.49,12.49,0,0,0,5-1.48l.93-33.78s-3.37,1.79-5.93,1.45Z"/><path class="cls-6" d="M358.33,152.08a49.68,49.68,0,0,0,5.91-1.78c1.61-.74,6.87-4,8-2.74a3.47,3.47,0,0,1,.18.93s1.43-.3,1.71.55a1.56,1.56,0,0,1-.87,1.85,1.71,1.71,0,0,1,.7.62c.24.45-.07,1.28-1.78,2.35a1.56,1.56,0,0,1,.68.92c.15.63-2.82,2.57-4.62,3.6s-8.29,4-9.55,3.59a5,5,0,0,1-3.76-5.82,15.53,15.53,0,0,1,3.29-7.55l.12,3.48Z"/><path class="cls-7" d="M365.66,152.5a.18.18,0,0,1-.16-.1.18.18,0,0,1,.07-.25l6.14-3.44a.19.19,0,0,1,.25.08.18.18,0,0,1-.08.25l-6.13,3.44-.09,0Z"/><path class="cls-7" d="M366.68,154.54a.19.19,0,0,1-.16-.09.18.18,0,0,1,.07-.25l5.76-3.26a.19.19,0,0,1,.25.07.18.18,0,0,1-.06.26l-5.76,3.25-.1,0Z"/><path class="cls-7" d="M367.46,156.75a.19.19,0,0,1-.16-.09.19.19,0,0,1,.06-.26c1.41-.92,3.71-2.43,3.87-2.57a.18.18,0,0,1,.25,0,.2.2,0,0,1,0,.27c-.08.1-1.4,1-3.95,2.65a.19.19,0,0,1-.1,0Z"/><path class="cls-6" d="M422.88,152.08A49.68,49.68,0,0,1,417,150.3c-1.61-.74-6.87-4-8-2.74a3.47,3.47,0,0,0-.18.93s-1.43-.3-1.71.55a1.56,1.56,0,0,0,.87,1.85,1.65,1.65,0,0,0-.69.62c-.25.45.05,1.28,1.78,2.35a1.56,1.56,0,0,0-.69.92c-.15.63,2.82,2.57,4.62,3.6s8.29,4,9.55,3.59a5,5,0,0,0,3.76-5.82A15.53,15.53,0,0,0,423,148.6l-.12,3.48Z"/><path class="cls-7" d="M415.55,152.5a.17.17,0,0,0,.16-.1.18.18,0,0,0-.07-.25l-6.13-3.44a.2.2,0,0,0-.26.08.19.19,0,0,0,.07.25l6.14,3.44.09,0Z"/><path class="cls-7" d="M414.53,154.54a.19.19,0,0,0,.16-.09.18.18,0,0,0-.07-.25l-5.76-3.26a.21.21,0,0,0-.26.07.19.19,0,0,0,.07.26l5.76,3.25.1,0Z"/><path class="cls-7" d="M413.75,156.75a.19.19,0,0,0,.16-.09.19.19,0,0,0-.06-.26c-1.41-.92-3.71-2.43-3.86-2.57a.19.19,0,0,0-.26,0,.2.2,0,0,0,0,.27c.07.1,1.4,1,3.95,2.65a.19.19,0,0,0,.1,0Z"/><path class="cls-22" d="M363.09,135.61a.37.37,0,0,1-.36-.32c0-.16-2.51-16.37-6-22.27a.37.37,0,0,1,.14-.51.37.37,0,0,1,.51.13c3.52,6,5.95,21.87,6,22.54a.38.38,0,0,1-.31.43Z"/><path class="cls-22" d="M417.81,135.32h0a.37.37,0,0,1-.33-.41c0-.15,1.81-14.74,5.72-22.6a.36.36,0,0,1,.49-.17.37.37,0,0,1,.17.5c-3.85,7.75-5.62,22.21-5.64,22.36a.37.37,0,0,1-.37.33Z"/><path class="cls-22" d="M388.77,118.14c-14.16,0-20.32-13.33-20.38-13.47a.37.37,0,0,1,.68-.31c.06.15,6.65,14.37,21.85,12.93a32.23,32.23,0,0,0,22.71-12.19.37.37,0,1,1,.61.41A33,33,0,0,1,391,118c-.76.07-1.5.11-2.22.11Z"/><path class="cls-6" d="M409.92,236.67c-4.94,10.54-15.71,29.67-15.71,29.67-3,2.54-7.4-2.07-7.4-2.07,1.74-6.64,10.53-25.41,12.05-31.15,5.16.79,7.81,1.63,11.06,3.55Z"/><path class="cls-21" d="M383.76,240.85a24.74,24.74,0,0,0,4.09-7.43c1.29-4.09.68-5.95,6.37-13.38s8.47-21.92,10-27.87,6.54-26,18.74-26.74,11.84,20.79,10,29-5.58,29.73-7.81,35.68-9.82,21.55-9.82,21.55a10.86,10.86,0,0,1-10.61,0c-5.83-3.1-11,2.1-21-10.78Z"/><path class="cls-26" d="M399.54,243.08a.35.35,0,0,1-.25-.1.37.37,0,0,1,0-.52c.08-.09,8-8.66,17.83-11.26a.37.37,0,0,1,.45.27.36.36,0,0,1-.26.45c-9.63,2.54-17.4,11-17.48,11a.36.36,0,0,1-.27.12Z"/><path class="cls-26" d="M400,206.21a.32.32,0,0,1-.14,0,.37.37,0,0,1-.21-.48c0-.1,3.86-9.67,4.21-13.13s2.91-11.4,3-11.74a.38.38,0,0,1,.47-.24.39.39,0,0,1,.24.47c0,.08-2.63,8.11-3,11.59s-4.1,12.93-4.26,13.33a.38.38,0,0,1-.34.23Z"/><path class="cls-22" d="M324.65,251.63c0,.41-.56.77-1,.77H270.33a.68.68,0,0,1-.68-.77v-8.55a.64.64,0,0,1,.68-.72h53.28c.48,0,1,.31,1,.72v8.55Z"/><polygon class="cls-27" points="312.01 252.4 309.04 252.4 309.04 242.36 312.01 242.36 312.01 252.4 312.01 252.4"/><path class="cls-25" d="M324.65,230.82c0,.41-.56.77-1,.77H270.33a.68.68,0,0,1-.68-.77v-8.55a.64.64,0,0,1,.68-.72h53.28c.48,0,1,.31,1,.72v8.55Z"/><polygon class="cls-23" points="310.53 231.59 309.04 231.59 309.04 221.55 310.53 221.55 310.53 231.59 310.53 231.59"/><polygon class="cls-23" points="313.87 231.59 312.39 231.59 312.39 221.55 313.87 221.55 313.87 231.59 313.87 231.59"/><path class="cls-28" d="M321.68,221c0,.29-.56.55-1,.55H267.36c-.47,0-.68-.26-.68-.55v-6.1c0-.29.21-.41.68-.41h53.28c.48,0,1,.12,1,.41V221Z"/><polygon class="cls-23" points="308.3 221.55 304.58 221.55 304.58 214.49 308.3 214.49 308.3 221.55 308.3 221.55"/><path class="cls-29" d="M321.68,241.37a1.19,1.19,0,0,1-1,1H267.36c-.47,0-.68-.56-.68-1v-9c0-.44.21-.76.68-.76h53.28c.48,0,1,.32,1,.76v9Z"/><polygon class="cls-23" points="321.68 240.88 266.68 240.88 266.68 233.07 321.68 233.07 321.68 240.88 321.68 240.88"/><path class="cls-30" d="M320.39,235.3H267.62a.18.18,0,0,1-.19-.18.18.18,0,0,1,.19-.19h52.77a.18.18,0,0,1,.18.19.18.18,0,0,1-.18.18Z"/><path class="cls-30" d="M313,237.16H270.22a.19.19,0,1,1,0-.37H313a.18.18,0,0,1,.18.18.18.18,0,0,1-.18.19Z"/><path class="cls-30" d="M318.16,239.39H268a.19.19,0,1,1,0-.37h50.17a.18.18,0,0,1,.18.18.18.18,0,0,1-.18.19Z"/><path class="cls-31" d="M170.62,124.91s-45.26,30.87-6.09-3.33c0,0-69.69,5-7.83-7.92,0,0-73.75-23.53,3.51-8.46,0,0-50.09-57.29,4.32-5,0,0-6.54-64.83,7.58,5,0,0,15.61-67.8,6.69,6,0,0,1.5,7.3-8.18,13.66Z"/><path class="cls-31" d="M202.48,143.5s9.94-53.89,6.66-2c0,0,45.5-53,11.13,0,0,0,68.64-35.82,3.54,8.45,0,0,75.95,4.75.54,6.61,0,0,50.65,41-8.92,1.84,0,0,37.17,58.82-9,.49,0,0-6.24-4.07-3.94-15.42Z"/><path class="cls-32" d="M195.56,87.05s-28.28-28.48,1.58-4.84c0,0-12.9-49.51,4.66-6.69,0,0,7.1-56.26,6.56,1.4,0,0,34.57-43.73,4.21,2.43,0,0,45.82-13.36-2.62,6.14,0,0,50.91,2.18-3.46,5.62,0,0-5.06,2.06-10.93-4.06Z"/><path class="cls-33" d="M185.86,208.71a.93.93,0,0,1-.93-.93c0-43.94-4.1-67.14-7.54-78.87-3.75-12.77-7.55-15.1-7.59-15.12a.92.92,0,0,1-.38-1.25.94.94,0,0,1,1.26-.38c.66.34,16.11,9.46,16.11,95.62a.93.93,0,0,1-.93.93Z"/><path class="cls-33" d="M194,208.92a1,1,0,0,1-.93-1c-.24-39.62,6.3-52.77,11.82-56.78,3.1-2.25,5.64-1.47,5.75-1.44a.92.92,0,0,1,.59,1.16.93.93,0,0,1-1.17.59c-.09,0-1.86-.52-4.17,1.21-4.2,3.14-11.21,14.58-11,55.25,0,.51-.41.67-.92,1Z"/><path class="cls-33" d="M190,208.71a.94.94,0,0,1-.93-.9c-1.54-41.74,2.29-72.82,5.77-91.55,3.79-20.33,8-30.94,8.05-31a.93.93,0,1,1,1.72.69c0,.1-4.2,10.59-7.95,30.77-3.46,18.62-7.26,49.53-5.73,91.06a.93.93,0,0,1-.9,1Z"/><polygon class="cls-34" points="216.14 263.92 167.46 263.92 167.46 203.71 216.14 203.71 216.14 263.92 216.14 263.92"/><path class="cls-34" d="M104.59,138.5a5.81,5.81,0,0,0-2.73-1.09c-.14,0,0,0,0,0a4.53,4.53,0,0,0-.16,1.71V239.85c0,3.65,2.6,9,5.53,11.09l45.67,29.28a5.6,5.6,0,0,0,2.35.51c.84,0,2.93-.22,2.93-2.23V177.79c0-3.18-3-7.46-6.72-10L104.59,138.5ZM151,283.63l-.07-.11L105,254.08l.11-.06c-4-2.76-7.16-9.26-7.16-14.17V139.14c0-5.06,3.07-5.45,4.06-5.45a9.08,9.08,0,0,1,4.6,1.64l46.7,29.36.19,0c4,2.65,8.37,7.87,8.37,13.07V278.5c0,3.5-2.94,6.23-6.78,6.23h0a9.18,9.18,0,0,1-4.05-1.1Z"/><path class="cls-1" d="M161.79,206.09s4.71,17.34-4.7,17.37c-14.37,0-70,3.25-78.71,0s-66.84-22-67.59-32.36-18.13-81.85-7.18-82.47,74-7.82,77.11.47,12.66,77.05,16.09,78.16,64.28,14.31,65,18.83Z"/><path class="cls-25" d="M101.84,79.37s11.4,12.14,8.67,41.13c0,0-16,6.93-21,1.48,0,0,2.4-36.17,12.31-42.61Z"/><polygon class="cls-6" points="103.28 223.05 87.55 242.22 77.79 237.39 92.84 217.88 103.28 223.05 103.28 223.05"/><path class="cls-35" d="M75.6,237.1,74,239.58s1.63,2.29,4.11,5.12A24.54,24.54,0,0,1,81.15,249c1.9,4.44,9.61,13.22,13.18,10.56L75.6,237.1Z"/><path class="cls-20" d="M80.93,231.92s-6,4.3-5.71,5.8,5.62,7.15,7.49,11.07,9.75,12.71,12.21,10.4-.07-6.86-1.87-9.83-1.64-8.51-2.66-10c0,0-.27-1.17-4.49-1.4-2.14-.12-2.79-5.64-5-6.06Z"/><path class="cls-35" d="M87.35,241.82a.54.54,0,0,0,.46.1,4.12,4.12,0,0,1,3.26.42.54.54,0,0,0,.62-.88,5.19,5.19,0,0,0-4.15-.59.54.54,0,0,0-.38.66.53.53,0,0,0,.19.29Z"/><path class="cls-35" d="M87.7,244.47a.54.54,0,0,0,.46.1,4.08,4.08,0,0,1,3.25.42.53.53,0,0,0,.75-.14.52.52,0,0,0-.12-.74,5.14,5.14,0,0,0-4.15-.59.53.53,0,0,0-.19.95Z"/><path class="cls-35" d="M88,246.74a.53.53,0,0,0,.46.1,4.08,4.08,0,0,1,3.25.42.53.53,0,0,0,.75-.14.53.53,0,0,0-.12-.74,5.19,5.19,0,0,0-4.15-.59.55.55,0,0,0-.39.66.5.5,0,0,0,.2.29Z"/><path class="cls-4" d="M104.42,160.48S133.92,147,147,151.33c21.23,7.11,0,32.07,0,32.07s7.72,8,9.41,25.73c1.46,15.19,7.12,52.47,7.12,52.47s-7.14,7.61-12.25,5.66-14.26,1.05-15.38-3.81l-11.27-50-18.33,17.27s-10-.27-12.82-5.29-8.68-4-9.68-6.53L89,210.61s-43.11-.18-54.51-16.53c0,0-4.21-18.91-4.21-25.35A25.22,25.22,0,0,1,32.47,158H97.26l7.16,2.48Z"/><path class="cls-6" d="M73.12,36.86s-.64,23.3,0,25.76,4.79,5.35,13,9.5A30.17,30.17,0,0,1,62.52,82.33c-4.43-.1-20.1-7-22.4-10.27,0,0,12.26-4.8,12.61-9,.42-5,0-26.21,0-26.21Z"/><path class="cls-7" d="M56.79,36.86H73.12S72.68,53,72.89,60c-5.31,0-15.62-3-16.1-23.1Z"/><path class="cls-6" d="M53.14,26a32.38,32.38,0,0,0,8.73,26.3c3.05,3,6.47,3.63,9.55,4,9.82,1.26,13.68-9.71,16.42-24.25,4-21.23-1.61-23.23-13.75-24.78-13.52-1.73-19.33,4.1-21,18.71Z"/><path class="cls-5" d="M83.68,33.93a1.06,1.06,0,1,0,1.19-1.06,1.14,1.14,0,0,0-1.19,1.06Z"/><path class="cls-5" d="M67.5,31.86a1.06,1.06,0,1,0,2.08.27,1.06,1.06,0,1,0-2.08-.27Z"/><path class="cls-4" d="M88.47,30.68a.47.47,0,0,0,.36-.12.71.71,0,0,0,.15-.87c-.65-1.18-2.31-3.7-5.42-1.78a.74.74,0,0,0-.33.81.47.47,0,0,0,.65.35,3.26,3.26,0,0,1,4.24,1.35.52.52,0,0,0,.35.26Z"/><path class="cls-4" d="M65.15,27.69a.65.65,0,0,1-.4-.21.63.63,0,0,1,.07-.88c1.11-1,3.79-2.92,7-.2a.65.65,0,0,1,.17.87.63.63,0,0,1-.87.16,4.52,4.52,0,0,0-5.43.11.6.6,0,0,1-.49.15Z"/><path class="cls-19" d="M75.27,49.89a4.63,4.63,0,0,0,4.37-2.17A2.09,2.09,0,0,0,80,46.16c-.15-.52-.46-.51-.85-.33a9.48,9.48,0,0,1-6.6-.94c-.33-.17-.68-.17-.91.36a1.92,1.92,0,0,0,.07,1.55,4.59,4.59,0,0,0,3.59,3.09Z"/><path class="cls-7" d="M77.25,43.37a2,2,0,0,0,2-.67c1.27-1.88-.24-5.37-.37-5.79s-.25-.48-.55-.39-.23.47-.14.76c.42,1.38.47,3.85-.18,4.7a.8.8,0,0,1-.73.28.56.56,0,0,0-.57.53c0,.53.51.58.53.58Z"/><path class="cls-4" d="M88.12,30.42s5.1-8.37,5.18-10.06c0,0,2.54-2.87,2.11-4.25S92.76,3.83,85.06,6.58c0,0-2.11-4.69-5.16-5.08s-10.21-2.94-15-.36C62.2,2.62,44.05,7.14,51,16.27c0,0,1.91,21,1.8,23.77,0,0,7.59-11.21,7.53-9.1,0,0,4.18-10,4.7-10.88s6.71.42,9.94-1.41,7.71-6.12,10.11-5.2c0,0,.09,5.77,2.4,7.43s.18,9.46.65,9.54Z"/><path class="cls-6" d="M60.47,28.75s-.52-2.56-3.85-2.7-4.19,7.58-1.56,9.28,5.07-1.62,5.07-1.62l.34-5Z"/><path class="cls-5" d="M64.27,31.66A4.77,4.77,0,1,1,68.4,37a4.77,4.77,0,0,1-4.13-5.34ZM81.4,33.85a4.78,4.78,0,1,1,4.13,5.35,4.79,4.79,0,0,1-4.13-5.35Zm-22-6.9,4.06,4.55,0,0v0a5.58,5.58,0,0,0,11,1.72,9.33,9.33,0,0,1,6.09.74,5.58,5.58,0,0,0,11.09,1.21,10.83,10.83,0,0,0,0-1.14,5.58,5.58,0,0,0-11-.92,10.27,10.27,0,0,0-6.12-.72,5.59,5.59,0,0,0-10.87-2l-3.65-3.94a.4.4,0,0,0-.68.44Z"/><path class="cls-25" d="M81.68,68.84s-.82,8.92-13.06,9.29-21-4.58-24.63-8.67c0,0-15.85,8.92-18.58,10.9,0,0,2.11,60.2.87,68.63s-3,38.89,4.7,45.09c0,0,.5,3.22,3.47,0s-3.9-30.17,23.31-30.73c0,0,11.63,1.24,16.58,3.47s14.79,3.1,20.25.62,10.31-5,10.31-7.95-6.73-4.25-9.21-5.49,1.12-12.12-1.36-16.83,7.51-55.08,7.51-57.8c0,0-12.7-7.56-20.16-10.53Z"/><path class="cls-23" d="M148.82,102.05l-3.28-2.61s-11.52,10-14.94,18c0,0-3.67-3.68-33.31-10.26-.46-.11-5,3.67-5,3.67l34.63,20.64,21.88-29.4Z"/><path class="cls-1" d="M150.23,99l-11.09,39.27-14.28,18.63a5.2,5.2,0,0,1-5.17,2.55,15.08,15.08,0,0,1-4.83-1.82l-30.8-9.69,6.81-40.18,32.4,9.07s3.86,3.19,7.29,3.57c3.06.33,3.36-5,3.73-5L150.23,99Z"/><path class="cls-36" d="M130.56,120.37c3.06.33,3.36-5,3.73-5l-9.43,41.45s-.19,2.87-3.91,3.51c-3,.52-6.09-2.78-6.09-2.78l8.41-40.8s3.86,3.19,7.29,3.57Z"/><path class="cls-6" d="M86.83,131.59a64.47,64.47,0,0,0,8.13.19c2.39-.27,10.56-2.24,11.46-.14a4.61,4.61,0,0,1-.15,1.27s2,.22,2,1.44a2.12,2.12,0,0,1-1.9,2,2.18,2.18,0,0,1,.63,1.08c.12.68-.62,1.63-3.29,2.28a2.14,2.14,0,0,1,.49,1.48c-.07.88-4.72,2.11-7.48,2.68s-12.38,1.63-13.83.58-4.79-3.8-2.39-9.1a22.17,22.17,0,0,1,7.15-8.4l-.78,4.62Z"/><path class="cls-7" d="M95.86,135.22a.24.24,0,0,1-.16-.19.25.25,0,0,1,.2-.3l9.36-1.83a.24.24,0,0,1,.29.2.25.25,0,0,1-.2.3L96,135.23a.29.29,0,0,1-.13,0Z"/><path class="cls-7" d="M96.32,138.29a.25.25,0,0,1,0-.49l8.8-1.75a.25.25,0,1,1,.1.49l-8.81,1.75a.24.24,0,0,1-.12,0Z"/><path class="cls-7" d="M96.38,141.45a.23.23,0,0,1-.16-.17.25.25,0,0,1,.17-.31c2.22-.59,5.83-1.56,6.08-1.68a.24.24,0,0,1,.34.07.27.27,0,0,1-.07.36c-.14.09-2.23.68-6.22,1.74a.23.23,0,0,1-.14,0Z"/><path class="cls-6" d="M80.46,135.37s-32.81-3.51-39.32-2.47l-4.27-26.84-18,4.83s4.09,36.41,12.64,38.64,51.37-5.06,51.37-5.06.7-6.17-2.39-9.1Z"/><path class="cls-25" d="M25.41,80.36s-8.92,7.18-9.29,29l-.74,22.82s6.56,1.73,10,.73S43.25,131.44,45.6,128c0,0-9-45.17-20.19-47.65Z"/><path class="cls-6" d="M143.55,122.46s-3.93-.26-4.37,1.29,1.95,1.54,1.95,1.54-3.5-.22-3.67,1.24,2.74,1.82,2.74,1.82-2,.13-2.13,1.15,2.43,1.68,2.43,1.68-1.14.39-1.23,1.1,2.39.93,2.39.93,1.37-.13.88-1.86c0,0,2.26-.84,1.28-2.52,0,0,2.31-1.58.8-3.2,0,0,2.55-1.24,1-3.19l-1.52-2-.57,2Z"/><path class="cls-25" d="M125.75,211.29a.37.37,0,0,0,.29-.14c3.78-4.92,19.66-25.93,19.82-26.14a.36.36,0,0,0-.07-.52.37.37,0,0,0-.52.07c-.16.21-16.05,21.22-19.82,26.14a.38.38,0,0,0,.07.52.39.39,0,0,0,.23.07Z"/><path class="cls-25" d="M89.53,209a.35.35,0,0,0,.3-.16c.32-.46,32.45-46.17,43.49-50.54a.37.37,0,1,0-.28-.69C121.8,162,90.55,206.48,89.22,208.37a.38.38,0,0,0,.09.52.43.43,0,0,0,.22.06Z"/><path class="cls-25" d="M114.35,174.13a.38.38,0,0,0,.37-.32.37.37,0,0,0-.32-.42c-.26,0-26.14-3.6-36.56-4.83a.37.37,0,0,0-.42.33.38.38,0,0,0,.33.41c10.42,1.22,36.29,4.79,36.55,4.83Z"/><path class="cls-37" d="M99.12,106.62c.2,0,.37-.25.38-.45s.67-16.31,4.35-20.44a.4.4,0,0,0,0-.55.37.37,0,0,0-.52,0c-3.86,4.33-4.52,20.09-4.55,20.76,0,.21.15.29.36.29a2,2,0,0,0,0,.37Z"/><path class="cls-37" d="M42.18,130.37h.11c.12,0,3-.9,4-2.11l.09-.11V128c-.05-1-1.32-25.3-3.19-29.19-1.74-3.62-8.41-13-13.41-14.64a.37.37,0,1,0-.24.7c4.45,1.48,11,10.2,13,14.27,1.73,3.6,3,26.65,3.11,28.75a10.1,10.1,0,0,1-3.51,1.77.37.37,0,0,0,.1.72Z"/><path class="cls-37" d="M70.83,82.7c13.49,0,15.26-9.86,15.27-10a.37.37,0,0,0-.3-.43.38.38,0,0,0-.43.31c-.07.39-1.73,9.55-15,9.33-14.16-.23-25.16-4.53-28.71-8.65a.37.37,0,0,0-.52,0,.36.36,0,0,0,0,.52C44.76,78,56,82.46,70.37,82.69Z"/><path class="cls-34" d="M18.37,146.67a5.91,5.91,0,0,0-2.73-1.09c-.13,0,0,0,0,0a5,5,0,0,0-.16,1.71V248c0,3.65,2.6,9,5.54,11.09L66.66,288.4a5.64,5.64,0,0,0,2.35.51c.85,0,2.94-.22,2.94-2.24V186c0-3.18-3-7.45-6.72-10L18.37,146.67ZM64.8,291.8l-.08-.1L18.79,262.26l.11-.06c-4-2.76-7.15-9.27-7.15-14.18V147.31c0-5.05,3.07-5.45,4.06-5.45a9.17,9.17,0,0,1,4.6,1.65L67.1,172.87l.19,0c4,2.64,8.38,7.86,8.38,13.06V286.67c0,3.51-2.94,6.23-6.78,6.23h0a9.14,9.14,0,0,1-4-1.1Z"/><path class="cls-38" d="M648.74,247.69s-34,9.78-66.36,3.49-52.77-128.8-33.82-136.66,66.62-15.18,75.07,0,52.44,124.07,25.11,133.17Z"/><path class="cls-39" d="M636.11,243.65s-11.75-9.59-29.08-4,5-12.88,10.55-12.93-33.68-16.89-4.4-22.09A45.46,45.46,0,0,0,584.73,198c-16.35,1.73,15.07-13.21,28.45-8.92S602,175,599.43,174.82s2.58-5.37,10.29-1.9-8.64-14.75-15.33-13.07,1.74-13.78,16.36-.48c0,0-14.13-28.07-27.5-28.32s8-8.91,22.36,2.73c0,0-7.75-11.21-11-13s9.58-4.1,18.54,8.31,22.93,114.6,22.93,114.6Z"/><path class="cls-29" d="M586.84,245.89a.39.39,0,0,1-.32-.17c-11.17-17.53-25.51-52.44-30.31-119.25-.09-1.26-.16-2.21-.22-2.81-.76-8.53,11.66-11.31,12.19-11.43a.38.38,0,0,1,.44.29.37.37,0,0,1-.28.44c-.13,0-12.31,2.75-11.61,10.63.06.61.13,1.54.22,2.82,4.79,66.66,19.07,101.45,30.2,118.91a.37.37,0,0,1-.11.51.36.36,0,0,1-.2.06Z"/><path class="cls-29" d="M619.14,227.11a.39.39,0,0,1-.24-.1c-.15-.13-14.68-13-30.18-12a.37.37,0,0,1-.05-.74c15.82-1,30.57,12.07,30.72,12.21a.37.37,0,0,1,0,.52.41.41,0,0,1-.28.13Z"/><path class="cls-29" d="M615.7,207.11a.37.37,0,0,1-.2-.05l-.44-.32c-9.13-6.94-21.93-10.19-36-9.17a.37.37,0,1,1-.06-.74c14.27-1,27.24,2.27,36.52,9.31l.39.29a.38.38,0,0,1,.12.51.39.39,0,0,1-.32.17Z"/><path class="cls-29" d="M607,166.78a.39.39,0,0,1-.21-.06,4.32,4.32,0,0,1-.52-.48c-6.1-6.16-14.66-8.18-25.46-6a.38.38,0,0,1-.44-.29.38.38,0,0,1,.3-.44c11-2.21,19.84-.11,26.13,6.24a5.05,5.05,0,0,0,.4.38.37.37,0,0,1,.1.52.38.38,0,0,1-.3.16Z"/><path class="cls-29" d="M601.35,144.79a.37.37,0,0,1-.33-.19c-.08-.15-8.33-15-28.17-14.35a.38.38,0,0,1-.38-.36.37.37,0,0,1,.36-.39c20.31-.69,28.76,14.59,28.84,14.74a.38.38,0,0,1-.15.51.33.33,0,0,1-.17,0Z"/><path class="cls-7" d="M637.45,135.23c.07,1.38,16.58,30.39,20.21,35.3,0,0,13.1-2.19,42.37-2.11l.89,7.3s-42.89,11.2-48.7,8.43-24.17-29.41-27.77-37.79-2.53-15.51,3.29-17.09,9.71,6,9.71,6Z"/><path class="cls-6" d="M799.42,234.34s5-1.29,4.31-8.17c0,0-12.73-3-37-11.95-2.4,5.46-2.56,7.3-4.88,12.63,14.57,4.39,18.08,4.13,37.59,7.49Z"/><path class="cls-22" d="M798.25,234.83a12,12,0,0,0,8.17,4c.85,0,4.15-7.69,9-9.89s8.61-12,5.82-13.83-6.54,1.68-9,4.11-7.88,4.6-9.35,5.63c0,0-.74.95-.41,4.68.3,3.45-4.19,4.15-4.25,5.29Z"/><path class="cls-6" d="M814.92,247.35s4.82-2,3.14-8.69c0,0-13-1.22-38.33-6.68-1.61,5.74-1.52,7.59-3.07,13.19,15,2.31,18.47,1.57,38.26,2.18Z"/><path class="cls-22" d="M813.84,248a12,12,0,0,0,8.64,2.84c.85-.09,3-8.2,7.52-11s6.85-13.11,3.84-14.51-6.25,2.58-8.31,5.31-7.16,5.66-8.46,6.88c0,0-.61,1.05.23,4.69.79,3.38-3.56,4.7-3.46,5.83Z"/><polyline class="cls-6" points="612.18 127.33 627.14 129.87 631.42 104.73 616.47 102.18 612.18 127.33"/><path class="cls-7" d="M631.42,104.73l-2.35,13.82c-2.37-1.94-5.69-5.91-9.93-15.91l12.28,2.09"/><path class="cls-6" d="M636.1,71s11.37,2.65,9.12,17.13C644.58,92.24,642.3,96,643,98.3c1.48,4.92,4.56,7.88-1.5,7.76a17.86,17.86,0,0,0-1.69,3.61c-1.16,3.42-2.68,8-6.26,7.31-4.16-.77-8.61-6-14.28-12.17a21.08,21.08,0,0,1-4.42-8c-2.49-8.16-4.57-26.36,12.52-27.24,2.5-.13,5.3.77,8.74,1.41"/><path class="cls-40" d="M635.14,108.26a.51.51,0,0,1,0-.71.52.52,0,0,1,.72,0,7.86,7.86,0,0,0,4.07,2,1.43,1.43,0,0,0-.08.22l-.26.75-.13,0a8.9,8.9,0,0,1-4.27-2.14Z"/><path class="cls-6" d="M633.27,107.24a6.11,6.11,0,0,1,0-12.21h0a6.11,6.11,0,0,1,0,12.21h0m0-11.67h0a5.57,5.57,0,0,0,0,11.13h0a5.57,5.57,0,0,0,0-11.13"/><path class="cls-8" d="M633.27,106.7a5.57,5.57,0,0,1,0-11.13h0a5.57,5.57,0,0,1,0,11.13h0m0-10.6h0a5,5,0,1,0,0,10.06h0a5,5,0,0,0,0-10.06"/><path class="cls-9" d="M633.27,106.16a5,5,0,1,1,0-10.06h0a5,5,0,0,1,0,10.06h0m0-9.52h0a4.5,4.5,0,0,0,0,9h0a4.5,4.5,0,0,0,0-9"/><path class="cls-10" d="M633.27,105.63a4.5,4.5,0,0,1,0-9h0a4.5,4.5,0,0,1,0,9h0m0-8.46h0a4,4,0,0,0,0,7.92h0a4,4,0,0,0,0-7.92"/><path class="cls-11" d="M633.27,105.09a4,4,0,0,1,0-7.92h0a4,4,0,0,1,0,7.92h0m0-7.38h0a3.42,3.42,0,1,0,0,6.84h0a3.42,3.42,0,1,0,0-6.84"/><path class="cls-12" d="M633.27,104.55a3.42,3.42,0,1,1,0-6.84h0a3.42,3.42,0,1,1,0,6.84h0m0-6.3h0a2.89,2.89,0,0,0,0,5.77h0a2.89,2.89,0,0,0,0-5.77"/><path class="cls-13" d="M633.27,104a2.89,2.89,0,0,1,0-5.77h0a2.89,2.89,0,0,1,0,5.77h0m0-5.24h0a2.35,2.35,0,0,0,0,4.7h0a2.35,2.35,0,0,0,0-4.7"/><path class="cls-14" d="M633.27,103.48a2.35,2.35,0,0,1,0-4.7h0a2.35,2.35,0,0,1,0,4.7h0m0-4.16h0a1.82,1.82,0,0,0,0,3.63h0a1.82,1.82,0,0,0,0-3.63"/><path class="cls-15" d="M633.27,103a1.82,1.82,0,0,1,0-3.63h0a1.82,1.82,0,0,1,0,3.63h0m0-3.1h0a1.28,1.28,0,0,0,0,2.56h0a1.28,1.28,0,0,0,0-2.56"/><path class="cls-16" d="M633.27,102.41a1.28,1.28,0,0,1,0-2.56h0a1.28,1.28,0,0,1,0,2.56h0m0-2a.74.74,0,0,0-.74.74.75.75,0,0,0,.75.74h0a.74.74,0,1,0,0-1.48"/><path class="cls-17" d="M633.27,101.87a.75.75,0,0,1-.75-.74.74.74,0,0,1,.74-.74.74.74,0,1,1,0,1.48h0m0-.94a.2.2,0,0,0-.21.2.21.21,0,0,0,.21.21h0a.21.21,0,0,0,.2-.21.2.2,0,0,0-.2-.2"/><path class="cls-18" d="M633.27,101.34a.21.21,0,0,1-.21-.21.2.2,0,0,1,.21-.2.2.2,0,0,1,.2.2.21.21,0,0,1-.2.21h0"/><path class="cls-5" d="M636.13,96.43a1,1,0,1,0,1.18-.93,1.08,1.08,0,0,0-1.18.93Z"/><path class="cls-41" d="M633.72,92.32a.61.61,0,0,1-.36-.22.6.6,0,0,1,.11-.82c1.09-.83,3.71-2.53,6.53.19a.61.61,0,0,1,.1.82.58.58,0,0,1-.82.11,4.24,4.24,0,0,0-5.09-.19.58.58,0,0,1-.47.11Z"/><path class="cls-42" d="M637.52,78.3s-8.41,3.1-12.17,15.15c0,0-.83,3.32-1.72.07a116.5,116.5,0,0,0-8.88,23.8s-2.9,1.35-8.31-2c0,0,3.38-1.12,4.93-7.77,1.15-5-11.86-17.9-2.13-32.67,2.28-3.44,8.53-6,14.82-6.87,0,0,3.91-3.41,10.84-1.9,7.82,1.7,15.72,5.72,13.44,17.83a22,22,0,0,1-4.62,9.66s3.21-9.89-6.2-15.25Z"/><path class="cls-6" d="M623.63,93.52a3.54,3.54,0,0,0-3.47-2.73c-3-.29-3.42,7.49-1,9.23s3.94-1.88,3.94-1.88l.58-4.62Z"/><path class="cls-43" d="M622.28,193.61s4.75,14.58,4.91,21.23-4.3,42.35,45.49,35.83,118.55,0,118.55,0,3.34-10.43,0-19.62l-16.35-4.11s2.6-7.6-.74-12.1c0,0-42.84-19-54.87-20.48s-52.53,15.6-57,13.37l-11.15-20.81a177.86,177.86,0,0,0-28.85,6.69Z"/><path class="cls-44" d="M661.43,250.11a3.17,3.17,0,0,1-.49,0,.36.36,0,0,1-.33-.4.36.36,0,0,1,.4-.33c.17,0,16.66,1.25,62-32.13l.1,0c.17-.06,4.83-1.45,49.21,9.19a.38.38,0,0,1,.28.45.38.38,0,0,1-.45.28c-41.79-10-48.14-9.35-48.76-9.23C699.6,235.39,683.92,243.22,675,246.7c-8,3.1-12.18,3.41-13.53,3.41Z"/><polygon class="cls-45" points="728.27 162.99 712.99 138.66 697.6 166.41 728.27 162.99 728.27 162.99"/><polygon class="cls-46" points="710.76 142.67 705.29 152.53 724.13 159.85 710.76 142.67 710.76 142.67"/><polygon class="cls-21" points="698.83 150.81 703.22 148.5 721.03 157.37 710.76 142.67 712.96 140.78 726.49 162.22 698.83 150.81 698.83 150.81"/><polygon class="cls-29" points="704.26 199.88 673.55 189.53 697.84 149.75 728.27 162.99 704.26 199.88 704.26 199.88"/><path class="cls-44" d="M661,208.48c-.32,0-6.93-.83-8.26-1a.36.36,0,0,1-.32-.41.38.38,0,0,1,.42-.33c3.11.4,7.87,1,8.16,1a.39.39,0,0,1,.37.38.38.38,0,0,1-.37.37Z"/><path class="cls-6" d="M616.51,136.6c5.48.83,6.06,3,11.08,11.92,0,0,3.83,5.7,9.66,2.23,1.13-.67,2.92-3.86,2.66-6.31-5.95-4.47-12-10.54-12.17-18.11a15.86,15.86,0,0,0-14.46-5.43,94.72,94.72,0,0,0-3.56,9.21s1.32,5.65,6.79,6.49Z"/><path class="cls-4" d="M652.49,155.83c-.86-4.08-6.92-7.67-12.83-12.11-1.35.54-2.93,1.16-4.18,1.58-2.73.93-6.55-6.27-6.55-6.27-5-9-5.39-13-10.87-13.8s-8.17,4-8.19,4c-2.15,3.31-2.74,7.18-2.84,12-.16,7.93,4.24,30.48,15.25,52.4,0,0,19.93-.74,28.85-6.69,0,0-3.34-11.77-3.59-15.73s6.69-7.19,5-15.36Z"/><path class="cls-6" d="M683.08,174.12a56.5,56.5,0,0,0,6.82,1.94c2,.28,9.18.4,9.47,2.32a3.82,3.82,0,0,1-.39,1s1.57.6,1.31,1.6a1.79,1.79,0,0,1-2,1.26,1.83,1.83,0,0,1,.29,1c0,.59-.86,1.21-3.19,1.18a1.79,1.79,0,0,1,.09,1.32c-.25.71-4.34.74-6.73.62s-10.55-1.29-11.52-2.46-3.14-4.15,0-8a17.73,17.73,0,0,1,8-5.25l-2.09,3.43Z"/><path class="cls-7" d="M689.92,179.08a.19.19,0,0,1-.1-.19.21.21,0,0,1,.23-.2l8.1.48a.22.22,0,0,1,0,.43l-8.1-.48-.1,0Z"/><path class="cls-7" d="M689.63,181.71a.21.21,0,0,1-.09-.2.21.21,0,0,1,.22-.2l7.63.43a.22.22,0,0,1,0,.43l-7.62-.43a.23.23,0,0,1-.11,0Z"/><path class="cls-7" d="M689,184.33a.21.21,0,0,1-.1-.18.22.22,0,0,1,.21-.22c2,0,5.13-.05,5.36-.09a.21.21,0,0,1,.27.13.23.23,0,0,1-.14.28c-.13.05-2,.09-5.49.11a.2.2,0,0,1-.11,0Z"/><path class="cls-6" d="M623.08,135.77c-.1,1.37,12.71,32.19,15.72,37.51,0,0,13.27-.56,42.3,3.11v7.36s-43.94,5.84-49.37,2.38S611.36,154,608.81,145.21s-.6-15.7,5.36-16.56,8.91,7.12,8.91,7.12Z"/><path class="cls-2" d="M543.16,215.58a.64.64,0,0,1,.69-.72h53.28c.47,0,1,.31,1,.72v8.55c0,.41-.56.77-1,.77H543.85a.68.68,0,0,1-.69-.77v-8.55Z"/><polygon class="cls-47" points="555.8 214.86 558.77 214.86 558.77 224.9 555.8 224.9 555.8 214.86 555.8 214.86"/><path class="cls-47" d="M543.16,236.39a.64.64,0,0,1,.69-.72h53.28c.47,0,1,.31,1,.72v8.55c0,.41-.56.77-1,.77H543.85a.68.68,0,0,1-.69-.77v-8.55Z"/><polygon class="cls-23" points="557.28 235.67 558.77 235.67 558.77 245.71 557.28 245.71 557.28 235.67 557.28 235.67"/><polygon class="cls-23" points="553.94 235.67 555.43 235.67 555.43 245.71 553.94 245.71 553.94 235.67 553.94 235.67"/><path class="cls-29" d="M546.14,246.21c0-.29.2-.5.68-.5H600.1c.47,0,1,.21,1,.5v6.1c0,.29-.57.46-1,.46H546.82c-.48,0-.68-.17-.68-.46v-6.1Z"/><polygon class="cls-23" points="559.51 245.71 563.23 245.71 563.23 252.77 559.51 252.77 559.51 245.71 559.51 245.71"/><path class="cls-29" d="M546.14,225.84c0-.43.2-.94.68-.94H600.1a1.15,1.15,0,0,1,1,.94v9c0,.43-.57.8-1,.8H546.82c-.48,0-.68-.37-.68-.8v-9Z"/><polygon class="cls-23" points="546.14 226.38 601.14 226.38 601.14 234.19 546.14 234.19 546.14 226.38 546.14 226.38"/><path class="cls-30" d="M547.08,232h52.77a.18.18,0,0,1,.18.18.18.18,0,0,1-.18.19H547.08a.18.18,0,0,1-.19-.19.18.18,0,0,1,.19-.18Z"/><path class="cls-30" d="M554.51,230.1h42.73a.18.18,0,0,1,.19.18.18.18,0,0,1-.19.19H554.51a.18.18,0,0,1-.19-.19.18.18,0,0,1,.19-.18Z"/><path class="cls-30" d="M549.31,227.87h50.16a.19.19,0,1,1,0,.37H549.31a.18.18,0,0,1-.19-.18.18.18,0,0,1,.19-.19Z"/><polygon class="cls-43" points="1103.57 253.14 1040.02 253.14 1040.02 22.73 1103.57 22.73 1103.57 253.14 1103.57 253.14"/><path class="cls-6" d="M971.67,152.91s26.6.5,37.14,2.65l.56,12.33-36.6-5.77-1.1-9.21Z"/><polygon class="cls-45" points="938.33 155.45 946.58 122.85 973.7 148.22 938.33 155.45 938.33 155.45"/><polygon class="cls-46" points="950.5 126.52 960.14 135.54 941.8 150.46 950.5 126.52 950.5 126.52"/><polygon class="cls-21" points="966.72 131.3 960.99 130.3 944.35 146.58 950.5 126.52 947.37 125.21 940.03 153.95 966.72 131.3 966.72 131.3"/><polygon class="cls-29" points="978.33 187.89 1008.81 165.31 967.44 129.75 938.33 155.45 978.33 187.89 978.33 187.89"/><path class="cls-6" d="M924,239.76s-3.8,3.55-9.2-.78c0,0,4.32-12.35,9.9-37.62,5.9.93,7.53,1.78,13.27,2.7-4.17,14.64-6.27,17.45-14,35.7Z"/><path class="cls-22" d="M924.57,239.66s.91,4.5-2.49,7c-2.24,1.63-9.88-3.5-15.13-2.78s-13.71-5.55-12.32-8.57,6.43-2.08,9.77-1.32,9.12-.33,10.91-.24c0,0,1.13.4,2.85,3.73,1.59,3.08,5.76,1.27,6.41,2.2Z"/><path class="cls-3" d="M915.84,219.25s8.41,5.52,23.65,3.95L951,186.81l-35.13,32.44Z"/><path class="cls-6" d="M891.65,245.52s-4.93,1.66-8.06-4.52c0,0,9-9.46,24.59-30.15,5,3.28,6.12,4.74,11,8-9.85,11.6-12.92,13.29-27.48,26.72Z"/><path class="cls-22" d="M892.89,245.29a12,12,0,0,1-4.67,7.81c-.7.49-7.67-4.2-12.91-3.42s-13.77-5.42-12.41-8.45,6.41-2.15,9.76-1.42,9.12-.42,10.91-.35c0,0,1.14.39,2.89,3.7,1.62,3.07,5.77,1.21,6.43,2.13Z"/><path class="cls-1" d="M1041,189.37s1.08,16.35,4.24,25,4,36.52-20,38.49c-18.72,1.54-27.35-2-78.18-56.75,0,0-18.53,29.9-25.23,38.8,0,0-23.44-4.12-31.33-20.27,0,0,21.44-19.57,35.37-38.26,9.56-12.82,21.33-14.75,28.28-10.61,18.52,11,51,33.1,51,33.1l3.07-9.85s15.66-7.82,32.7.33Z"/><path class="cls-3" d="M947.3,195.41a.34.34,0,0,1-.19,0,.4.4,0,0,1-.15-.54,31.44,31.44,0,0,0,2.85-7.72.4.4,0,0,1,.47-.3.4.4,0,0,1,.3.48,32.27,32.27,0,0,1-2.93,7.93.41.41,0,0,1-.35.2Z"/><path class="cls-3" d="M948.38,195.17c-.21,0-.39,0-.4-.26s.17-.34.39-.35a10.91,10.91,0,0,0,7.34-3.74.39.39,0,0,1,.56,0,.27.27,0,0,1,0,.44,11.2,11.2,0,0,1-7.92,3.94Z"/><path class="cls-48" d="M1030.52,120.67s-9.44,3.88-15.64.61c-9.64-5.07-1.12-21.92-4.83-31.41l17.87,12.61,2.6,18.19"/><polyline class="cls-6" points="1040.68 123.65 1025.73 126.2 1021.45 101.05 1036.4 98.5 1040.68 123.65"/><path class="cls-7" d="M1021.45,101.05l2.18,12.82c2.36-1.94,5.86-4.91,10.1-14.91l-12.28,2.09"/><path class="cls-6" d="M1015.18,154.89s17.42-25,26.24-34.35c-.52-.67-1.07-1.33-1.63-2,0,0-9.47,9.06-14.67,2.61,0,0-2.31,2-3.91,3.25-3.05,2.88-11.49,16.35-6,30.48Z"/><path class="cls-49" d="M1043.85,180.54c-2.58-7,20.41-33.41-2.43-60-11.7,2.53-25.58,28.57-25.58,28.57-1.27-13.88,4.2-22.25,5.81-25.71-.68.17-3.85,3.32-3.85,3.32-7.38,10.69-13.35,19.52-14.47,28.82-.67,5.58,2.16,8.66,4.08,12.28a41.29,41.29,0,0,1-.8,9c-1,4.51-4.27,9.57,1.69,12.21,0,0,17,3.46,34.49,0,0,0,3.71-1.34,1.06-8.5Z"/><path class="cls-6" d="M1018.69,67.15s-11.5,2-10,16.62c.43,4.14,2.5,8,1.69,10.27-1.74,4.84-5,7.62,1.08,7.82a18,18,0,0,1,1.5,3.7c1,3.48,2.26,8.11,5.86,7.64,4.2-.56,8.93-5.56,14.92-11.41a20.88,20.88,0,0,0,4.82-7.73c2.93-8,6-26.08-11-27.86-2.49-.26-5.34.49-8.8,1"/><path class="cls-50" d="M1019.93,88.56a.57.57,0,0,0,.37-.2.59.59,0,0,0-.07-.83c-1-.89-3.56-2.72-6.52-.15a.61.61,0,0,0-.15.81.58.58,0,0,0,.82.15,4.23,4.23,0,0,1,5.09.09.61.61,0,0,0,.46.13Z"/><path class="cls-40" d="M1017.67,104.41a.51.51,0,0,0-.63-.8,7.93,7.93,0,0,1-4.16,1.73l.06.22c.07.25.15.51.22.77l.13,0a8.83,8.83,0,0,0,4.38-1.9Z"/><path class="cls-6" d="M1019.56,103.54h-.35a6.1,6.1,0,0,1,.34-12.2h.34a6.1,6.1,0,0,1-.33,12.2m0-11.67a5.56,5.56,0,0,0-.31,11.12h.32a5.57,5.57,0,0,0,.3-11.13h-.31"/><path class="cls-8" d="M1019.56,103h-.32a5.56,5.56,0,0,1,.31-11.12h.31a5.57,5.57,0,0,1-.3,11.13m0-10.6a5,5,0,0,0-.28,10h.29a5,5,0,0,0,.27-10h-.28"/><path class="cls-9" d="M1019.56,102.46h-.29a5,5,0,0,1,.28-10h.28a5,5,0,0,1-.27,10m0-9.52a4.49,4.49,0,0,0-.25,9h.26a4.49,4.49,0,0,0,.24-9h-.25"/><path class="cls-10" d="M1019.56,101.93h-.26a4.49,4.49,0,0,1,.25-9h.25a4.49,4.49,0,0,1-.24,9m0-8.46a4,4,0,0,0-.22,7.91h.23a4,4,0,0,0,.21-7.91h-.22"/><path class="cls-11" d="M1019.56,101.39h-.23a4,4,0,0,1,.22-7.91h.22a4,4,0,0,1-.21,7.91m0-7.38a3.42,3.42,0,0,0-.19,6.84h.2a3.42,3.42,0,0,0,.18-6.83h-.19"/><path class="cls-12" d="M1019.56,100.85h-.2a3.42,3.42,0,0,1,.19-6.84h.19a3.42,3.42,0,0,1-.18,6.83m0-6.3a2.88,2.88,0,0,0-.16,5.76h.16a2.89,2.89,0,0,0,.16-5.77h-.16"/><path class="cls-13" d="M1019.55,100.32h-.16a2.88,2.88,0,0,1,.16-5.76h.16a2.89,2.89,0,0,1-.16,5.77m0-5.24a2.35,2.35,0,0,0-.13,4.7h.13a2.35,2.35,0,0,0,.13-4.69h-.13"/><path class="cls-14" d="M1019.55,99.78h-.13a2.35,2.35,0,0,1,.13-4.7h.13a2.35,2.35,0,0,1-.13,4.69m0-4.16a1.81,1.81,0,0,0-.1,3.62h.1a1.82,1.82,0,0,0,.1-3.63h-.1"/><path class="cls-15" d="M1019.55,99.25h-.1a1.81,1.81,0,0,1,.1-3.62h.1a1.82,1.82,0,0,1-.1,3.63m0-3.09a1.28,1.28,0,0,0-.07,2.55h.07a1.28,1.28,0,0,0,.07-2.55h-.07"/><path class="cls-16" d="M1019.55,98.71h-.07a1.28,1.28,0,0,1,.07-2.55h.07a1.28,1.28,0,0,1-.07,2.55m0-2a.75.75,0,0,0-.74.7.74.74,0,0,0,.7.78h0a.74.74,0,0,0,0-1.48h0"/><path class="cls-17" d="M1019.55,98.17h0a.74.74,0,0,1-.7-.78.75.75,0,0,1,.74-.7h0a.74.74,0,0,1,0,1.48m0-.94a.2.2,0,0,0-.2.19.21.21,0,0,0,.19.22h0a.22.22,0,0,0,.21-.2.2.2,0,0,0-.2-.21h0"/><path class="cls-18" d="M1019.55,97.64h0a.21.21,0,0,1-.19-.22.2.2,0,0,1,.2-.19h0a.2.2,0,0,1,.2.21.22.22,0,0,1-.21.2"/><path class="cls-5" d="M1017.31,92.54a1,1,0,1,1-1.13-1,1.07,1.07,0,0,1,1.13,1Z"/><path class="cls-48" d="M1019.56,74.49a24.09,24.09,0,0,0,6.79,9c3.09,2.46,1.51,6.11,3.72,8.5,0,0,3,5.06,3.39,8s-3.34,16.91,5.52,18.77c9.21,1.93,27.47-5.53,22-16.81s-10-12.7-12.46-22.09c-2.12-8.19-9.73-20.17-19.45-16.87,0,0-5.15-2.37-15.44,2-7.19,3-12.82,15.09-3.6,25,0,0-5.16-16,9.51-15.38Z"/><path class="cls-6" d="M1030,90.29s.48-2.4,3.61-2.54,3,7.66.56,9.28-3.83-2.09-3.83-2.09l-.34-4.65Z"/><path class="cls-50" d="M1019.47,73.84a25.08,25.08,0,0,1,8.46-9.41s-7.07,2.9-8.46,9.41Z"/><path class="cls-6" d="M978.88,161.35a42.13,42.13,0,0,1-5.77-1.8c-1.88-.86-8-4.66-9.31-3.19a3.82,3.82,0,0,0-.22,1.08s-1.66-.35-2,.65a1.79,1.79,0,0,0,1,2.15,1.91,1.91,0,0,0-.82.72c-.28.52.08,1.5,2.08,2.74a1.84,1.84,0,0,0-.8,1.08c-.18.73,3.29,3,5.38,4.19s9.67,4.66,11.13,4.18,4.93-1.81,4.39-6.78a10.62,10.62,0,0,0-4.4-8c-1.72-1.22-1.82-2-2.25-2a1.3,1.3,0,0,0-1.19,1.52c.27,1.28,2.75,3.4,2.75,3.4Z"/><path class="cls-7" d="M971.45,162.12a.21.21,0,0,0,.19-.12.21.21,0,0,0-.09-.29l-7.14-4a.23.23,0,0,0-.3.09.22.22,0,0,0,.09.29l7.14,4a.23.23,0,0,0,.11,0Z"/><path class="cls-7" d="M970.26,164.5a.22.22,0,0,0,.1-.41l-6.71-3.79a.21.21,0,0,0-.29.08.21.21,0,0,0,.08.3l6.71,3.79a.2.2,0,0,0,.11,0Z"/><path class="cls-7" d="M969.36,167.06a.21.21,0,0,0,.18-.09.22.22,0,0,0-.07-.3c-1.65-1.08-4.33-2.84-4.51-3a.2.2,0,0,0-.29,0,.21.21,0,0,0,0,.31c.08.12,1.63,1.16,4.6,3.09a.21.21,0,0,0,.12,0Z"/><path class="cls-6" d="M979.58,173.15s31.37,20.69,40.43,17.6,23.26-40.29,23.26-40.29l-13.65-5-15.52,30.67s-10.18-4.27-30.08-9.1l-4.44,6.09Z"/><path class="cls-49" d="M1034.69,130.32s-11.53,21-15.32,30.44c0,0,7.84,12.81,21.78,8.18,0,0,9.6-18.42,6-27.19s-12.42-11.43-12.42-11.43Z"/><path class="cls-51" d="M1035.38,170.34a.39.39,0,0,1,0-.78,26.89,26.89,0,0,0,5.49-.92c.62-1.53,5.64-14,6.36-19a.39.39,0,1,1,.78.12c-.78,5.4-6.24,18.74-6.47,19.3l-.07.15-.15.06a24.73,24.73,0,0,1-5.89,1Z"/><path class="cls-51" d="M1020.39,162.56a.39.39,0,0,1-.34-.18l-1.61-2.52,10.33-19.31a.38.38,0,0,1,.53-.16.39.39,0,0,1,.16.53l-10.11,18.9,1.37,2.14a.39.39,0,0,1-.13.54.36.36,0,0,1-.2.06Z"/><path class="cls-3" d="M1016.47,208.22a.43.43,0,0,1-.3-.13,43.91,43.91,0,0,0-9.75-7.67.4.4,0,0,1,.39-.69,45.29,45.29,0,0,1,10,7.84.39.39,0,0,1-.29.65Z"/><path class="cls-3" d="M1015.81,202.24a.42.42,0,0,1-.21-.06c-1.87-1.18-7.33-1.71-7.38-1.71a.4.4,0,0,1-.36-.43.39.39,0,0,1,.43-.36c.23,0,5.7.55,7.73,1.84a.38.38,0,0,1,.12.54.38.38,0,0,1-.33.18Z"/><path class="cls-31" d="M1069.2,241.13s-21.24-29.68-14-32.91,14,32.91,14,32.91Z"/><path class="cls-32" d="M1070.87,241.5s-12.63-40.63-3.71-41.45,3.71,41.45,3.71,41.45Z"/><path class="cls-33" d="M1071.64,241.13s-.21-33.53,9.27-30.28-9.27,30.28-9.27,30.28Z"/><polygon class="cls-49" points="1079.41 259.83 1061.57 259.83 1061.57 240.13 1079.41 240.13 1079.41 259.83 1079.41 259.83"/><path class="cls-25" d="M1002.48,241.6c0,.41-.56.76-1,.76H948.17a.67.67,0,0,1-.68-.76v-8.55a.64.64,0,0,1,.68-.72h53.28c.47,0,1,.31,1,.72v8.55Z"/><polygon class="cls-23" points="988.36 242.36 986.88 242.36 986.88 232.33 988.36 232.33 988.36 242.36 988.36 242.36"/><polygon class="cls-23" points="991.71 242.36 990.22 242.36 990.22 232.33 991.71 232.33 991.71 242.36 991.71 242.36"/><path class="cls-29" d="M999.51,252.15a1.19,1.19,0,0,1-1,1H945.2c-.48,0-.69-.56-.69-1v-9a.67.67,0,0,1,.69-.76h53.28c.47,0,1,.33,1,.76v9Z"/><polygon class="cls-23" points="999.51 251.65 944.51 251.65 944.51 243.85 999.51 243.85 999.51 251.65 999.51 251.65"/><path class="cls-30" d="M998.22,246.08H945.45a.18.18,0,0,1-.18-.19.18.18,0,0,1,.18-.18h52.77a.19.19,0,1,1,0,.37Z"/><path class="cls-30" d="M990.79,247.94H948.05a.19.19,0,0,1-.18-.19.18.18,0,0,1,.18-.18h42.74a.19.19,0,0,1,.19.18.2.2,0,0,1-.19.19Z"/><path class="cls-30" d="M996,250.17H945.82a.19.19,0,0,1,0-.38H996a.19.19,0,0,1,0,.38Z"/></g></g></svg>