<?xml version="1.0" encoding="utf-8"?>
<!-- Generator: Adobe Illustrator 25.0.1, SVG Export Plug-In . SVG Version: 6.00 Build 0)  -->
<svg version="1.1" id="Layer_1" xmlns="http://www.w3.org/2000/svg" xmlns:xlink="http://www.w3.org/1999/xlink" x="0px" y="0px"
	 viewBox="0 0 312.7 1065.1" style="enable-background:new 0 0 312.7 1065.1;" xml:space="preserve">
<style type="text/css">
	.st0{clip-path:url(#SVGID_2_);}
	.st1{fill:#665B55;}
	.st2{clip-path:url(#SVGID_4_);}
	.st3{fill:#FF8F00;}
	.st4{fill:#021A26;}
	.st5{fill:#4D4844;}
	.st6{fill:#EA997D;}
	.st7{fill:#D87E66;}
	.st8{fill:#23242B;}
	.st9{fill:#EFCBB4;}
	.st10{fill:#CE6565;}
	.st11{fill:#CEA289;}
	.st12{fill:#53705C;}
	.st13{fill:#405646;}
	.st14{fill:#D5D5E0;}
	.st15{fill:#E8E8EF;}
	.st16{fill:#585872;}
	.st17{fill:#C7C7DD;}
	.st18{fill:#C2C2CE;}
	.st19{fill:#5F5968;}
	.st20{fill:#352F3F;}
	.st21{fill:#EDA38E;}
	.st22{fill:#6B5D5D;}
	.st23{fill:#4C3D3D;}
	.st24{fill:#594A4A;}
	.st25{fill:#E5DFDF;}
	.st26{fill:#3F3232;}
	.st27{fill:#827575;}
	.st28{fill:#564747;}
	.st29{fill:#D8D2D2;}
	.st30{fill:#BFB4B4;}
	.st31{fill:#FFFFFF;}
	.st32{fill:#9B9BA7;}
</style>
<g id="Layer_2_1_">
	<g id="Layer_1-2">
		<g id="Henry">
			<g>
				<defs>
					<rect id="SVGID_1_" x="2" width="308.8" height="1065.1"/>
				</defs>
				<clipPath id="SVGID_2_">
					<use xlink:href="#SVGID_1_"  style="overflow:visible;"/>
				</clipPath>
				<g class="st0">
					
						<rect x="-37.7" y="883.9" transform="matrix(0.1042 -0.9946 0.9946 0.1042 -820.1028 863.866)" class="st1" width="214.4" height="6.6"/>
					<g>
						<defs>
							<rect id="SVGID_3_" x="2" width="308.8" height="1065.1"/>
						</defs>
						<clipPath id="SVGID_4_">
							<use xlink:href="#SVGID_3_"  style="overflow:visible;"/>
						</clipPath>
						<g class="st2">
							<path class="st3" d="M81.3,710.4c1.3,2.3,2.3,4.8,2.7,7.5c0.8,4.6,3.4,9.4,8,10c5.2,0.7,9.4-3,11.5-7.2
								c0.9-1.9,2.6-4.8,4.7-6.4c6-4.4,36.7-2.4-12.9,90c-6.4,12-25.5,8.9-27.8-4C49.6,699.2,77,703.9,81.3,710.4"/>
							<path class="st3" d="M56.1,961.6l10.2,1.1c4.3,0.7,8.4-2.3,9-6.6s-2.3-8.4-6.6-9c-0.3,0-0.6-0.1-0.8-0.1l-10.2-1.1
								c-4.3-0.6-8.3,2.4-9,6.7c-0.6,4.3,2.4,8.3,6.7,9C55.7,961.6,55.9,961.6,56.1,961.6"/>
							<path class="st4" d="M41.9,1022.9c-4.2,8-16.7,24.7-8.8,35.1c7.6,10,30.3,10.8,35.9-5.6c1.8-5.3,2-14.3,0.8-23.1
								c0,0-4.5-13.6-1.1-26.3c0,0,3.5-23.9-15.7-14.3c0,0-9.2,2-6.8,16.3C46.3,1005,46.1,1014.9,41.9,1022.9"/>
							<path class="st5" d="M41.5,1018.5c-4.2,8-15.9,23.9-8,34.3c7.6,10,29.1,11.2,34.7-5.2c1.8-5.3,1.2-13.5,0-22.3
								c0,0-2.4-13.4,0.5-26.3c1.2-5.2,3.4-17.5-15.7-14.3c0,0-9.2,2-6.8,16.3C46.3,1001,45.7,1010.5,41.5,1018.5"/>
							<path class="st6" d="M159.7,111.2c0,0,1.7,41.1,0,47.7c-1.7,6.6-17.9,17.6-34.4,25.4c0,0,21.3,29.2,62.9,28.3
								c41.6-0.9,52.2-18,58.8-27.5c0,0-31.7-11.5-32.5-25c-0.8-13.5,0-48.8,0-48.8L159.7,111.2z"/>
							<path class="st7" d="M186.4,156.8c13.2,0,22.6-6.5,27.7-13.6c0.1-12,0.3-31.9,0.3-31.9h-54.8c0,0,0.6,20.7,0.8,32.2
								C164.8,150.6,172.9,156.8,186.4,156.8"/>
							<path class="st6" d="M150.5,82.4c0,0-2.3-6.7-11.2-5.9c-8.6,0.8-5.7,22.9,1.9,26.5c7.6,3.6,10.1-7.4,10.1-7.4L150.5,82.4z"/>
							<path class="st6" d="M226,82.4c0,0,2.3-6.7,11.2-5.9c8.6,0.8,5.7,22.9-1.9,26.5c-7.6,3.6-10.1-7.3-10.1-7.3L226,82.4z"/>
							<path class="st6" d="M233.3,80.6c-3.8,47.4-17.1,70.1-45.1,70.1s-41.5-18.8-45.1-70.1c-2.7-37.9,17.2-61.3,45.1-61.3
								S236.5,41.3,233.3,80.6"/>
							<path class="st8" d="M164.9,88.3c-0.2,1.6-1.7,2.6-3.2,2.4c-1.6-0.2-2.6-1.7-2.4-3.2c0.2-1.4,1.4-2.4,2.8-2.4
								C163.7,85.2,165,86.6,164.9,88.3"/>
							<path class="st9" d="M152.4,78c-0.9,0-1.7-0.7-1.8-1.6c0-0.5,0.2-0.9,0.5-1.2c2.6-3,9.1-9.1,18.5-2.9
								c0.8,0.5,1.1,1.4,0.7,2.3c-0.4,0.8-1.4,1.1-2.3,0.7c-4.8-2.6-10.6-1.7-14.4,2.2C153.3,77.8,152.8,78,152.4,78"/>
							<path class="st9" d="M225.1,78c0.9,0,1.7-0.8,1.7-1.7c0-0.4-0.2-0.8-0.4-1.1c-2.6-3-9.1-9.1-18.5-2.9
								c-0.8,0.5-1.1,1.4-0.7,2.3c0.4,0.8,1.4,1.1,2.3,0.7c4.8-2.6,10.6-1.7,14.4,2.2C224.2,77.8,224.7,78,225.1,78"/>
							<path class="st7" d="M187.5,115.6c-2.4-0.1-4.2-0.7-5.1-2.5c-2.8-5.4,2.5-14.2,3-15.3c0.3-0.7,0.8-1.2,1.6-0.8
								s0.5,1.3,0.1,2.1c-1.6,3.5-2.6,10.1-1.1,12.6c0.4,0.6,1.1,1,1.8,1c0.8,0.1,1.4,0.8,1.4,1.6
								C189.1,115.7,187.6,115.6,187.5,115.6"/>
							<path class="st10" d="M187.6,129.1c-4.6,0-9.1-1.3-13-3.9c-0.6-0.5-0.8-1.4-0.3-2c0.5-0.6,1.4-0.8,2-0.3
								c0.4,0.3,10.4,7.3,22.9-0.1c0.7-0.4,1.6-0.3,2,0.4c0.4,0.7,0.3,1.6-0.4,2c0,0-0.1,0.1-0.1,0.1
								C196.8,127.7,192.2,129,187.6,129.1"/>
							<path class="st8" d="M213.4,90.8c1.9-0.1,3.7-0.6,5.3-1.7c0.4-0.3,0.5-0.9,0.3-1.4c-0.2-0.4-0.6-0.6-1.1-0.4
								c0,0-0.1,0-0.1,0.1c0,0-4.5,3-7.9,0.1c-0.3-0.3-0.8-0.3-1.1,0.1c0,0-0.1,0.1-0.1,0.1c-0.3,0.4-0.2,1,0.2,1.4
								C210.1,90.2,211.7,90.8,213.4,90.8"/>
							<path class="st9" d="M210,37c0,0-20.1-16.1-23.3,10.4c-1,8.8-6.9,18.1-37.5,16.4l-0.1,18.3l-6-4.9c0,0-2.5-12.1-6.7-16
								s-9-14-2-19.2c6.3-5.2-8.6-14.3,8.4-26.3c22.7-16.1,63.6-24.6,72.1-1.3c0,0,9.9-4.8,18.9,4.4s15.9,22.7,11.3,34.8
								c-1.4,3.6-5.2,7.3-6.7,10.9c-2.2,5.1-4.1,14-4.1,14l-6.3,2.1c0,0-1.5-14.3-2.4-18.8C224.7,57.1,225.7,39,210,37"/>
							<path class="st11" d="M188.6,38.7L188.6,38.7c-0.3,0-0.5-0.1-0.5-0.4c0-0.3,0.1-8.1,4.3-12.2c1.6-1.6,3.9-2.5,6.2-2.4
								c10.1,0.2,12.3,12,12.3,12.1c0,0.3-0.1,0.5-0.4,0.6c-0.3,0.1-0.5-0.1-0.6-0.4c0,0,0,0,0,0c-0.1-0.5-2.1-11.1-11.3-11.2
								c-2-0.1-4,0.7-5.4,2.1c-3.9,3.8-4,11.4-4,11.5C189.1,38.5,188.9,38.7,188.6,38.7"/>
							<path class="st11" d="M158.8,55.6c-2.9,0-5.7-0.5-8.5-1.3c-0.3-0.1-0.4-0.3-0.3-0.6c0,0,0,0,0,0c0.1-0.3,0.4-0.4,0.6-0.3
								c19.6,5.7,24.5-8.2,29.1-21.7c2.1-6.1,4.1-11.8,7.4-15.1c2-2.2,4.9-3.4,7.9-3.1c8.2,0.9,15.5,12.4,15.8,12.9
								c0.1,0.2,0.1,0.5-0.1,0.7c0,0,0,0,0,0c-0.2,0.1-0.5,0.1-0.7-0.2c0,0,0,0,0,0c-0.1-0.1-7.3-11.6-15.1-12.5
								c-2.7-0.2-5.3,0.8-7.1,2.8c-3.2,3.2-5.1,8.8-7.1,14.8C176.8,43.2,172.5,55.7,158.8,55.6"/>
							<path class="st6" d="M228.9,759.7l-19.3,247.3h-29.8c0,0-13.7-99.1-13.5-143.1c0.2-44,10.9-104.2,10.9-104.2H228.9z"/>
							<path class="st12" d="M123.1,767.1c18.5-83.9,35.6-162.8,37.5-186.2c0,0,3.5,88.1,7.5,187.5l64.4-0.7
								c11.3-124.3,21.8-224.4,18.2-316.2H83c0,0-11.4,143.2-25.7,311.3L123.1,767.1z"/>
							<path class="st13" d="M160.7,580.9c0,0,13.2-10,17.4-12.7s-16.3,39.7-16.3,39.7L160.7,580.9z"/>
							<path class="st14" d="M171.2,1014.6c0,0-1.8,0.7-1.8,1.4c0,0.7,0.4,15.6,0.7,17.5c0,0,14.6,6.4,21.3,9.3c0,0,4.7-3.3,5.5-1.3
								c1.2,2.5,3.1,4.5,5.6,5.8c0,0,25.2,7.6,41,7.8c15.3,0.3,21.1-7.1,23.2-10.9c1-1.9,2.7-9.4,1.2-12.9L171.2,1014.6z"/>
							<path class="st15" d="M175.4,982.9c0,0-4.5,5.2-4.2,31.7c0,0,4.7,5.8,51,22.2c0,0,14.8,6,23.8,6.3c6.5,0.2,16.7-1.1,20.5-6.9
								c5.3-8.1-4.2-12.8-20.4-24.7c-12.4-9.1-25-23.1-28.6-28.6c0,0-2.6-3.2-9.9-2.3c-7.3,0.9-13.1,4.1-12.1,9.5
								c0,0-3.8,1.1-5.5,3.2c-1.7,2.1-9.9-1.7-10.1-7.3C179.6,982.4,176.8,979.9,175.4,982.9"/>
							<path class="st16" d="M171.2,1014.6c0-1.4,0-2.7,0-4c8-2.3,22.1-6,26.7-4.1c6.4,2.7,28.6,22.2,28.6,22.2l2.4,10.5
								c-2.6-0.9-4.7-1.7-5.8-2.1l-0.9-7.1c0,0-17.2-12.3-21.5-13.1s-15.8,5.2-15.8,5.2l0,0C173,1016.8,171.3,1014.6,171.2,1014.6"
								/>
							<path class="st16" d="M235.4,1027.8c0,0-23.5-17.8-43-36.5c0.9-0.5,1.9-0.9,3-1.2c-1-5.4,4.8-8.6,12.1-9.5
								c7.3-0.9,9.9,2.3,9.9,2.3c3.7,5.6,16.3,19.6,28.6,28.6c3,2.2,5.8,4.2,8.3,5.9c-2.7,3.3-9.5,10.3-18.9,10.3"/>
							<path class="st17" d="M226.5,1027.9c8.7,1.5,13.1,5.7,25,0.5c4.3-1.9,5.6-5.8,6.6-8.2c8.4,6.2,12.3,10.3,8.5,16.1
								c-3.8,5.8-14,7.1-20.5,6.9c-9-0.4-23.8-6.3-23.8-6.3c-2.3-0.8-4.4-1.6-6.5-2.3C217.1,1031.6,220.2,1026.9,226.5,1027.9"/>
							<path class="st15" d="M237,1025.9c-10.7-6.7-41.6-35.8-41.6-35.8c-1-5.4,4.8-8.6,12.1-9.5c7.3-0.9,9.9,2.3,9.9,2.3
								c3.7,5.6,14.7,20.6,27.1,29.7c2.1,1.5,4.6,3.3,6.5,4.6C249.1,1022.9,237,1025.9,237,1025.9"/>
							<path class="st16" d="M249.3,1043.1c0,0,0-4.6,1.4-5.8c1.4-1.2,11.4-2.1,13.1-9.9c0,0,1.4-1.1,4.1,3.8
								C267.9,1031.2,269.7,1042.5,249.3,1043.1"/>
							<polygon class="st16" points="217.9,989.6 213.2,983.2 199.8,987.2 204.7,994.3 							"/>
							<path class="st18" d="M235.7,1026.4c0.5,0,1-0.3,1.2-0.8c1.9-4.7,4.3-9.3,7-13.6c0.4-0.6,0.2-1.4-0.4-1.7
								c-0.2-0.1-0.4-0.2-0.6-0.2c-7.1-0.5-14.3-0.5-21.4-0.1c1.9-4.6,4.2-9.1,6.7-13.4c0.4-0.6,0.2-1.4-0.4-1.7
								c-0.1-0.1-0.3-0.1-0.5-0.2c-0.4,0-10-1.2-24.5,1.5c-0.7,0.1-1.1,0.8-1,1.5c0.1,0.7,0.8,1.1,1.5,1l0,0
								c7.2-1.4,14.4-1.9,21.7-1.6c-2.5,4.5-4.8,9.2-6.7,14c-0.2,0.7,0.1,1.4,0.7,1.6c0.2,0.1,0.4,0.1,0.6,0.1
								c6.6-0.7,16.7-0.4,21-0.1c-2.4,3.9-4.4,8-6.1,12.2c-0.2,0.6,0.1,1.4,0.7,1.6c0,0,0,0,0,0
								C235.5,1026.4,235.6,1026.4,235.7,1026.4"/>
							<path class="st18" d="M227,1018.6h0.1c12-0.4,23.3-0.6,23.4-0.6c0.7,0,1.2-0.6,1.2-1.3c0-0.7-0.6-1.2-1.3-1.2c0,0,0,0,0,0
								c-0.1,0-10.2,0.1-21.5,0.5c1.4-3,4.2-9.1,6.4-11.5c0.5-0.5,0.4-1.3-0.1-1.8c-0.2-0.1-0.4-0.2-0.6-0.3
								c-0.3-0.1-7.7-1.3-21.4,0.1c3-4.4,6.4-8.5,10.1-12.3c0.5-0.5,0.4-1.3-0.1-1.8c-0.5-0.4-1.2-0.4-1.6,0
								c-5.4,5.2-11.7,14.6-12,15c-0.4,0.6-0.3,1.4,0.3,1.8c0.3,0.2,0.6,0.3,0.9,0.2c7.1-1,14.2-1.2,21.3-0.7
								c-2.4,3.9-4.5,8-6.2,12.2c-0.3,0.6,0,1.4,0.7,1.6C226.7,1018.6,226.8,1018.6,227,1018.6"/>
							<path class="st17" d="M184.9,1022.2c-11.9-5.4-13.7-7.6-13.7-7.6c-0.2-7.5,0.2-15,1.3-22.4
								C172.5,992.2,185.1,1002,184.9,1022.2"/>
							<path class="st13" d="M166.6,556.9c2.5-0.2,4.8-1.2,6.6-3c3.6-3.1,5.8-7.4,6.3-12.1c0.5-7.9,1.4-59.2,1.4-59.7V481l-1.7,0.1
								c-5.9,0.6-15.5,1-18.9,1.1v-16.1c0-0.5-0.4-1-1-1c-0.5,0-1,0.4-1,1v18.1h1.6c0.1,0,11.4-0.3,18.7-1
								c-0.1,7.6-0.8,51.3-1.2,58.5c-0.3,4.2-2.3,8-5.5,10.7c-2,1.7-4,2.6-5.6,2.5c-0.5,0-1,0.4-1.1,0.9c0,0.5,0.4,1,0.9,1.1
								L166.6,556.9"/>
							<path class="st13" d="M161.5,576.9c0.5,0,1-0.4,1-0.9c2.7-45.9,3.5-90.6,3.5-91.1c0-0.5-0.4-1-1-1s-1,0.4-1,1
								c0,0.4-0.8,45.2-3.5,91C160.4,576.4,160.9,576.9,161.5,576.9C161.4,576.9,161.4,576.9,161.5,576.9L161.5,576.9"/>
							<path class="st13" d="M166.4,473.7c0-2.6,2.1-4.7,4.7-4.7c2.6,0,4.7,2.1,4.7,4.7c0,2.6-2.1,4.7-4.7,4.7c0,0,0,0,0,0
								C168.5,478.4,166.4,476.3,166.4,473.7"/>
							<path class="st13" d="M231.8,742.6c0,0,4.4-2.9,5.2,2.8c0.3,1.7,5.9,18.4,2.8,21.2c-3.1,2.8-41.8,17.1-72.4,2.4
								c0,0-3.2-1.7-2-7.1c1.1-5.4-1.6-15.8,3.2-17.4C173.5,742.9,211.1,754.7,231.8,742.6"/>
							<path class="st13" d="M63.6,742.6c0,0-4.4-2.9-5.2,2.8c-0.3,1.7-5.9,18.4-2.8,21.2c3.1,2.8,41.8,17.1,72.4,2.4
								c0,0,3.2-1.7,2-7.1c-1.1-5.4,1.7-15.8-3.2-17.4C121.9,742.9,84.3,754.7,63.6,742.6"/>
							<path class="st19" d="M185.1,195.1c-37.1,0.6-41.2-23.4-41.2-23.3c-11,4.6-32.5-2.3-51.9-2.8c0,0-10.3,216.3-10,289.6
								c-3.8-1.4,81.6,31.9,169.6,1.8c0,0-0.7-116.5,38.1-254.3c0,0-34.9-18.7-62.7-32.9C226.9,173.1,222.2,194.5,185.1,195.1"/>
							<path class="st20" d="M184.2,207.1h-1.6c-36.8-0.5-46.7-21.8-47.2-22.7c-0.2-0.5,0-1.1,0.5-1.3c0,0,0,0,0,0
								c0.5-0.2,1.1,0,1.3,0.5c0,0,0,0,0,0c0.1,0.2,9.9,21,45.4,21.5c35.5,0.5,48.6-17.5,48.8-17.7c0.3-0.5,0.9-0.6,1.4-0.3
								c0,0,0,0,0,0c0.4,0.3,0.6,0.9,0.3,1.4c0,0,0,0,0,0C232.6,189.3,219.7,207.1,184.2,207.1"/>
							<path class="st21" d="M134.9,33.3c0,0-22.8,9.6-22.6,22.8c0.3,13.2,20.6,23.9,42.7,3.7S146.8,29.2,134.9,33.3"/>
							<path class="st19" d="M91.9,169c0,0,2.2,0.4-18.8-4.3c0,0,0.7-5,60.1-81.4l-18-39.4c0,0-133.4,110.3-110.7,148.1
								S93.2,248,93.2,248S106.5,198.3,91.9,169"/>
							<path class="st22" d="M171.3,47.7h0.5c0.4,0,0.7,0.3,0.7,0.7v4.9c0,0.4-0.3,0.7-0.7,0.7h-0.5c-0.4,0-0.7-0.3-0.7-0.7v-4.9
								C170.5,48.1,170.9,47.7,171.3,47.7z"/>
							<path class="st22" d="M172.5,139.1c0,0.4-0.4,0.5-0.8,0.5H171c-0.4,0-0.5-0.1-0.5-0.5v-4.7c0-0.4,0.1-0.7,0.5-0.7h0.6
								c0.4,0,0.8,0.2,0.8,0.7V139.1z"/>
							<rect x="128.5" y="50.6" class="st23" width="43" height="84.5"/>
							<path class="st24" d="M171.5,71.6v-21h-43v13.7H157C163.7,64.3,169.1,68.8,171.5,71.6"/>
							<path class="st25" d="M180.2,135.1c0.8,0,2-0.2,2-1V52.7c-0.2-1-1-1.8-2-2.1h-9.7v84.5H180.2z"/>
							<path class="st25" d="M127.9,50.6c-0.8,0-1.3,1.2-1.3,2.1v81.4c0,0.8,0.4,1,1.3,1h1.7V50.6H127.9z"/>
							<path class="st22" d="M131.1,81.4c-1.2-1.2-1.2-3.1,0-4.3l0,0c1.2-1.2,3.1-1.2,4.3,0l4.7,4.7c1.2,1.2,1.2,3.1,0,4.3v0
								c-1.2,1.2-3.1,1.2-4.3,0L131.1,81.4z"/>
							<path class="st26" d="M133.3,81c1,0,1.7-0.8,1.7-1.7s-0.8-1.7-1.7-1.7c-1,0-1.7,0.8-1.7,1.7C131.6,80.2,132.3,81,133.3,81
								C133.3,81,133.3,81,133.3,81"/>
							<path class="st27" d="M152.1,117.4c12.1,0,21.8-9.8,21.8-21.8c0-12.1-9.8-21.8-21.8-21.8c-12.1,0-21.8,9.8-21.8,21.8
								c0,0,0,0,0,0C130.2,107.6,140,117.4,152.1,117.4C152,117.4,152.1,117.4,152.1,117.4"/>
							<path class="st22" d="M152.1,114.8c10.6,0,19.3-8.6,19.3-19.2c0-10.6-8.6-19.3-19.2-19.3c-10.6,0-19.3,8.6-19.3,19.2
								c0,0,0,0,0,0C132.9,106.2,141.4,114.8,152.1,114.8"/>
							<path class="st28" d="M152.1,107.9c6.8,0,12.3-5.5,12.3-12.2c0-6.8-5.5-12.3-12.2-12.3c-6.8,0-12.3,5.5-12.3,12.2
								c0,0,0,0,0,0C139.8,102.3,145.3,107.8,152.1,107.9"/>
							<path class="st26" d="M152.1,105.4c5.4,0,9.8-4.4,9.8-9.8c0-5.4-4.4-9.8-9.8-9.8s-9.8,4.4-9.8,9.8c0,0,0,0,0,0
								C142.2,101,146.6,105.4,152.1,105.4C152,105.4,152.1,105.4,152.1,105.4"/>
							<path class="st22" d="M150.8,89.5c0-0.7,0.6-1.3,1.3-1.3c4.1,0,7.4,3.3,7.4,7.4c0,0.7-0.6,1.3-1.3,1.3
								c-0.7,0-1.3-0.6-1.3-1.3c0-2.6-2.1-4.7-4.7-4.7C151.3,90.9,150.8,90.3,150.8,89.5L150.8,89.5"/>
							<polygon class="st29" points="190.6,105.6 190.6,85.1 184,80.5 175.4,80.5 175.4,110.2 184,110.2 							"/>
							<rect x="175.4" y="80.4" class="st30" width="8.8" height="29.8"/>
							<path class="st31" d="M176.2,73.1h1.4c0.4,0,0.8,0.3,0.8,0.8v3.9c0,0.4-0.3,0.8-0.8,0.8h-1.4c-0.4,0-0.8-0.3-0.8-0.8v-3.9
								C175.4,73.5,175.8,73.1,176.2,73.1z"/>
							<path class="st27" d="M185.2,131.6c0,0.4-0.2,1.1-0.6,1.1h-1.5c-0.4,0-0.8-0.7-0.8-1.1v-9.5c0-0.4,0.4-1.1,0.8-1.1h1.6
								c0.4,0,0.6,0.7,0.6,1.1L185.2,131.6z"/>
							<path class="st27" d="M183,53.6h1.5c0.4,0,0.7,0.3,0.7,0.7v6.3c0,0.4-0.3,0.7-0.7,0.7H183c-0.4,0-0.7-0.3-0.7-0.7v-6.3
								C182.3,53.9,182.6,53.6,183,53.6z"/>
							<path class="st27" d="M183,63.3h1.5c0.4,0,0.7,0.3,0.7,0.7v11.2c0,0.4-0.3,0.7-0.7,0.7H183c-0.4,0-0.7-0.3-0.7-0.7V64.1
								C182.3,63.7,182.6,63.3,183,63.3z"/>
							<path class="st21" d="M134.9,33.3c0,0,32.2-13.8,37-10.2c4.8,3.7,20,13.8,20,14.8s0,20.5-0.9,22.7c-0.9,2.2-6.7,2.3-6.9-4.7
								c-0.1-4.2-0.5-8.4-1.1-12.5l-10.1-6.8c0,0,7.6,8.9,7.7,10.2c0.1,1.3-1.4,15.4-6,15.8c0,0-3.8,1-5.5-0.6c0,0-5.9,3.9-9.2,0
								c0,0-3.2,4-7.5,1.7s-9.9-13.4-9.9-13.4S130.1,45.1,134.9,33.3"/>
							<path class="st7" d="M159.7,60.8c-0.2,0-0.4-0.1-0.5-0.3l-9.6-20.2c-0.1-0.2,0-0.5,0.2-0.7c0,0,0,0,0,0
								c0.2-0.1,0.5,0,0.7,0.2l9.6,20.2c0.1,0.3,0,0.6-0.2,0.7C159.8,60.8,159.7,60.8,159.7,60.8"/>
							<path class="st7" d="M169.8,60.3c-0.3,0-0.5-0.2-0.5-0.4c0-0.1-0.9-8.4-1.5-11c-0.6-2.6-6.3-11.7-6.3-11.8
								c-0.1-0.2-0.1-0.5,0.2-0.7c0.2-0.1,0.5-0.1,0.7,0.1c0,0,0,0,0,0c0.2,0.4,5.8,9.3,6.4,12.1c0.6,2.7,1.5,10.8,1.5,11.1
								C170.3,60,170.1,60.3,169.8,60.3L169.8,60.3"/>
							<path class="st21" d="M173.2,101.3c0,0,4.3-3.7,7.4,0s-2.8,4.7-4.8,15.4c-2,10.6-1.8,28.1-4,34.1c0,0-4.1,21-23.4,11.4
								c-6-3-25.2-22.7-28.1-25.5c-6.7-6.5-3.5-8.9-3.4-12.8c0,0-4-9.2,0.8-12.1c0,0-1.2-9,2.8-11.1c0,0,2.1-12.8,10.7-11.4
								c0,0-3,27.3,23.7,32.5C155,121.7,167.2,116.5,173.2,101.3"/>
							<path class="st7" d="M128.4,117.9c-0.2,0-0.3-0.1-0.4-0.2c-4-5.2-6.6-15.3-6.7-15.8c-0.1-0.3,0.1-0.5,0.4-0.6
								c0.3-0.1,0.5,0.1,0.6,0.4c0,0.1,2.6,10.4,6.5,15.4c0.2,0.2,0.1,0.5-0.1,0.7C128.6,117.9,128.5,117.9,128.4,117.9"/>
							<path class="st7" d="M123.7,125.1c-0.2,0-0.3-0.1-0.4-0.2c-1.8-2.8-3.4-5.9-4.7-9c-0.4-1-0.9-2-1.1-2.3
								c-0.1-0.1-0.2-0.2-0.2-0.4c0-0.3,0.2-0.5,0.5-0.5c0,0,0,0,0,0c0.5,0,0.6,0.3,1.7,2.8c1.3,3.1,2.8,6,4.6,8.8
								c0.2,0.2,0.1,0.5-0.1,0.7c0,0,0,0,0,0C123.9,125,123.8,125.1,123.7,125.1"/>
							<path class="st7" d="M121.7,132.4c-0.1,0-0.3,0-0.4-0.1c-1.8-2-3.1-4.3-4-6.8c-0.1-0.3,0-0.5,0.3-0.6c0,0,0,0,0,0
								c0.3-0.1,0.5,0.1,0.6,0.3c0.8,2.4,2.1,4.5,3.7,6.4c0.2,0.2,0.2,0.5,0,0.7C122,132.4,121.9,132.4,121.7,132.4"/>
							<path class="st20" d="M39.7,190.3c-0.5,0-0.9-0.3-1-0.8c0,0,0,0,0,0c0-0.5,0.4-1,1-1c18.2-0.7,31-22.2,31.1-22.4
								c0.3-0.5,0.9-0.6,1.4-0.4c0,0,0,0,0,0c0.4,0.2,0.6,0.7,0.4,1.2c0,0,0,0.1,0,0.1C72,167.9,59.1,189.4,39.7,190.3L39.7,190.3z"
								/>
							<path class="st20" d="M88.2,245.5L88.2,245.5c-0.6,0-1-0.4-1-1c0,0,0,0,0-0.1c0-0.4,2.3-36.9,3-53.4c0-0.5,0.4-1,1-1
								c0,0,0,0,0.1,0c0.5,0,1,0.4,1,1c0,0,0,0,0,0.1c-0.7,16.5-3,53.1-3,53.4C89.1,245.1,88.7,245.5,88.2,245.5"/>
							<path class="st32" d="M152.3,301.5c0,0,91.8-87.1,111.7-109.6l12.3,6.5c0,0-76.4,93.9-113.8,114.7
								C162.4,313,152.6,312.6,152.3,301.5"/>
							<path class="st32" d="M152.3,301.5c0,0-40.6,27-69.8,34.8c0,0-15.9,18.8-13.9,24.6s28,48,47.6,36s38.2-42.6,46.3-83.8
								L152.3,301.5z"/>
							<path class="st31" d="M111.4,346.5c27.9-17.2,41.4-40.9,41.6-41.2c0.3-0.5,0.1-1.1-0.4-1.4c-0.5-0.3-1.1-0.1-1.4,0.4
								c-0.3,0.5-26.4,46.3-81.4,56c-0.5,0.1-0.9,0.6-0.8,1.2c0.1,0.5,0.6,0.9,1.2,0.8C84.8,359.6,98.8,354.3,111.4,346.5"/>
							<polygon class="st31" points="151.2,308 157.9,312.4 154.3,315.7 							"/>
							<path class="st19" d="M136.3,169c0,0,31.4,148.1,67.6,153.1c36.3,4.9,89.1-36.6,92.6-42.6c3.5-5.9,33.9-42.8-6.9-73.4
								L219.2,248c0,0-37-83.2-47-98.3C172.2,149.6,147.3,151.2,136.3,169"/>
							<path class="st20" d="M194.1,195.3c12.1,25.8,24,52.6,24.2,53.1l0.5,1l47.8-28.4c-0.5-0.4-1-0.9-1.5-1.4l-45.4,27
								c-2.4-5.4-12.8-28.7-23.5-51.5C195.6,195.2,194.9,195.3,194.1,195.3"/>
							<path class="st20" d="M210.2,321.4c-2.1,0-4.1-0.1-6.1-0.4c-31.3-4.3-59.6-120.5-65.6-146.9c-0.7,0.1-1.3,0.1-2,0.2
								c6,26.7,34.3,144.2,67.3,148.7c2.1,0.3,4.3,0.4,6.4,0.4l0,0c18,0,38.6-9.2,55.2-19.1c-0.3-0.6-0.6-1.3-0.8-1.9
								C248.2,312.2,227.8,321.4,210.2,321.4"/>
							<path class="st7" d="M205,779.6c4,6.3,9.6,11.5,17.6,12.1"/>
							<path class="st7" d="M222.6,792.8L222.6,792.8c-7.3-0.6-13.5-4.8-18.4-12.6c-0.3-0.5-0.2-1.1,0.3-1.4
								c0.5-0.3,1.1-0.2,1.4,0.3c1.1,1.7,13.7,11.4,16.8,11.7c0.5,0,1,0.5,0.9,1.1c0,0,0,0,0,0C223.5,792.4,223.1,792.8,222.6,792.8
								"/>
						</g>
					</g>
				</g>
			</g>
		</g>
	</g>
</g>
</svg>
