<svg id="Group_403" data-name="Group 403" xmlns="http://www.w3.org/2000/svg" xmlns:xlink="http://www.w3.org/1999/xlink" width="196.58" height="164.74" viewBox="0 0 196.58 164.74">
  <defs>
    <linearGradient id="linear-gradient" x1="0.5" x2="0.5" y2="1" gradientUnits="objectBoundingBox">
      <stop offset="0.352" stop-color="#ff5d54"/>
      <stop offset="0.866" stop-color="#ff8d94"/>
    </linearGradient>
  </defs>
  <path id="Path_1265" data-name="Path 1265" d="M384.617,311.474a80.566,80.566,0,1,0-80.566,80.567,80.565,80.565,0,0,0,80.566-80.567Z" transform="translate(-223.485 -230.908)" fill="#6154c7"/>
  <path id="Path_1266" data-name="Path 1266" d="M337.729,294.4H303.222c-.4,5.026-2.874,11.743-2.874,11.743-8.546,15.438-7.94,23.218-7.149,28.23s-2.242,12.082-2.242,12.082h46.772V294.4Z" transform="translate(-233.355 -240.196)" fill="url(#linear-gradient)"/>
  <path id="Path_1267" data-name="Path 1267" d="M333.61,294.438s-.553,20.013,0,22.138,4.137,4.567,11.248,8.15c0,0-7.131,26.566-20.509,26.288s-17.114-23.33-19.238-26.378c0,0,10.587-4.045,10.892-7.664.363-4.332,0-22.534,0-22.534Z" transform="translate(-235.426 -240.202)" fill="#ea997d"/>
  <path id="Path_1268" data-name="Path 1268" d="M321.976,294.438h14.1s-.381,13.961-.2,19.953c-4.586.036-13.5-3.08-13.9-19.953Z" transform="translate(-237.893 -240.202)" fill="#d87e66"/>
  <path id="Path_1269" data-name="Path 1269" d="M354.948,327.076c-2.892.534-15.211.454-15.211.454-7.383,8.441-18.814,25.988-18.814,25.988-10.392-15.233-18.112-24.992-18.112-24.992-8.82,3.1-16.8,9.76-16.8,9.76,2.081,7.973,10.68,55.008,12.778,66.538a81.1,81.1,0,0,0,14.409,1.286,80.264,80.264,0,0,0,33.3-7.184c.561-7.871,2.183-23.746,6.38-38.186,4.312-14.832,2.07-33.663,2.07-33.663Z" transform="translate(-232.632 -244.976)" fill="#c98b53"/>
  <path id="Path_1270" data-name="Path 1270" d="M327.645,359.363s11.54,24.926,25.125,37.719c0,0-18.333-29.278-25.125-37.719Z" transform="translate(-238.722 -249.699)" fill="#bf7f4b"/>
  <path id="Path_1271" data-name="Path 1271" d="M343.048,399.888s-16.486-15.562-25.058-25.85c0,0,10.551,15.3,25.058,25.85Z" transform="translate(-237.31 -251.846)" fill="#bf7f4b"/>
  <path id="Path_1272" data-name="Path 1272" d="M315.007,382.941s-11.821-1.282-17.409-8.9c0,0,2.968,10.485,17.409,8.9Z" transform="translate(-234.327 -251.846)" fill="#bf7f4b"/>
  <path id="Path_1273" data-name="Path 1273" d="M330.619,357.7s10.188-16.618,15.48-24.333c0,0-9.743,17.409-15.48,24.333Z" transform="translate(-239.157 -245.897)" fill="#bf7f4b"/>
  <path id="Path_1274" data-name="Path 1274" d="M346.608,382.121s9.3-6.108,12.958-14.8c0,0-2.968,11.6-12.958,14.8Z" transform="translate(-241.496 -250.863)" fill="#bf7f4b"/>
  <path id="Path_1275" data-name="Path 1275" d="M305.689,335.571s16.388,24.531,19.577,32.84c0,0-16.429-25.519-19.577-32.84Z" transform="translate(-235.51 -246.219)" fill="#bf7f4b"/>
  <path id="Path_1276" data-name="Path 1276" d="M399.527,309.307s10.007-11.484,30.647-34.387c0,0,7.443-.748,7.954,5.231-3.674,9.047-19.113,31.462-27.585,39.414-1.48,1.39-21.425,15.142-24.972,17.537-5.08-5.937-6.769-9.953-10.319-13.4,2.009-1.555,22.033-12.643,24.275-14.394Z" transform="translate(-245.686 -237.342)" fill="#ea997d"/>
  <path id="Path_1277" data-name="Path 1277" d="M364.335,359.859l2.07-33.663c9.081-1.287,17.238-2.889,23.328-5.135,3.551,3.449,6.38,16.847,5.646,26.8-10.023,2.335-22.015,6.592-31.044,12Z" transform="translate(-244.089 -244.096)" fill="#c98b53"/>
  <path id="Path_1278" data-name="Path 1278" d="M365.5,361.877c4.3-7.316,9.827-15.512,9.91-15.633a.414.414,0,0,0-.092-.561l-.019-.013a.413.413,0,0,0-.573.111c-.336.5-5.757,8.527-9.988,15.748a4.7,4.7,0,0,1,.762.347Z" transform="translate(-244.149 -247.686)" fill="#bf7f4b"/>
  <path id="Path_1279" data-name="Path 1279" d="M436.261,273.49s-4.327-9.042-4.5-11.246-1.831-9.2-1.958-10.192.673-2.089,2.295-.61,3.637,8.04,3.637,8.04l7.853-8.7,6.577,11.535s-.317,9.627-3.334,13.77c-3.732,5.127-10.567-2.594-10.567-2.594Z" transform="translate(-253.664 -233.806)" fill="#ea997d"/>
  <path id="Path_1280" data-name="Path 1280" d="M447.986,264.156a.792.792,0,0,1-.561.969l-10.707,2.844a.791.791,0,0,1-.968-.562l-7.721-29.062a.791.791,0,0,1,.562-.967l10.707-2.845a.791.791,0,0,1,.968.561l7.72,29.062Z" transform="translate(-253.403 -231.434)" fill="#4d4656"/>
  <path id="Path_1281" data-name="Path 1281" d="M449.831,264.2a.741.741,0,0,1-.527.907l-.095.026a.742.742,0,0,1-.908-.527l-7.747-29.157a.742.742,0,0,1,.527-.908l.1-.026a.742.742,0,0,1,.908.527l7.746,29.157Z" transform="translate(-255.236 -231.433)" fill="#403a49"/>
  <path id="Path_1282" data-name="Path 1282" d="M445.955,264.053a.8.8,0,0,1-.585.974l-8.271,2.2a.9.9,0,0,1-1.087-.53L428.6,238.779a.9.9,0,0,1,.68-1l8.272-2.2a.8.8,0,0,1,.99.555l7.416,27.915Z" transform="translate(-253.487 -231.588)" fill="#d9d3e2"/>
  <path id="Path_1283" data-name="Path 1283" d="M449.191,250.386a1.684,1.684,0,0,1-2.1,1.132l-1.907-.57a1.685,1.685,0,0,1-1.132-2.1l.011-.038a1.687,1.687,0,0,1,2.1-1.133l1.906.57a1.686,1.686,0,0,1,1.133,2.1l-.012.039Z" transform="translate(-255.741 -233.351)" fill="#ea997d"/>
  <path id="Path_1284" data-name="Path 1284" d="M450.381,254.865a1.685,1.685,0,0,1-2.1,1.132l-1.907-.57a1.686,1.686,0,0,1-1.133-2.1l.012-.039a1.687,1.687,0,0,1,2.1-1.132l1.907.57a1.686,1.686,0,0,1,1.132,2.1l-.012.039Z" transform="translate(-255.915 -234.006)" fill="#ea997d"/>
  <path id="Path_1285" data-name="Path 1285" d="M451.571,259.345a1.687,1.687,0,0,1-2.1,1.132l-1.907-.57a1.685,1.685,0,0,1-1.132-2.1l.011-.039a1.686,1.686,0,0,1,2.1-1.132l1.906.569a1.687,1.687,0,0,1,1.133,2.1l-.011.039Z" transform="translate(-256.089 -234.661)" fill="#ea997d"/>
  <path id="Path_1286" data-name="Path 1286" d="M452.761,263.824a1.686,1.686,0,0,1-2.1,1.132l-1.906-.57a1.687,1.687,0,0,1-1.133-2.1l.012-.039a1.686,1.686,0,0,1,2.1-1.132l1.906.569a1.687,1.687,0,0,1,1.133,2.1l-.012.039Z" transform="translate(-256.263 -235.317)" fill="#ea997d"/>
  <path id="Path_1287" data-name="Path 1287" d="M359.242,331.543c3.067-13.234-7.111-13.176-5.205-21.428s-2.049-14.45-4.094-19.016-2.727-2.8-5.711-20.157a23.67,23.67,0,0,0-1.695-5.74c-.3,3.334-4.31,9.209-6.824,13.753.732,4.09,6.864,17.219,5.349,28.84-1.647,12.638,6.255,13.2,4.826,21.909s3.448,13.246,4.716,16.5-.624,7.557-.624,7.557a32.029,32.029,0,0,1,6.291-1.155,18.5,18.5,0,0,0,.5-9.343c2.295,3.735,1.188,9.034,1.188,9.034,3.108-.972,4.281-.786,4.281-.786,4.424-9.863-6.063-6.732-3-19.966Z" transform="translate(-239.902 -235.925)" fill="#ff5d54"/>
  <path id="Path_1288" data-name="Path 1288" d="M304.774,280.757c2.544,12.65,13.3,20.11,18.987,22.439,4.467,1.83,4.891,1.752,7.977,1.186,8.126-1.491,12.649-10.789,9.251-28.606-4.1-21.492-12.151-21.829-22.6-19.91-13.575,2.492-16.544,10.307-13.612,24.892Z" transform="translate(-235.226 -234.451)" fill="#ea997d"/>
  <path id="Path_1289" data-name="Path 1289" d="M345.935,278.825a.465.465,0,0,0,.3-.236.738.738,0,0,0-.165-.881c-1.034-.89-3.494-2.694-5.773.217a.743.743,0,0,0-.028.882.477.477,0,0,0,.741.113,3.293,3.293,0,0,1,4.5-.213.477.477,0,0,0,.422.118Z" transform="translate(-240.55 -237.553)" fill="#ff5d54"/>
  <path id="Path_1290" data-name="Path 1290" d="M320.54,282.992a.635.635,0,0,1-.474-1.057c.986-1.1,3.417-3.425,6.952-1.113a.661.661,0,0,1,.281.851.634.634,0,0,1-.852.28,4.575,4.575,0,0,0-5.436.827.636.636,0,0,1-.471.212Z" transform="translate(-237.59 -238.065)" fill="#ff5d54"/>
  <path id="Path_1291" data-name="Path 1291" d="M338.332,295.339a2.03,2.03,0,0,0,1.732-1.262c.648-2.205-1.882-5.106-2.135-5.473-.177-.254-.393-.383-.647-.207s-.082.523.093.778c.832,1.2,1.644,3.563,1.27,4.588a.778.778,0,0,1-.608.5.568.568,0,0,0-.393.687.548.548,0,0,0,.687.393Z" transform="translate(-240.113 -239.306)" fill="#d87e66"/>
  <path id="Path_1292" data-name="Path 1292" d="M342.841,284.267a1.128,1.128,0,1,0,.866-1.467,1.211,1.211,0,0,0-.866,1.467Z" transform="translate(-240.942 -238.497)" fill="#23242b"/>
  <path id="Path_1293" data-name="Path 1293" d="M325.113,287.521a1.127,1.127,0,1,0,.867-1.467,1.212,1.212,0,0,0-.867,1.467Z" transform="translate(-238.348 -238.973)" fill="#23242b"/>
  <path id="Path_1294" data-name="Path 1294" d="M337.581,301.6a6.628,6.628,0,0,0,3.435-1.654.409.409,0,0,0-.58-.576,6,6,0,0,1-6.383,1.01.408.408,0,0,0-.3.761,7.212,7.212,0,0,0,3.825.459Z" transform="translate(-239.578 -240.905)" fill="#ce6565"/>
  <path id="Path_1295" data-name="Path 1295" d="M312.715,288.566s-.282-2.347-3.534-1.45c-3.144.867-1.708,8.593,1.352,9.43s3.681-2.879,3.681-2.879l-1.5-5.1Z" transform="translate(-235.763 -239.101)" fill="#ea997d"/>
  <path id="Path_1296" data-name="Path 1296" d="M327.224,253.474c-6.3-6.23-21.132-1.234-25.036,7.4-7.393,16.356,1.932,19.233-.6,36.968-3.75,26.275,9.94,23.468,7.187,33.67s2.318,14.819,4.129,18.107-.164,7.874-.164,7.874a43.137,43.137,0,0,1,5.319-.976c2.2-2.281.484-8.872.484-8.872a11.792,11.792,0,0,1,1.559,8.5,33.693,33.693,0,0,1,7.431-1.364c3.757-9.136-7.342-7.1-3.879-22.418s-6-20.422-7.339-29.025c-1.109-7.11-.943-21.751-.943-21.751,1.71-4.89,8.691-6.657,8.691-6.657,1.841-3.436,1.595-10.918,1.595-10.918a52.618,52.618,0,0,1,.9,9.89c1.5-.577,5.3-1.76,5.3-1.76,1.707-3.814.7-10.3.7-10.3,5.811,1.9,7.6,11.668,8.579,18.543,0,0,1.94-9.528,1.783-15.584.269-4.4-4.707-8.85-9.676-10.694a17.672,17.672,0,0,0-6.023-.627Z" transform="translate(-234.572 -233.802)" fill="#ff5d54"/>
  <path id="Path_1297" data-name="Path 1297" d="M319.93,409.183s-41.023,5.428-53.421-4.157c-10.178-7.869,12.895-54.8,12.895-54.8a35.368,35.368,0,0,1,6.89,5.958c3.688,4.023,7.072,8.278,7.072,8.278s-11.563,26.9-12.643,29.019c0,0,14.879,2.921,39.395,7.467,0,0,2.336,4.569-.187,8.232Z" transform="translate(-229.4 -248.363)" fill="#ea997d"/>
  <path id="Path_1298" data-name="Path 1298" d="M283.274,340.2c7.384-.747,13.8,11.554,13.8,19.071,0,0-3.816,14.323-7.532,23.5-7.906-.3-19.947-2.509-22.241-8.462,6.726-25.026,15.97-34.107,15.97-34.107Z" transform="translate(-229.895 -246.891)" fill="#c98b53"/>
  <path id="Path_1299" data-name="Path 1299" d="M295.327,382.593a.409.409,0,0,1-.12-.018.4.4,0,0,1-.259-.5l4.416-13.957a.4.4,0,1,1,.755.239L295.7,382.317a.4.4,0,0,1-.376.276Z" transform="translate(-233.936 -250.94)" fill="#bf7f4b"/>
  <path id="Path_1300" data-name="Path 1300" d="M329.41,409.255s11.542-1.946,17.732-2.266c0,0,6.524.58,7.631,3.126a2.3,2.3,0,0,1-.522,2.191,34.293,34.293,0,0,1-3.165,3.4s.643,2.3-2.709,2.816c0,0-.079,1.619-3.977,1.649,0,0-1.059,1.675-4.235,1.121a3.274,3.274,0,0,1-1.589-2.74,13.032,13.032,0,0,1-2.086.275c-.625-.03-5.273,1.449-7.371-1.478a5.484,5.484,0,0,1,.29-8.1Z" transform="translate(-238.693 -256.666)" fill="#ea997d"/>
  <path id="Path_1301" data-name="Path 1301" d="M354.566,416.3a.259.259,0,0,0,.191-.311,31.061,31.061,0,0,0-1.2-3.817,3.84,3.84,0,0,0,.89.192.257.257,0,0,0-.009-.515,5.415,5.415,0,0,1-1.046-.272l-.072-.009c-.463-1.15-.828-1.9-.836-1.915a.257.257,0,0,0-.482.172l.02.055a34.216,34.216,0,0,1,2.232,6.23.259.259,0,0,0,.311.191Z" transform="translate(-242.285 -257.035)" fill="#d87e66"/>
  <path id="Path_1302" data-name="Path 1302" d="M351.026,418.6a.258.258,0,0,0,.513-.048c-.147-1.615-2.2-5.673-2.285-5.845a.257.257,0,0,0-.48.176l.021.057c.021.042,2.092,4.137,2.231,5.659Z" transform="translate(-241.812 -257.482)" fill="#d87e66"/>
  <path id="Path_1303" data-name="Path 1303" d="M347.309,421.037a26.5,26.5,0,0,0-1.619-4.572.258.258,0,0,0-.484.169,30.781,30.781,0,0,1,1.6,4.5s.136.3.332.249a.285.285,0,0,0,.174-.343Z" transform="translate(-241.29 -258.031)" fill="#d87e66"/>
  <path id="Path_1304" data-name="Path 1304" d="M343.372,421.94a9.409,9.409,0,0,0-.9-2.672.258.258,0,0,0-.379-.095c-.267.188-1.129.652-1.138.657a.258.258,0,0,0-.128.287l.024.062a.257.257,0,0,0,.348.105c.029-.015.564-.3.935-.527a7.91,7.91,0,0,1,.727,2.215.257.257,0,1,0,.513-.032Z" transform="translate(-240.649 -258.442)" fill="#d87e66"/>
</svg>
