<?xml version="1.0" encoding="utf-8"?>
<!-- Generator: Adobe Illustrator 25.0.1, SVG Export Plug-In . SVG Version: 6.00 Build 0)  -->
<svg version="1.1" id="Layer_1" xmlns="http://www.w3.org/2000/svg" xmlns:xlink="http://www.w3.org/1999/xlink" x="0px" y="0px"
	 viewBox="0 0 312 1065.1" style="enable-background:new 0 0 312 1065.1;" xml:space="preserve">
<style type="text/css">
	.st0{clip-path:url(#SVGID_2_);}
	.st1{fill:#DDD8CC;}
	.st2{clip-path:url(#SVGID_4_);}
	.st3{fill:#1E1D26;}
	.st4{fill:#5B3D32;}
	.st5{fill:#DFAE8F;}
	.st6{fill:#C6947E;}
	.st7{fill:#263331;}
	.st8{fill:#E5E7EF;}
	.st9{fill:#1BAB9E;}
	.st10{fill:#CDD0DB;}
	.st11{fill:#30423F;}
	.st12{fill:#546B68;}
	.st13{fill:#22232B;}
	.st14{fill:#D7D7E0;}
	.st15{fill:#CD6465;}
	.st16{fill:#30323D;}
</style>
<g id="Layer_2_1_">
	<g id="Layer_1-2">
		<g id="Paul">
			<g>
				<defs>
					<rect id="SVGID_1_" x="16.2" width="279.5" height="1065.1"/>
				</defs>
				<clipPath id="SVGID_2_">
					<use xlink:href="#SVGID_1_"  style="overflow:visible;"/>
				</clipPath>
				<g class="st0">
					<polygon class="st1" points="98.9,990 93,1022.1 66.6,1017.8 69.5,985.9 					"/>
					<g>
						<defs>
							<rect id="SVGID_3_" x="16.2" width="279.5" height="1065.1"/>
						</defs>
						<clipPath id="SVGID_4_">
							<use xlink:href="#SVGID_3_"  style="overflow:visible;"/>
						</clipPath>
						<g class="st2">
							<path class="st3" d="M85.9,1054.3c0,0-5.3,13-20.9,10.5s-12.7-16-12.7-16L85.9,1054.3z"/>
							<path class="st4" d="M55.1,1036.2c3.7-8,12.3-23.7,12.3-23.7c14.1-8.3,22.9-2,26.6,1.8l0,0c0,0,0.9,0,1.6-3.7
								c0,0,0.9,8.4-0.9,12.8l0,0c-0.9,3.6-4.6,7.7-5.2,19c-1,17.1-13.8,21.5-26.9,18.4S51.3,1044.2,55.1,1036.2"/>
							<path class="st3" d="M87.1,1020.3c0.3,0,0.6-0.1,0.9-0.2c0.5-0.2,0.7-0.8,0.4-1.3c-0.1-0.1-0.1-0.2-0.2-0.3
								c-0.2-0.2-6.2-5.9-17.7-2.8c-0.6,0.1-1,0.6-1,1.2c0,0.1,0,0.2,0.1,0.3c0.4,0.6,1.1,0.9,1.9,0.7c9.6-2.6,14.4,2,14.4,2
								C86.2,1020.2,86.6,1020.3,87.1,1020.3"/>
							<path class="st3" d="M84.9,1026c0.3,0,0.6-0.1,0.9-0.3c0.5-0.2,0.7-0.8,0.4-1.3c-0.1-0.1-0.1-0.2-0.2-0.3
								c-0.2-0.2-6.2-5.9-17.7-2.8c-0.8,0.2-1.2,0.9-0.9,1.4c0.4,0.6,1.1,0.9,1.9,0.7c9.6-2.6,14.4,2,14.4,2
								C84.1,1025.9,84.5,1026,84.9,1026"/>
							<path class="st3" d="M82.7,1031.7c0.3,0,0.6-0.1,0.9-0.2c0.5-0.2,0.7-0.8,0.4-1.3c-0.1-0.1-0.1-0.2-0.2-0.3
								c-0.2-0.2-6.2-5.9-17.7-2.8c-0.8,0.2-1.2,0.9-0.9,1.4c0.4,0.6,1.1,0.9,1.9,0.7c9.6-2.6,14.4,2,14.4,2
								C81.9,1031.5,82.3,1031.7,82.7,1031.7"/>
							<polygon class="st1" points="205.1,987.9 204.7,1020.4 175.3,1020.4 174.8,987.9 							"/>
							<path class="st3" d="M171.7,1030.1l0.6,8c5.2,3,11.2,4.5,17.2,4.3c0,0,9.3-3.3,14.5,1.3c9.8,8.6,41.5,15.4,44.7,3.9
								L171.7,1030.1z"/>
							<path class="st4" d="M172.7,1010.7c0,0-3.9,18.7-0.7,21.4c3.2,2.7,23.8,6.1,34.2,11.4c10.4,5.3,41.8,11.2,43.2,2.2
								c1.5-9-11.4-14.6-20.1-18c-8.7-3.4-17.5-15.5-22.1-17c0,0-2.5-2.1-11.9,4.4C190.5,1018.3,178,1008,172.7,1010.7"/>
							<path class="st3" d="M204.6,1020.9c0.5,0,0.9-0.2,1.2-0.5c1.8-2.5,4.6-4.1,7.6-4.4c0.8,0,1.5-0.6,1.5-1.4
								c0-0.8-0.6-1.5-1.4-1.5c-0.1,0-0.1,0-0.2,0c-3.9,0.4-7.5,2.4-9.8,5.6c-0.5,0.6-0.4,1.6,0.3,2
								C204,1020.9,204.3,1021,204.6,1020.9"/>
							<path class="st3" d="M209.7,1026c0.4,0,0.9-0.2,1.2-0.6c1.8-2.5,4.6-4.1,7.6-4.4c0.8,0,1.4-0.7,1.4-1.5
								c0-0.8-0.7-1.4-1.5-1.4c0,0,0,0,0,0c-3.9,0.4-7.5,2.4-9.8,5.6c-0.5,0.6-0.4,1.6,0.3,2C209.1,1025.9,209.4,1026,209.7,1026"/>
							<path class="st3" d="M214.1,1030.4c0.5,0,0.9-0.2,1.2-0.6c1.8-2.5,4.6-4.1,7.6-4.4c0.8,0,1.5-0.6,1.5-1.4s-0.6-1.5-1.4-1.5
								c-0.1,0-0.1,0-0.2,0c-3.9,0.4-7.5,2.4-9.8,5.6c-0.5,0.6-0.4,1.5,0.2,2c0,0,0,0,0,0C213.5,1030.3,213.8,1030.4,214.1,1030.4"
								/>
							<path class="st5" d="M177.8,118.4c0,0-1.7,40.6,0,47.3s18,17.4,34.6,25.2c0,0-21.4,29.2-63.2,28.3s-52.4-18.2-59.1-27.7
								c0,0,31.9-11,32.7-24.6c0.8-13.6,0-48.5,0-48.5L177.8,118.4z"/>
							<path class="st6" d="M150.7,156.7c-13.2,0-22.4-8.7-27.6-15.8c-0.1-12-0.3-22.5-0.3-22.5h55c0,0-0.5,10.4-0.7,21.9
								C172.7,147.5,164.2,156.7,150.7,156.7"/>
							<path class="st7" d="M107.4,997.1c2.9-32.4,41.1-355.9,44.4-396.3c0,0,4.5,334.6,13.4,396.3H216
								c5.3-115.8,33.4-430.9,27.8-524.9H59.5c0,0-0.1,399.4-0.5,524.9L107.4,997.1z"/>
							<path class="st8" d="M119.7,176.8c0,0,29.1,21.1,65.8,0c0,0,49.8,27.8,69.7,40c0,0-7.4,196.5-11.4,255.4
								c0,0-96.4,12.1-184.3,0c0,0-11.5-245.7-10.7-255.4C48.8,216.8,90.8,190.2,119.7,176.8"/>
							<path class="st9" d="M168.4,194.4l-7.6,13.3c0,0,27.3,146.8,15.7,232.7l-28.8,11.4c0,0-12.9-143.1,1.7-243.7l-8-12.3l13-15.2
								L168.4,194.4z"/>
							<polygon class="st10" points="120.7,158.3 154.5,180.6 180.5,160.8 188.2,177.1 170.1,198.2 154.4,182.8 140.1,200.1 
								114.4,179.2 							"/>
							<path class="st11" d="M187.6,173.9c0,0,17.8,174.9,20.4,300.2c0,0,1.6,73.2,17.2,78.2c15.5,5,52.6-1.1,54.2-8.5
								c1.5-7.5-22.6-85.8-23.9-113.8c-1.3-28,9.5-209.8,9.5-209.8s-22.7-19-58.6-33.2c-0.6-1.5-1.2-2.9-2-4.3
								c-0.9-1.4-16.4-10.9-16.7-8.7"/>
							<path class="st12" d="M208.3,360.5c0.4,0,0.7-0.2,0.9-0.5c20.2-39.9,19.2-110,19.2-110.7v-0.4l-18.4-16l14-10.4L210.1,190
								c-0.2-0.5-0.8-0.7-1.3-0.5c-0.5,0.2-0.7,0.8-0.5,1.3c0,0,0,0,0,0l13.3,31l-14.7,11l19.7,17c0.1,6,0.2,71.5-18.9,109.3
								c-0.3,0.5-0.1,1.1,0.4,1.3C208.1,360.5,208.2,360.5,208.3,360.5"/>
							<path class="st11" d="M115,173.9c0,0-17.8,174.9-20.4,300.2c0,0-1.6,73.2-17.2,78.2c-15.5,5-52.6-1.1-54.2-8.5
								c-1.5-7.5,22.6-85.8,23.9-113.8c1.3-28-9.5-209.8-9.5-209.8s22.7-19,58.6-33.2c0.6-1.5,1.2-2.9,2-4.3
								C99.1,181.4,114.6,171.8,115,173.9"/>
							<path class="st12" d="M94.2,360.5c-0.4,0-0.7-0.2-0.9-0.5c-20.2-39.9-19.2-110-19.2-110.7v-0.4l18.4-16l-14-10.4l13.9-32.5
								c0.2-0.5,0.7-0.8,1.3-0.7c0.5,0.2,0.8,0.7,0.7,1.3c0,0.1,0,0.1-0.1,0.2l-13.3,31.1l14.7,11l-19.7,17
								c-0.1,6-0.2,71.5,18.9,109.3c0.3,0.5,0.1,1.1-0.4,1.3C94.6,360.5,94.4,360.5,94.2,360.5"/>
							<path class="st11" d="M293.8,328.2c-14.4-88.2-28.9-108.1-28.9-108.1c-25.2,17.8-20.1,114.3-20.1,114.3l-45.7-2.2l-1.8-7
								c-8.6,2.3-8,2.1-23.6,6l-39.8-9l-3.9,17.1c-20.5,2.5-38.8,3.9-38.8,3.9C63,249.6,37.6,220.2,37.6,220.2
								c-21.8,13.3-22,55.9-21.1,73.8c5.9,114.7,59.5,112.3,64.1,112.6c26.8,2.1,95.5-21.6,95.5-21.6s64.2,18.8,73.9,18.8
								C259.7,403.7,305.8,401.7,293.8,328.2"/>
							<path class="st5" d="M122.3,326.8c0,0-23.4-9.9-39.3-10l8.1,26.7c0,0,18.6,5.5,26.4,5.5C117.5,349,122.3,336.8,122.3,326.8"
								/>
							<polygon class="st8" points="116.3,351.7 122,324.4 133,327.3 128.5,353.5 							"/>
							<path class="st5" d="M208.9,325.2c0,0,12.5-20.2,30.6-25.5c0,0,17.3-12.3,26.2-0.5c-0.1,1.6-1.6,2.8-3.2,2.7
								c-0.1,0-0.2,0-0.2,0c-2.5-0.4-9.2-4.6-18.9,6.4c0,0,13.7-4,21.9,1.6c0.9,0.9,1.2,2.3,0.8,3.5c-1.9,5.3-4.1,10.5-6.7,15.4
								c-1.2,0.2-2.3,0.2-3.5,0c-1.3-0.4-9.8,0.5-12.5,2c0,0-5.2,3.7-6.2,3.6l-27.2-1.8C209,330.3,208.6,327.7,208.9,325.2"/>
							<polygon class="st8" points="197.9,327.4 208.3,325.1 211.9,333 199.1,332.2 							"/>
							<path class="st12" d="M81.2,313.3c-0.5,0-0.9-0.3-1-0.8c-8-34.7-34.2-78.1-34.5-78.5c-0.3-0.5-0.1-1.1,0.3-1.4
								c0.5-0.3,1.1-0.1,1.4,0.3l0,0c0.3,0.4,26.6,44.1,34.7,79.1c0.1,0.5-0.2,1.1-0.7,1.2L81.2,313.3"/>
							<path class="st12" d="M243.8,295L243.8,295c-0.6,0-1-0.5-1-1.1c0.1-1.9,3.3-46.1,10.3-63.9c0.2-0.5,0.8-0.8,1.3-0.6
								c0.5,0.2,0.8,0.8,0.6,1.3l0,0c-6.9,17.4-10.2,62.8-10.2,63.3C244.7,294.6,244.3,295,243.8,295"/>
							<path class="st12" d="M81.9,408.6c-23.1,0-33.9-16.3-34-16.5c-0.3-0.5-0.1-1.1,0.4-1.4c0.5-0.3,1-0.1,1.3,0.3
								c0.1,0.2,13.9,21,44.1,14.2c0.5-0.2,1.1,0.1,1.2,0.7s-0.1,1.1-0.7,1.2c0,0-0.1,0-0.1,0C90.1,408.1,86,408.6,81.9,408.6"/>
							<path class="st12" d="M171.5,384c-0.1,0-0.2,0-0.3,0l-46.9-12.3l2.7-16.3c0.1-0.5,0.6-0.9,1.2-0.8c0.5,0.1,0.9,0.6,0.8,1.2
								l-2.3,14.4l45.1,11.9c0.5,0.1,0.9,0.7,0.7,1.2C172.4,383.8,172,384.1,171.5,384"/>
							<path class="st12" d="M252.8,404.1L252.8,404.1c-16.5-1.4-44.6-8.7-45.8-9.1c-0.6-0.2-0.8-0.8-0.7-1.4
								c0.2-0.5,0.7-0.9,1.2-0.8c0.3,0.1,29,8.4,45.3,8.6c0.6,0,1,0.7,1,1.3C253.8,403.4,253.3,404.1,252.8,404.1"/>
							<path class="st12" d="M275.8,346c-0.3,0-0.6-0.1-0.7-0.3c-8.8-9.8-34.1-10.2-34.4-10.2c-0.6,0-1-0.2-1-0.7s0.5-0.7,1-0.7l0,0
								c1.1,0,26.4,0.2,35.8,10.7c0.3,0.3,0.3,0.9,0,1.2c0,0-0.1,0.1-0.1,0.1C276.2,346.1,276,346,275.8,346"/>
							<path class="st12" d="M69.1,346c-0.6,0-1-0.4-1-1c0-0.4,0.2-0.8,0.6-0.9c10.2-4.6,20.3-1.2,20.8-1.1c0.5,0.2,0.8,0.8,0.6,1.3
								c-0.2,0.5-0.8,0.8-1.3,0.6c-0.1,0-9.9-3.3-19.3,1C69.3,345.9,69.2,345.9,69.1,346"/>
							<path class="st5" d="M112.5,77.9c0,0-2.3-6.6-11.2-5.9c-8.6,0.8-5.7,22.8,1.9,26.5s10.1-7.3,10.1-7.3L112.5,77.9z"/>
							<path class="st5" d="M187.8,77.9c0,0,2.3-6.6,11.2-5.9c8.6,0.8,5.7,22.8-1.9,26.5c-7.6,3.6-10.1-7.3-10.1-7.3L187.8,77.9z"/>
							<path class="st5" d="M195.2,76.2c-3.8,47.3-17,69.9-45,69.9s-41.4-18.7-45-69.9c-2.7-37.8,17.1-61.2,45-61.2
								S198.4,36.9,195.2,76.2"/>
							<path class="st13" d="M130.9,83.8c-0.2,1.6-1.6,2.7-3.2,2.5c-1.6-0.2-2.7-1.6-2.5-3.2c0.2-1.4,1.4-2.5,2.8-2.5
								C129.8,80.7,131,82.1,130.9,83.8"/>
							<path class="st13" d="M174,83.8c-0.2,1.6-1.6,2.6-3.2,2.4c-1.6-0.2-2.6-1.6-2.4-3.2c0.2-1.4,1.4-2.5,2.8-2.5
								C172.8,80.7,174.1,82.1,174,83.8"/>
							<path class="st14" d="M118.5,73.5c-0.9,0-1.7-0.8-1.7-1.7c0-0.4,0.2-0.8,0.4-1.1c2.6-2.9,9.1-9,18.4-2.9
								c0.8,0.4,1.1,1.4,0.7,2.3c-0.4,0.8-1.4,1.2-2.3,0.7c-4.7-2.6-10.6-1.7-14.4,2.1C119.4,73.3,119,73.5,118.5,73.5"/>
							<path class="st14" d="M182.9,73.5c0.4,0,0.8-0.2,1.1-0.4c0.7-0.6,0.7-1.7,0.1-2.4c-2.6-2.9-9.1-9-18.4-2.9
								c-0.8,0.5-1.1,1.4-0.7,2.3c0.4,0.8,1.4,1.2,2.2,0.7c4.7-2.6,10.6-1.7,14.4,2.1C182,73.3,182.4,73.5,182.9,73.5"/>
							<path class="st6" d="M149.5,111.1c-2.4-0.1-4.3-0.7-5.1-2.5c-2.7-5.4,2.5-14.2,2.9-15.3c0.3-0.8,0.8-1.2,1.6-0.9
								s0.5,1.3,0.1,2.1c-1.6,3.5-2.6,10.1-1.1,12.5c0.4,0.6,1.1,1,1.8,1c0.8,0.1,1.4,0.8,1.4,1.6
								C151.1,111.1,149.6,111.1,149.5,111.1"/>
							<path class="st15" d="M149.6,126.6c-4.6,0-9.1-1.3-13-3.8c-0.6-0.5-0.8-1.4-0.3-2c0.5-0.6,1.4-0.8,2-0.3l0,0
								c0.4,0.3,10.4,7.3,22.9-0.1c0.7-0.4,1.6-0.3,2,0.4c0.4,0.7,0.3,1.6-0.4,2c0,0-0.1,0.1-0.1,0.1
								C158.8,125.2,154.2,126.5,149.6,126.6"/>
							<path class="st14" d="M104.4,78.9c0,0,2.7,27.4,6.5,39.2c3.8,11.8,9.5,29.7,38.9,29.7s36.4-21.9,38.9-29.6
								c3.2-9.6,6.1-26.6,7-39.3l0.5-6.1c0,0-7.4,38.3-14.7,51.8s-28.1,13.2-31.4,13.2s-26.6-0.4-31.8-13.2
								c-6.6-16.6-10.8-34-12.3-51.8L104.4,78.9z"/>
							<path class="st14" d="M149,112.2c0,0-19.2-1.3-21.2,7c-1,4.6-2.8,8.9-5.5,12.8l9.5,5c0,0-0.7-17,4.5-18.3s23.1-1.5,26.9,0.1
								c3.8,1.6,3.6,18.2,3.6,18.2l9.9-5.3c0,0-5.5-8.3-6.8-12.6C167.9,112.9,160.1,111.3,149,112.2"/>
							<path class="st6" d="M146.2,61.2h-0.7c-2.9-0.1-16.7-0.5-16.8-0.5c-0.3,0-0.5-0.2-0.5-0.5c0-0.3,0.2-0.5,0.5-0.5c0,0,0,0,0,0
								c0.1,0,13.9,0.4,16.8,0.5c1.1,0,4.5-0.1,8.5-0.2c6.4-0.2,14.3-0.5,17.7-0.3c0.3,0,0.5,0.2,0.5,0.5c0,0,0,0,0,0
								c0,0.3-0.2,0.5-0.5,0.5c-3.3-0.2-11.2,0.1-17.6,0.3C150.6,61.1,147.7,61.2,146.2,61.2"/>
							<path class="st6" d="M116.4,90.8c-0.3,0-0.5-0.2-0.5-0.5c0-0.2,0.1-0.4,0.4-0.5c2.3-0.7,4.7-1.2,7.1-1.4
								c0.3,0,0.5,0.2,0.5,0.5c0,0.3-0.2,0.5-0.5,0.5c-2.3,0.2-4.6,0.6-6.8,1.3C116.5,90.8,116.5,90.8,116.4,90.8"/>
							<path class="st6" d="M182.7,90.3h-0.1c-2.1-0.5-6.2-0.8-6.2-0.9c-0.3,0-0.5-0.3-0.5-0.5c0,0,0,0,0,0c0-0.3,0.3-0.5,0.6-0.4
								c0.2,0,4.1,0.4,6.3,0.9c0.3,0.1,0.4,0.3,0.4,0.6C183.1,90.2,182.9,90.3,182.7,90.3"/>
							<path class="st14" d="M101,73c0,0-7.3-44.9,13.4-60.7s50.7-17,64.2,0.3c0,0,20.4-1,22.4,21.3c1.7,19.6-2,39.1-2,39.1
								c-1.1,2.4-2.2,4.8-3.1,7.3c0,0-5.4-35.1-20.2-43.8C164.1,48,149.3,56,133.2,59.3c0,0,2-3,3.7-5.3c0,0-11.8,9.8-20.4,11.6
								c-10.1,2.1-12.5,13.2-12.4,14.8L101,73z"/>
							<path class="st16" d="M112.7,81.8v9.4c0,1.7,1.5,2.5,3.3,2.5h24.3c1.7,0,2.6-0.8,2.6-2.5v-10c4.7-0.6,9.5-0.6,14.2,0.2v9.8
								c0,1.7,1.8,2.5,3.5,2.5h24.3c1.7,0,3-0.8,3-2.5V82l9.3-1.9l-0.7-3l-8.6,1.7V78c0-1.6-1.3-2.9-2.9-2.8c0,0-0.1,0-0.1,0h-24.3
								c-1.7,0-3.5,1.2-3.5,2.8v0.3c-4.7-0.7-9.5-0.7-14.2-0.1V78c0.2-1.4-0.8-2.7-2.2-2.8c-0.1,0-0.3,0-0.4,0h-24.3
								c-1.7-0.1-3.1,1.2-3.3,2.8v0.7l-9.1-1.7l-0.5,3L112.7,81.8z M185.3,90.8c0,0.6-0.4,1-1,1.1h-24.5c-0.6,0-1.1-0.5-1.1-1.1
								V78.1c0-0.6,0.5-1.1,1.1-1.1h24.5c0.6,0,1,0.5,1,1.1V90.8z M141,90.8c0,0.6-0.5,1.1-1.1,1.1h-24.5c-0.6,0-1-0.5-1-1.1V78.1
								c0-0.6,0.4-1,1-1.1h24.5c0.6,0,1.1,0.5,1.1,1.1V90.8z"/>
						</g>
					</g>
				</g>
			</g>
		</g>
	</g>
</g>
</svg>
