<?xml version="1.0" encoding="utf-8"?>
<!-- Generator: Adobe Illustrator 25.0.1, SVG Export Plug-In . SVG Version: 6.00 Build 0)  -->
<svg version="1.1" id="Layer_1" xmlns="http://www.w3.org/2000/svg" xmlns:xlink="http://www.w3.org/1999/xlink" x="0px" y="0px"
	 viewBox="0 0 361.2 1065.1" style="enable-background:new 0 0 361.2 1065.1;" xml:space="preserve">
<style type="text/css">
	.st0{clip-path:url(#SVGID_2_);}
	.st1{clip-path:url(#SVGID_4_);}
	.st2{fill:#BF8864;}
	.st3{fill:#A56F48;}
	.st4{fill:#D9EFF9;}
	.st5{fill:#70D9E5;}
	.st6{fill:#9B9BA7;}
	.st7{fill:#CACAD3;}
	.st8{fill:#23242B;}
	.st9{fill:#333438;}
	.st10{fill:#BF4545;}
	.st11{fill:#4D4C4C;}
</style>
<g id="Layer_2_1_">
	<g id="Layer_1-2">
		<g id="Richa">
			<g>
				<defs>
					<rect id="SVGID_1_" x="0.7" width="359.8" height="1065.1"/>
				</defs>
				<clipPath id="SVGID_2_">
					<use xlink:href="#SVGID_1_"  style="overflow:visible;"/>
				</clipPath>
				<g class="st0">
					<g>
						<defs>
							<rect id="SVGID_3_" x="0.7" width="359.8" height="1065.1"/>
						</defs>
						<clipPath id="SVGID_4_">
							<use xlink:href="#SVGID_3_"  style="overflow:visible;"/>
						</clipPath>
						<g class="st1">
							<path class="st2" d="M167.6,158.6c0,0,1.6,32.4,0,37.6c-1.6,5.2-16.4,13.9-31.5,20c0,0,16.8,65.4,54.9,64.7
								c38.1-0.7,47.8-56.7,53.8-64.1c0,0-26.4-9.1-27.1-19.7s0-38.5,0-38.5L167.6,158.6z"/>
							<path class="st3" d="M192.3,189.5c12,0,20.4-7.2,25.1-12.8c0.1-9.5,0.3-18.1,0.3-18.1h-50.1c0,0,0.4,8.6,0.6,17.7
								C172.2,181.9,179.9,189.4,192.3,189.5"/>
							<path class="st4" d="M136.1,215.2c0,0-32.7,14.2-51.1,24.6c0,0,29.6,132.8,31.3,158.8c0,0,66.3,20,141.3,0
								c0,0,27.7-135.8,34.6-158.7c0,0-23.3-16.8-49-24.6c0,0-22.5,24.6-52.8,63.1C190.4,278.2,157.6,236.4,136.1,215.2"/>
							<path class="st5" d="M212.6,335.1c0,0,34.4-3.2,50.7-22.5C263.3,312.7,254.7,339.1,212.6,335.1"/>
							<path class="st5" d="M181.2,286.5c0,0-29.7-41.9-45.1-61.4C136.1,225.1,164.5,269,181.2,286.5"/>
							<path class="st5" d="M141.4,335.5c0,0-27.1-15.4-37.8-37.4C103.7,298.1,112.3,327.4,141.4,335.5"/>
							<polygon class="st2" points="233.8,853.4 276.4,1024.8 303.8,1021.6 291,845.4 							"/>
							<path class="st6" d="M288.6,1056.5c0,0,6.8,11.6,23.1,8c16.3-3.6,12-15.6,12-15.6L288.6,1056.5z"/>
							<path class="st7" d="M319.7,1037.4c-4.7-7-15.9-20.7-15.9-20.7c-15.7-6.5-24.4-0.5-28.3,3.3c0,0-0.3-1.2-0.9-3.8
								c0,0-0.4,8.4,1.9,11.2l0,0c1.3,4.2,5.6,7.3,7.3,17.7c2.6,15.7,16.5,18.9,30.2,15.1C327.7,1056.4,324.4,1044.4,319.7,1037.4"
								/>
							<polygon class="st2" points="126.8,849.8 155.3,1026.5 183.7,1025.5 185.5,849.8 							"/>
							<path class="st6" d="M187.6,1034.5l-0.6,7.4c-5.7,2.8-12,4.1-18.3,3.9c0,0-9.8-3.1-15.4,1.1c-10.4,7.9-44.1,14.2-47.6,3.6
								L187.6,1034.5z"/>
							<path class="st7" d="M186.6,1016.6c0,0,4.1,17.2,0.8,19.7c-3.4,2.5-25.3,5.6-36.4,10.5c-11.1,4.9-44.4,10.3-46,2
								c-1.6-8.3,12.2-13.4,21.5-16.5s18.6-14.3,23.5-15.6c0,0,2.6-1.9,12.6,4C167.7,1023.7,181,1014.2,186.6,1016.6"/>
							<path class="st4" d="M116.3,399.3c0,0-58.5,152.6-60.2,503c0,0,20.8,11.8,62.3,10.3c41.6-1.5,119.3,4.7,141.8,0
								c22.5-4.7,79.6-4.3,100.3-16.3c0,0-49.9-390-102.9-497.1L116.3,399.3z"/>
							<path class="st5" d="M129.1,437.5c0,0-19.1,76.4-24.3,110.3C104.8,547.8,128.7,467.8,129.1,437.5"/>
							<path class="st2" d="M13.1,363.9c0,0,28.3-10.5,57.1-41.4l-26.3-34.9C43.9,287.5-27.3,329.9,13.1,363.9"/>
							<path class="st4" d="M85,239.7c0,0-28.9,24.3-58.6,52.5c0,0,20.4,40.7,21,44.9c1.5,12.3,6.5,15.4,10.2,17.3l44.9-33.6
								C102.4,320.8,104.3,262.4,85,239.7"/>
							<path class="st2" d="M107.1,432.3c0,0-59.1-136-100.1-103.1C-26.7,356.2,86.1,454,86.1,454L107.1,432.3z"/>
							<path class="st5" d="M91.9,272.7c4.8,21,8.6,45.7,8.7,46.1c0.1,0.6,0.7,1,1.3,0.9h0.1c0.6-0.1,1-0.5,1-1.1
								c-0.2-1.5-4-25.7-8.7-46.5C93.5,272.4,92.7,272.6,91.9,272.7"/>
							<path class="st2" d="M333,396.4c0,0,6.5,22.1,5.9,127.8c0,0-10.5,7.5-26.2,0.8c-2.4-13.6-11.6-60.1-21.8-118.2
								c-0.9-5.1-12.5-66-13.1-76.8c22.5-3.2,29.9-2.7,43.8-5.9C322.4,330.5,332,389.2,333,396.4"/>
							<path class="st4" d="M292.2,239.8c0,0,15.9,9.3,23.7,34.6c7.9,25.5,11,43.5,16,60.6c-13.9,3.2-35,36.7-59.9,37.4
								C269.5,329.5,277.3,259.6,292.2,239.8"/>
							<path class="st2" d="M338.7,534.1c0,0,0.3,28-9.8,45.8c-3.8,6.7-5.1,12-13.7,13.7c0,0-10.5,2.8-13.8,1.7c0,0-1.5-2.8,2.1-5.5
								c3.6-2.7,11.5-4.7,11.7-10.2c0.2-4.4,1.9-20-1.1-19.1s-7.9,20.1-14.3,18.7c0,0-1.7-0.3-1.3-6.1c0.4-5.8,5.3-28.1,7.6-32
								c2.3-3.9,6.7-16.1,6.7-16.1s15.8-11.5,26.2-0.8L338.7,534.1z"/>
							<path class="st5" d="M274,325c1.1-21.4,4.2-46.2,4.2-46.6c0-0.6-0.4-1.1-1-1.1h-0.1c-0.6-0.1-1.2,0.3-1.3,0.9c0,0,0,0,0,0
								c-0.2,1.5-3.2,25.8-4.3,46.9C272.4,325,273.2,325,274,325"/>
							<path class="st5" d="M219.7,403.3h-0.2c-52.3-7.4-100.8-2.6-101.3-2.6c-0.7,0-1.2-0.5-1.2-1.2c0-0.6,0.4-1.1,1-1.2
								c0.5,0,49.2-4.8,101.8,2.6c0.7,0.1,1.1,0.8,1,1.4C220.7,402.9,220.3,403.3,219.7,403.3"/>
							<path class="st5" d="M203.1,417.7c-51.6,0-88.1-11.3-88.5-11.5c-0.6-0.2-0.9-0.9-0.7-1.5c0.2-0.6,0.8-0.9,1.4-0.7
								c0.4,0.1,42,13,99.2,11.2c0.7,0,1.2,0.5,1.2,1.2c0,0.7-0.5,1.2-1.2,1.2C210.7,417.7,206.9,417.7,203.1,417.7"/>
							<path class="st5" d="M136.9,422.2c-12.5,0-21.8-0.4-22-0.4c-0.6,0-1.1-0.5-1.1-1.1c0,0,0-0.1,0-0.1c0-0.7,0.6-1.2,1.2-1.1
								c0.4,0,42,1.9,66-2.4c0.6-0.1,1.3,0.3,1.4,1c0.1,0.6-0.3,1.3-1,1.4l0,0C168.7,421.7,150.9,422.2,136.9,422.2"/>
							<path class="st5" d="M233.2,418.6c-0.5,0-0.9-0.1-1.4-0.3c-3.2-1.2-4.5-6.5-4.7-7.1c-1.6-5.3-1.4-9.1,0.5-11.2
								c1.3-1.3,3.1-1.9,4.9-1.7c0.7,0.1,1.1,0.7,1,1.4c-0.1,0.7-0.7,1.1-1.4,1l0,0c-1-0.1-2,0.2-2.7,0.9c-1.2,1.4-1.2,4.6,0,8.9
								c0.5,1.9,1.7,4.9,3.3,5.5c0.6,0.2,1.4,0.1,1.9-0.4c0.5-0.4,1.3-0.2,1.7,0.3s0.2,1.3-0.3,1.7
								C235.1,418.2,234.1,418.6,233.2,418.6"/>
							<path class="st5" d="M243.4,419.4h-0.1c-0.7,0-1.2-0.5-1.3-1.2c0-0.7,0.5-1.2,1.2-1.3l0,0c1.1-1.6,0.9-11.6,0.8-15
								c0-1.1,0-1.9,0-2.6c0-0.2,0-0.3-0.2-0.5c-1.1-0.8-4.6-0.2-7.2,0.6l0.9,6.8c0.1,0.7-0.4,1.2-1,1.3c-0.7,0.1-1.2-0.4-1.3-1
								l-1.1-8.7l0.9-0.3c1.3-0.4,7.7-2.4,10.3-0.5c0.8,0.5,1.2,1.4,1.2,2.4c0,0.6,0,1.5,0,2.5c0.2,9.7,0,15.3-1.7,16.9
								C244.4,419.2,243.9,419.4,243.4,419.4"/>
							<path class="st5" d="M227.7,502c-2,0-3.7-2.1-5.8-4.7c-2.9-3.6-6.6-8-11.8-8.5c-4.4-0.4-7.7-2-9.7-4.6
								c-1.7-2.4-2.5-5.4-2.1-8.4c3.9-35.8,24.6-72.4,24.8-72.7c0.3-0.6,1.1-0.8,1.6-0.4c0.6,0.3,0.8,1.1,0.4,1.6
								c-0.2,0.4-20.7,36.5-24.5,71.9c-0.3,2.4,0.3,4.7,1.6,6.7c1.6,2.1,4.3,3.3,8,3.7c6.2,0.6,10.3,5.7,13.4,9.4
								c1.5,1.8,3.3,4,4.1,3.8c0.2,0,1.1-0.4,2.3-4.4c4.5-14.5,1.6-75,1.6-75.6c0-0.7,0.5-1.2,1.1-1.2c0.7,0,1.2,0.5,1.2,1.1
								c0.1,2.5,2.9,61.5-1.7,76.4c-1.2,3.9-2.4,5.7-4.1,6C228,502,227.9,502,227.7,502"/>
							<path class="st5" d="M227.2,496.2c-0.2,0-0.3,0-0.5-0.1c-7.8-3.3-7.6-29,0.6-76.5c0.2-1.1,0.4-2.2,0.4-2.4
								c0-0.6,0.5-1.1,1.1-1.1c0,0,0,0,0.1,0c0.6,0,1.1,0.6,1.1,1.2c0,0.2,0,0.4-0.4,2.7c-10.9,62.9-5,72.6-2,73.9
								c0.6,0.1,1,0.7,0.9,1.4C228.4,496,227.8,496.4,227.2,496.2"/>
							<path class="st5" d="M262,502.1c-0.4,0-0.8-0.1-1.2-0.3c-7.6-4.4-15.2-71-16.7-84.3c-0.1-0.6,0.3-1.2,0.9-1.3
								c0,0,0.1,0,0.1,0c0.7-0.1,1.2,0.4,1.3,1.1c0,0.2,2.3,20.6,5.4,41c5.9,38.5,9.5,41.4,10.2,41.5c4.5-2,6.7-6.8,8.5-10.7
								c1.1-2.4,2-4.4,3.3-5.4c2.8-2.3,5.7-6.9,3.5-16.1c-2.6-10.6-16.6-50.8-30.5-66.6c-0.4-0.5-0.4-1.3,0.1-1.7
								c0.5-0.4,1.2-0.4,1.6,0c0,0,0.1,0.1,0.1,0.1c14.1,16,28.4,56.8,31,67.6c2.7,11-1.6,16.3-4.3,18.5c-0.8,0.7-1.7,2.5-2.6,4.5
								c-1.9,4-4.4,9.5-9.7,11.9C262.7,502.1,262.4,502.1,262,502.1"/>
							<path class="st5" d="M262.5,468.5c-0.6,0-1-0.4-1.1-1c-3.7-23.2-15.1-52.6-15.2-52.9c-0.2-0.6,0.1-1.3,0.7-1.5c0,0,0,0,0,0
								c0.6-0.3,1.2,0,1.5,0.6c0,0,0,0.1,0,0.1c0.1,0.3,11.6,30,15.3,53.4c0.1,0.6-0.3,1.3-1,1.4L262.5,468.5"/>
							<path class="st2" d="M239.1,114.6c-3.8,47.4-22,70.3-45.2,70.3s-41.5-18.8-45.2-70.3c-2.7-38,17.2-61.4,45.2-61.4
								S242.3,75.2,239.1,114.6"/>
							<path class="st8" d="M172.1,125.4c0,2.3-1.3,4.1-2.8,4.1c-1.6,0-2.8-1.8-2.8-4.1c0-2.3,1.3-4.1,2.8-4.1
								S172.1,123.1,172.1,125.4"/>
							<path class="st8" d="M220.4,125.4c0,2.3-1.3,4.1-2.8,4.1c-1.6,0-2.8-1.8-2.8-4.1c0-2.3,1.3-4.1,2.8-4.1
								S220.4,123.1,220.4,125.4"/>
							<path class="st9" d="M159.3,114.4c-0.4,0-0.8-0.2-1.1-0.5c-0.6-0.7-0.6-1.7,0.1-2.4c0,0,0,0,0,0c2.9-2.7,9.8-8.3,18.7-1.4
								c0.7,0.5,1,1.5,0.6,2.3c-0.5,0.8-1.4,0.8-2.3,0.6c-4.8-1.1-9.9-0.8-14.6,1C160.2,114.2,159.8,114.4,159.3,114.4"/>
							<path class="st9" d="M228.7,114.8c0.4,0,0.8-0.2,1.1-0.5c0.7-0.6,0.7-1.7,0.1-2.4c-2.7-2.9-9.3-8.8-18.6-2.4
								c-0.8,0.5-1.1,1.4-0.7,2.3c0.4,0.8,1.4,0.9,2.3,0.7c4.9-1.1,10-0.5,14.5,1.8C227.7,114.6,228.2,114.8,228.7,114.8"/>
							<path class="st3" d="M193.3,149.6c-2.4-0.1-4.2-0.7-5.1-2.5c-2.8-5.5,2.5-14.2,3-15.3c0.3-0.7,0.8-1.1,1.6-0.9
								c0.7,0.3,0.5,1.3,0.1,2.1c-1.6,3.5-2.6,10.1-1.1,12.6c0.4,0.6,1.1,1,1.8,1c0.8,0.1,1.4,0.8,1.4,1.6
								C194.8,149.1,194.1,149.7,193.3,149.6C193.3,149.6,193.3,149.6,193.3,149.6"/>
							<path class="st10" d="M192.3,162.2c-3.9,0-7.6-1.1-10.8-3.2c-0.5-0.4-0.7-1.2-0.3-1.7c0.4-0.5,1.2-0.7,1.7-0.3l0,0
								c0.4,0.3,8.7,6.1,19.2-0.1c0.6-0.3,1.3-0.1,1.7,0.4c0.3,0.6,0.1,1.3-0.4,1.7C199.9,161.1,196.1,162.2,192.3,162.2"/>
							<path class="st3" d="M210.6,161.1c-0.2,0-0.3-0.1-0.4-0.2c-2.6-4-9.1-9.7-9.1-9.8c-0.2-0.2-0.2-0.5,0-0.7s0.5-0.2,0.7,0
								c0.3,0.2,6.5,5.8,9.3,10c0.2,0.2,0.1,0.6-0.1,0.7c0,0,0,0,0,0C210.8,161,210.7,161.1,210.6,161.1"/>
							<path class="st3" d="M175.5,160c0.1,0,0.5,0.1,0.7-0.2c2.2-2.9,4.5-5.6,7-8.1c0.2-0.2,0-0.6-0.1-0.7c-0.2-0.2-0.4-0.2-0.6,0
								c0,0,0,0,0,0c-0.2,0.2-5.2,4.9-7.4,8.4c-0.1,0.2-0.1,0.5,0.1,0.6C175.4,160,175.4,160.1,175.5,160"/>
							<path class="st3" d="M190.2,102.5h-0.7c-2.9-0.1-16.9-0.5-17.1-0.5c-0.3,0-0.5-0.2-0.5-0.5c0-0.3,0.2-0.5,0.5-0.5
								c0,0,0,0,0,0c0.1,0,14.1,0.4,17.1,0.5c1.1,0,4.6-0.1,8.6-0.2c6.5-0.2,14.5-0.5,18-0.3c0.3,0,0.5,0.3,0.5,0.5
								c0,0.3-0.3,0.5-0.6,0.5c0,0,0,0,0,0c-3.4-0.2-11.4,0-17.9,0.3C194.7,102.4,191.7,102.5,190.2,102.5"/>
							<path class="st3" d="M157.9,131.6c-0.2,0-0.4-0.1-0.5-0.4c-0.1-0.3,0.1-0.5,0.3-0.6c0,0,0,0,0,0c2.3-0.8,4.8-1.2,7.2-1.4
								c0.3,0,0.5,0.1,0.6,0.4c0,0.3-0.1,0.5-0.4,0.6c-0.1,0-0.1,0-0.2,0c-2.3,0.2-4.6,0.6-6.8,1.3c-0.1,0-0.1,0-0.2,0"/>
							<path class="st3" d="M228.3,130h-0.1c-2.2-0.5-6.3-0.9-6.3-0.9c-0.3,0-0.5-0.2-0.5-0.5c0-0.3,0.2-0.5,0.5-0.5
								c0,0,0.1,0,0.1,0c0.2,0,4.2,0.4,6.4,0.9c0.3,0.1,0.5,0.3,0.4,0.6C228.7,129.9,228.5,130,228.3,130"/>
							<path class="st9" d="M166.1,22.2c-5.7,5.3-0.6,14.1,2.7,18.6c-0.9-4.8-1-9.7-0.2-14.5c0.4-3.3,1.6-6.4,3.5-9.1
								c-1-4.4-1-13.1,14.1-16.6c0,0-13.3,5.7-13.6,15.9c3.7-5.1,9.6-9.2,17.1-14.2c11.7-7.7,16.8,5.2,24.4,7.8s11.6,9.6,13.6,21.7
								c0.6,3.1,0.3,6.3-1,9.2c7.3-7.9,0.8-20.3,0.8-20.3c9.4,13.5,1.9,19.6-1.5,21.5c-2.6,4.3-6.9,6.3-7.6,7.3
								c-5.8,8.5-35.6,8.5-42.9,2.6c-3.2-2.6-5.5-6.2-6.5-10.2C154.7,28.1,166,22.2,166.1,22.2"/>
							<path class="st11" d="M212.2,76.3c0,0-0.5,17.5-6.8,26.7c0,0-10.5,1.3-14.7,2.1c0,0,2.9-15.5,2.4-26.4c0,0-3,19.7-9.4,27.8
								c0,0-19.1,1.3-26,13.3c0,0-0.3,1.7-0.8,20.8c-5.6-3.4-9.6-9-11-15.4C138.1,90.7,135.2,84,161,55.3
								c15.8-17.6,45.1-10.5,53.9-3.5c0,0,40.4-0.9,35.9,45.8c-3.3,33.8-13.6,38.9-13.6,38.9c-5-13.2-4.1-19.6-3.8-26.1
								S229.4,86,212.2,76.3"/>
							<path class="st2" d="M156.2,121c0,0-2.3-6.7-11.2-5.9c-8.6,0.8-5.7,22.9,1.9,26.6c7.6,3.7,10.1-7.4,10.1-7.4L156.2,121z"/>
							<path class="st11" d="M160.3,115.2c0,0-2.7,25.5-0.8,35.2c1.9,9.7-7.3,23.3,2.7,33.9c0,0-12.6-3.2-12.6-10.7
								c0-7.6,4.4-15.7,4.2-22.8s1-29.6,2.6-35.1L160.3,115.2z"/>
							<path class="st2" d="M231.7,121c0,0,2.3-6.7,11.2-5.9c8.6,0.8,5.7,22.9-1.9,26.6c-7.6,3.7-10.1-7.4-10.1-7.4L231.7,121z"/>
							<path class="st11" d="M237.1,115.2c0,0-3.5,25.5-1.6,35.2c1.9,9.7-7.3,23.3,2.7,33.9c0,0-12.6-3.2-12.6-10.7
								c0-7.6,4.4-15.7,4.2-22.8s1.8-31,3.4-36.4L237.1,115.2z"/>
							<path class="st2" d="M96.5,423.6c5.4,2.8,9.4,7.6,11.3,13.4c2.2,6.9,2.8,14.2,1.7,21.3c-0.5,2.8,0.1,23.8-5,23.8
								s-3.6-15.6-4.2-18.3c-0.6-2.7-2.5,20.3-2.5,21.8c-0.1,1.5,1.1,11.9,1.1,11.9s4.1,13.4-1.8,16.7c0,0-1,0.7-1.7-0.7
								c-0.7-1.4-4.5-6.4-4.5-6.4s-1.7-4-2.1-5.1c-0.7-2.2-3.1-7.7-3-11.3c0-3.6,0-38.6,0-38.6s-6.2-28.1,10.7-28.3"/>
							<path class="st5" d="M286.5,782.8c-2-6.1-8.5-9.4-14.6-7.5c-0.8,0.3-1.7,0.6-2.4,1.1c0.2-0.9,0.3-1.8,0.3-2.6
								c0-6.5-4.5-11.6-10.8-11.6c-6.4,0-11.1,5.2-11.1,11.6c0,0.9,0.1,1.8,0.3,2.6c-0.8-0.4-1.6-0.8-2.4-1.1
								c-6.1-2-12.6,1.4-14.6,7.5c-2,6.2,1.3,12.8,7.5,15c0.8,0.3,1.7,0.5,2.6,0.6c-0.7,0.6-1.2,1.3-1.8,2
								c-3.8,5.2-2.6,12.5,2.6,16.2c4.8,3.7,11.7,2.7,15.4-2.1c0.1-0.1,0.2-0.3,0.3-0.4c0.5-0.7,1-1.5,1.3-2.3
								c0.4,0.8,0.8,1.6,1.3,2.3c3.3,4.9,9.9,6.3,14.8,3c0.2-0.1,0.4-0.3,0.6-0.4c5.2-3.8,6.3-11,2.6-16.2c-0.5-0.7-1.1-1.4-1.8-2
								c0.9-0.1,1.7-0.3,2.6-0.6C285.2,795.6,288.5,788.9,286.5,782.8 M258.9,765.5c4.4,0,7.5,3.5,7.5,8.3c-0.1,2.5-0.9,5-2.3,7.1
								c-0.2,0.3-0.3,0.6-0.2,0.9l-1.7,3c-0.5-0.2-1.1-0.4-1.7-0.5v-6.8c0-0.9-0.7-1.6-1.6-1.7c0,0,0,0,0,0c-0.9,0-1.7,0.7-1.7,1.7
								l0,0v6.8c-0.6,0.1-1.1,0.3-1.7,0.5l-1.9-3.2c0-0.3-0.1-0.5-0.2-0.7c-1.4-2.1-2.1-4.6-2.3-7.1
								C251.1,769,254.5,765.5,258.9,765.5 M239.5,794.7c-4.4-1.6-6.7-6.4-5.3-10.8c1.4-4.4,6.1-6.7,10.5-5.3c2,0.8,3.9,2,5.4,3.6
								l2.8,4.7c-0.4,0.5-0.8,1-1.1,1.6l-6.5-2.1c-0.9-0.3-1.8,0.2-2.1,1.1c-0.3,0.9,0.2,1.8,1.1,2.1l0,0l6.5,2.1
								c-0.1,0.6-0.1,1.3,0,1.9l-4.1,1.5C244.2,795.3,241.8,795.3,239.5,794.7 M257.3,805c-0.2,2.5-1,5-2.4,7.1
								c-2.4,3.5-7.1,4.5-10.7,2.1c-0.1-0.1-0.3-0.2-0.4-0.3c-3.7-2.7-4.5-7.9-1.9-11.6c2.2-3,6-4.4,6.3-4.5l3.4-1.1
								c0.3,0.5,0.7,1,1.1,1.5l-4,5.5c-0.6,0.7-0.5,1.8,0.2,2.3c0.7,0.6,1.8,0.5,2.3-0.2c0-0.1,0.1-0.1,0.1-0.2l4-5.5
								c0.6,0.3,1.2,0.5,1.8,0.6L257.3,805z M258.9,797.4c-2.8,0-5-2.2-5-5c0-2.8,2.2-5,5-5c2.8,0,5,2.2,5,5c0,0,0,0,0,0
								C263.9,795.1,261.7,797.4,258.9,797.4 M273.8,813.9c-3.2,2.5-7.9,2-10.4-1.3c-0.1-0.2-0.3-0.4-0.4-0.6
								c-1.4-2.1-2.2-4.5-2.4-7.1v-4.5c0.6-0.1,1.2-0.3,1.8-0.6l4,5.5c0.6,0.7,1.6,0.8,2.3,0.2c0.6-0.5,0.8-1.5,0.3-2.2l-4-5.5
								c0.4-0.4,0.8-0.9,1.1-1.5l3.1,1.1c0.4,0.3,4.1,1.6,6.4,4.6C278.3,806,277.5,811.2,273.8,813.9 M271.2,794.9l-4-1.5
								c0.1-0.6,0.1-1.3,0-1.9l6.5-2.1c0.9-0.3,1.3-1.2,1.1-2.1c-0.3-0.9-1.2-1.3-2.1-1.1l-6.5,2.1c-0.3-0.6-0.7-1.1-1.2-1.6
								l2.7-4.7c1.5-1.5,3.3-2.7,5.3-3.5c4.4-1.4,9,1,10.4,5.3c1.4,4.5-1,9.2-5.3,10.8l0,0C275.8,795.3,273.5,795.4,271.2,794.9"/>
							<path class="st5" d="M305.5,829.7c-2.5-2.8-6.8-3-9.6-0.5c0,0,0,0-0.1,0c-0.4,0.3-0.7,0.7-1,1.1c-0.1-0.5-0.3-1-0.5-1.5
								c-1.6-3.5-5.2-5.1-8.6-3.6c-3.3,1.5-4.7,5.4-3.2,8.7c0,0.1,0.1,0.1,0.1,0.2c0.2,0.5,0.5,0.9,0.8,1.3c-0.5-0.1-1-0.1-1.6,0
								c-3.7,0.4-6.4,3.7-6,7.5c0,0,0,0.1,0,0.1c0.4,3.8,3.8,6.6,7.6,6.2c0.5-0.1,1-0.2,1.5-0.3c-0.2,0.5-0.4,1-0.5,1.5
								c-0.8,3.7,1.6,7.3,5.2,8.1c0,0,0,0,0,0c3.5,0.8,6.9-1.4,7.7-4.9c0-0.1,0-0.2,0.1-0.3c0.1-0.5,0.2-1,0.2-1.6
								c0.4,0.3,0.8,0.6,1.3,0.9c2.9,1.8,6.8,1,8.7-2c0.1-0.1,0.1-0.2,0.2-0.4c1.9-3.3,0.8-7.4-2.5-9.3c0,0,0,0,0,0
								c-0.5-0.3-0.9-0.5-1.4-0.6c0.4-0.3,0.9-0.6,1.3-0.9C307.9,836.9,308,832.5,305.5,829.7 M286.5,827.1c2.3-1,5,0.1,5.9,2.4
								c0,0.1,0.1,0.1,0.1,0.2c0.6,1.4,0.8,2.9,0.6,4.3c0,0.2,0,0.4,0.1,0.5l-0.2,2c-0.3,0-0.7,0-1,0.1l-1.6-3.6
								c-0.2-0.5-0.8-0.7-1.3-0.5c0,0,0,0,0,0c-0.5,0.2-0.7,0.8-0.5,1.3l1.6,3.6c-0.3,0.2-0.5,0.4-0.8,0.7l-1.8-1.2
								c-0.1-0.1-0.2-0.3-0.3-0.3c-1.2-0.8-2.3-1.9-2.9-3.3c-1.2-2.3-0.3-5.1,2-6.2C286.4,827.1,286.5,827.1,286.5,827.1
								 M283.2,847.3c-2.7,0.2-5.2-1.8-5.5-4.5c-0.3-2.7,1.6-5.1,4.3-5.4c0,0,0,0,0,0c1.3-0.1,2.6,0.1,3.7,0.6l2.7,1.8
								c-0.1,0.4-0.2,0.7-0.2,1.1l-4,0.4c-0.5,0.1-0.9,0.5-0.9,1.1c0.1,0.5,0.5,0.9,1.1,0.9l4-0.4c0.1,0.4,0.3,0.7,0.5,1l-1.9,1.8
								C285.9,846.6,284.6,847.1,283.2,847.3 M295.2,848.6c0.5,1.4,0.7,2.9,0.5,4.4c-0.4,2.5-2.8,4.1-5.2,3.7c-0.1,0-0.2,0-0.2-0.1
								c-2.6-0.6-4.3-3.1-3.8-5.8c0.4-1.5,1.2-2.9,2.3-4l1.5-1.5c0.3,0.2,0.6,0.4,0.9,0.5l-0.8,3.9c-0.1,0.5,0.2,1.1,0.7,1.2
								s1.1-0.2,1.2-0.7c0,0,0-0.1,0-0.1l0.8-3.9c0.4,0,0.8,0,1.1-0.1L295.2,848.6z M294.2,844.2c-1.5,0.7-3.2,0-3.9-1.5
								c-0.7-1.5,0-3.2,1.5-3.9c1.5-0.7,3.2,0,3.9,1.5C296.3,841.8,295.7,843.6,294.2,844.2 M306.1,849.5c-1.1,2.1-3.8,2.9-5.9,1.8
								c-0.1-0.1-0.3-0.1-0.4-0.2c-1.3-0.8-2.3-1.9-3-3.2l-1.1-2.4c0.3-0.2,0.6-0.5,0.8-0.7l3.5,2c0.4,0.3,1.1,0.2,1.4-0.3
								s0.2-1.1-0.3-1.4c0,0-0.1-0.1-0.1-0.1l-3.5-2c0.1-0.3,0.2-0.7,0.2-1.1l1.9-0.1c1.6-0.1,3.1,0.3,4.5,0.9
								C306.6,844.1,307.4,847.1,306.1,849.5 M300.1,839.8l-2.5,0.2c-0.1-0.4-0.3-0.7-0.5-1l3-2.7c0.4-0.4,0.4-1,0.1-1.4
								c-0.4-0.4-1-0.4-1.4-0.1l-3,2.7c-0.3-0.2-0.7-0.4-1-0.6l0.3-3.2c0.4-1.2,1.1-2.3,2-3.1c2-1.8,5.1-1.7,6.9,0.3c0,0,0,0,0,0
								c1.8,2,1.7,5.2-0.2,7.1C302.7,838.9,301.5,839.5,300.1,839.8"/>
							<path class="st5" d="M313.2,788.7c-1.8-0.7-3.8,0.2-4.5,2c-0.1,0.2-0.2,0.5-0.2,0.8c-0.2-0.2-0.4-0.4-0.6-0.6
								c-1.3-1.2-3.4-1.1-4.6,0.2c0,0-0.1,0.1-0.1,0.1c-1.1,1.4-0.9,3.5,0.5,4.7c0,0,0.1,0,0.1,0.1c0.2,0.2,0.4,0.3,0.7,0.4
								c-0.2,0.1-0.5,0.2-0.7,0.4c-1.6,1-2.1,3.2-1,4.8c1,1.6,3.2,2.2,4.8,1.1c0.2-0.2,0.5-0.3,0.7-0.5c0,0.3,0.1,0.5,0.1,0.8
								c0.5,1.8,2.4,2.9,4.2,2.4c1.8-0.4,2.8-2.2,2.4-3.9c0-0.1,0-0.1,0-0.2c-0.1-0.3-0.2-0.5-0.3-0.7c0.3,0.1,0.5,0.1,0.8,0.1
								c1.8,0.2,3.3-1.1,3.5-2.9c0-0.1,0-0.1,0-0.2c0.1-1.9-1.4-3.5-3.3-3.6c-0.3,0-0.5,0-0.8,0c0.1-0.2,0.3-0.5,0.4-0.7
								C315.9,791.4,315,789.4,313.2,788.7 M304,791.8c0.8-1,2.2-1.1,3.2-0.3c0,0,0.1,0.1,0.1,0.1c0.6,0.5,1,1.2,1.2,1.9
								c0,0.1,0.1,0.2,0.2,0.2l0.4,1c-0.2,0.1-0.3,0.2-0.4,0.3l-1.6-1.3c-0.2-0.2-0.5-0.2-0.7,0c0,0,0,0,0,0
								c-0.2,0.2-0.1,0.5,0.1,0.7c0,0,0,0,0,0l1.6,1.3c-0.1,0.2-0.1,0.3-0.2,0.5l-1.1-0.1c-0.1,0-0.1-0.1-0.2-0.1
								c-0.8-0.1-1.5-0.4-2.1-0.8c-1.1-0.7-1.3-2.2-0.6-3.3C303.9,791.8,303.9,791.8,304,791.8 M307.1,801.7
								c-1.2,0.7-2.7,0.3-3.5-0.8c-0.7-1.1-0.4-2.7,0.7-3.4c0.6-0.3,1.2-0.5,1.8-0.6l1.6,0.2c0,0.2,0.1,0.4,0.1,0.6l-1.7,1.1
								c-0.2,0.1-0.3,0.5-0.1,0.7s0.5,0.3,0.7,0.1l1.7-1.1c0.1,0.1,0.3,0.2,0.4,0.4l-0.4,1.2C308.1,800.8,307.6,801.3,307.1,801.7
								 M312.7,799.6c0.6,0.5,1,1.2,1.2,1.9c0.4,1.2-0.3,2.5-1.5,2.8c-0.1,0-0.1,0-0.2,0c-1.3,0.4-2.7-0.4-3-1.7c0,0,0,0,0,0
								c-0.2-0.8-0.1-1.6,0.1-2.3l0.4-1c0.2,0,0.4,0,0.5,0l0.5,2c0.1,0.3,0.3,0.4,0.6,0.3c0,0,0,0,0,0c0.3-0.1,0.4-0.3,0.4-0.6
								l-0.5-2c0.2-0.1,0.3-0.2,0.5-0.3L312.7,799.6z M311.3,797.8c-0.5,0.6-1.5,0.7-2.1,0.2c-0.6-0.5-0.7-1.5-0.2-2.1
								c0.5-0.6,1.5-0.7,2.1-0.2c0,0,0,0,0,0C311.7,796.2,311.8,797.1,311.3,797.8 M317.9,797.4c0,1.2-1,2.2-2.2,2.2
								c-0.1,0-0.1,0-0.2,0c-0.7-0.1-1.4-0.3-2-0.7l-1-0.8c0.1-0.2,0.2-0.3,0.2-0.5l2,0.1c0.3,0.1,0.5-0.1,0.6-0.4
								c0.1-0.3-0.1-0.5-0.4-0.6c0,0-0.1,0-0.1,0l-2-0.1c0-0.2-0.1-0.4-0.1-0.5l0.8-0.5c0.7-0.4,1.5-0.6,2.3-0.6
								C317,795,318,796.1,317.9,797.4C318,797.5,318,797.5,317.9,797.4 M313.1,794.5l-1.1,0.7c-0.1-0.1-0.3-0.3-0.4-0.4l0.7-1.9
								c0.1-0.3,0-0.5-0.3-0.6c-0.3-0.1-0.5,0-0.6,0.3c0,0,0,0,0,0l-0.7,1.9c-0.2,0-0.4,0-0.6,0l-0.6-1.5c-0.1-0.6,0-1.3,0.2-1.9
								c0.5-1.3,1.9-1.9,3.2-1.4c1.3,0.5,1.9,1.9,1.5,3.3C314,793.6,313.6,794.1,313.1,794.5"/>
						</g>
					</g>
				</g>
			</g>
		</g>
	</g>
</g>
</svg>
