<?xml version="1.0" encoding="utf-8"?>
<!-- Generator: Adobe Illustrator 25.0.1, SVG Export Plug-In . SVG Version: 6.00 Build 0)  -->
<svg version="1.1" id="Layer_1" xmlns="http://www.w3.org/2000/svg" xmlns:xlink="http://www.w3.org/1999/xlink" x="0px" y="0px"
	 viewBox="0 0 312 1065.1" style="enable-background:new 0 0 312 1065.1;" xml:space="preserve">
<style type="text/css">
	.st0{clip-path:url(#SVGID_2_);}
	.st1{clip-path:url(#SVGID_4_);}
	.st2{fill:#F9D4B8;}
	.st3{fill:#EBB897;}
	.st4{fill:#23242B;}
	.st5{fill:#28326D;}
	.st6{fill:#CE6565;}
	.st7{fill:#1FAB9E;}
	.st8{fill:#9B9BA7;}
	.st9{fill:#D7D7E0;}
	.st10{fill:#EFEFEF;}
	.st11{fill:#FFB861;}
	.st12{fill:#FF8F00;}
	.st13{fill:#4C4C4C;}
	.st14{fill:#EDEDF4;}
	.st15{fill:#CACAD3;}
	.st16{fill:#C9C9D6;}
</style>
<g id="Layer_2_1_">
	<g id="Layer_1-2">
		<g id="Sasha">
			<g>
				<defs>
					<rect id="SVGID_1_" x="32.6" y="46.2" width="246.9" height="972.6"/>
				</defs>
				<clipPath id="SVGID_2_">
					<use xlink:href="#SVGID_1_"  style="overflow:visible;"/>
				</clipPath>
				<g class="st0">
					<g>
						<defs>
							<rect id="SVGID_3_" x="32.6" y="46.2" width="246.9" height="972.6"/>
						</defs>
						<clipPath id="SVGID_4_">
							<use xlink:href="#SVGID_3_"  style="overflow:visible;"/>
						</clipPath>
						<g class="st1">
							<path class="st2" d="M122.5,149.1c0,0,1.5,34.9,0,40.5s-15.4,14.9-29.6,21.6c0,0,16.5,32.7,52.3,32
								c35.8-0.7,46.6-23.3,52.3-31.5c0,0-27.3-9.5-27.9-21.1c-0.7-11.6,0-41.6,0-41.6L122.5,149.1z"/>
							<path class="st3" d="M145.7,182.1c11.3,0,19.2-7.5,23.6-13.6c0.1-10.3,0.3-19.3,0.3-19.3h-47c0,0,0.4,9.1,0.6,18.9
								C126.9,174.1,134.1,182.1,145.7,182.1"/>
							<path class="st2" d="M114.6,114.9c0,0-2-5.7-9.6-5c-7.4,0.7-4.9,19.7,1.6,22.8c6.5,3.1,8.7-6.4,8.7-6.4L114.6,114.9z"/>
							<path class="st2" d="M179.5,114.9c0,0,2-5.7,9.6-5.1c7.4,0.7,4.9,19.7-1.6,22.8c-6.5,3.1-8.7-6.4-8.7-6.4L179.5,114.9z"/>
							<path class="st2" d="M185.8,113.4c-3.3,40.7-14.7,60.2-38.7,60.2s-35.6-16.1-38.7-60.2C106,80.9,123.1,60.7,147,60.7
								S188.5,79.6,185.8,113.4"/>
							<path class="st4" d="M127,120c-0.2,1.3-1.5,2.2-2.8,2c-1.3-0.2-2.2-1.5-2-2.8c0.2-1.2,1.2-2.1,2.4-2.1
								C126,117.3,127.1,118.5,127,120"/>
							<path class="st4" d="M171.1,120c-0.2,1.3-1.5,2.2-2.8,2c-1.3-0.2-2.2-1.5-2-2.8c0.2-1.2,1.2-2.1,2.4-2.1
								C170.1,117.3,171.2,118.5,171.1,120"/>
							<path class="st5" d="M116.2,111.1c-0.8,0-1.4-0.7-1.4-1.5c0-0.3,0.1-0.7,0.4-0.9c2.3-2.5,7.8-7.8,15.9-2.5
								c0.7,0.4,1,1.2,0.6,1.9c-0.4,0.7-1.2,1-1.9,0.6c0,0,0,0,0,0c-4.1-2.2-9.1-1.5-12.4,1.8C117,110.9,116.6,111.1,116.2,111.1"/>
							<path class="st5" d="M178.8,111.1c0.4,0,0.7-0.1,1-0.4c0.6-0.5,0.6-1.4,0.1-2c-2.3-2.5-7.8-7.8-15.9-2.5
								c-0.7,0.4-1,1.2-0.6,1.9c0.4,0.7,1.2,1,1.9,0.6c4.1-2.2,9.1-1.5,12.4,1.8C177.9,110.9,178.3,111.1,178.8,111.1"/>
							<path class="st3" d="M146.5,143.5c-2-0.1-3.6-0.6-4.4-2.1c-2.4-4.7,2.1-12.2,2.5-13.1c0.3-0.6,0.7-1,1.4-0.7
								c0.6,0.3,0.4,1.1,0.1,1.8c-1.4,3-2.2,8.7-0.9,10.8c0.3,0.6,0.9,0.9,1.6,0.9c0.7,0.1,1.2,0.7,1.2,1.4
								C147.8,143.6,146.5,143.5,146.5,143.5"/>
							<path class="st6" d="M146.5,155c-4,0-7.8-1.1-11.2-3.3c-0.6-0.4-0.7-1.2-0.3-1.7c0.4-0.6,1.2-0.7,1.7-0.3
								c0.4,0.3,9,6.3,19.7-0.1c0.6-0.4,1.4-0.2,1.7,0.4c0.4,0.6,0.2,1.4-0.4,1.7C154.4,153.9,150.5,155,146.5,155"/>
							<path class="st5" d="M163.4,79.8c0,0-10.7-3.3-12.2,2.5c-1.6,5.7-5.5,10.5-12.5,11.4c-7,0.9-0.9,10.2-10.6,10.4
								c0,0,2-2.6,1.3-4c-0.7-1.4-1.4-3.6-0.4-5.5c0,0-18.5,9.8-18.5,16.3l0.2,4.5h-3l-1.7-5.6l-2.1-18.8c0,0-5-4-4.1-8
								c0.9-4,6-7.9,6.9-15.3s6.9-12.3,13.6-11.3c6.7,1,8-11,17.9-6.4s12.9-10.9,20.5,0.7c4.7,7.2,11.1-2.7,12.6,9.3
								c0,0,14.9,1,13.3,6.3c-1.6,5.3,14.7,12.6,6,21.4l-2.3,22.1l-1.9,5.7h-3.1c0,0-0.1-10.6-0.7-13.4c-0.6-2.7-4.3-11.5-5.3-16.5
								S169.5,77.8,163.4,79.8"/>
							<polygon class="st7" points="237.4,951.5 241.4,977.5 266.5,976.4 263.8,947.8 							"/>
							<path class="st8" d="M249.1,1009.2c0,0,4.7,11.7,18.8,9.4c14.1-2.3,11.4-14.3,11.4-14.3L249.1,1009.2z"/>
							<path class="st9" d="M276.7,992.9c-3.4-7.1-11.6-21.3-11.6-21.3c-12.6-7.5-20.2-2.4-23.8,1.1l-0.2,0.1c0,0-0.2,0.4-0.8-3
								c0,0-0.6,7.5,1,11.6l0,0c0.8,3.1,4.1,6.8,4.7,17c0.9,15.4,12.4,19.2,24.1,16.5C281.9,1012.2,280.1,1000.1,276.7,992.9"/>
							<path class="st8" d="M248,978.7c-0.3,0-0.6-0.1-0.8-0.2c-0.4-0.2-0.6-0.8-0.4-1.2c0-0.1,0.1-0.1,0.1-0.2
								c0.2-0.2,5.5-5.3,15.9-2.5c0.7,0.2,1,0.8,0.8,1.3c-0.3,0.6-1,0.8-1.7,0.6c-8.6-2.4-12.9,1.8-13,1.8
								C248.8,978.6,248.4,978.7,248,978.7"/>
							<path class="st8" d="M250,983.8c-0.3,0-0.6-0.1-0.8-0.2c-0.4-0.2-0.6-0.8-0.4-1.2c0-0.1,0.1-0.1,0.2-0.2
								c0.2-0.2,5.5-5.3,15.9-2.5c0.7,0.2,1,0.8,0.8,1.3c-0.3,0.6-1,0.8-1.7,0.6c-8.6-2.3-12.9,1.8-13,1.8
								C250.8,983.6,250.4,983.8,250,983.8"/>
							<path class="st8" d="M252,988.9c-0.3,0-0.6-0.1-0.8-0.2c-0.4-0.2-0.6-0.8-0.4-1.2c0-0.1,0.1-0.1,0.2-0.2
								c0.2-0.2,5.5-5.3,15.9-2.5c0.5,0.1,0.9,0.6,0.9,1.1c0,0.1,0,0.1,0,0.2c-0.3,0.6-1,0.8-1.7,0.6c-8.6-2.3-12.9,1.8-13,1.8
								C252.7,988.8,252.4,988.9,252,988.9"/>
							<path class="st10" d="M252.6,1002.6c0,0,18.6,8.4,25-3.1c0,0,4.2,8.3-9.8,10.6C258.7,1011.7,252.6,1002.6,252.6,1002.6"/>
							<polygon class="st7" points="90.5,947.1 90.8,979.1 119.1,979.1 119.6,947.1 							"/>
							<path class="st8" d="M122.6,987.8l-0.6,7.7c-5,2.9-10.8,4.3-16.5,4.1c0,0-8.9-3.2-13.9,1.2c-9.4,8.3-39.9,14.8-43.1,3.7
								L122.6,987.8z"/>
							<path class="st9" d="M121.7,969.1c0,0,3.7,18,0.7,20.6s-22.9,5.8-32.9,11s-40.2,10.7-41.6,2.1c-1.4-8.6,11-14,19.4-17.3
								c8.4-3.3,16.8-14.9,21.3-16.4c0,0,2.4-2,11.4,4.2C104.5,976.5,116.5,966.6,121.7,969.1"/>
							<path class="st8" d="M90.9,979c-0.4,0-0.8-0.2-1.1-0.5c-1.7-2.4-4.4-3.9-7.4-4.3c-0.8,0-1.4-0.7-1.3-1.5c0,0,0,0,0,0
								c0-0.8,0.7-1.4,1.4-1.3c0,0,0,0,0,0c3.8,0.4,7.2,2.3,9.5,5.4c0.5,0.6,0.4,1.5-0.3,2C91.5,978.9,91.2,979,90.9,979"/>
							<path class="st8" d="M86,983.9c-0.4,0-0.8-0.2-1.1-0.5c-1.8-2.4-4.4-3.9-7.4-4.3c-0.8,0-1.4-0.7-1.3-1.5
								c0-0.8,0.7-1.4,1.5-1.3c3.8,0.4,7.2,2.3,9.5,5.4c0.5,0.6,0.4,1.5-0.2,2c0,0,0,0,0,0C86.6,983.8,86.3,983.9,86,983.9"/>
							<path class="st8" d="M81.8,988.1c-0.4,0-0.8-0.2-1.1-0.5c-1.7-2.4-4.4-3.9-7.4-4.3c-0.8,0-1.4-0.7-1.3-1.5c0,0,0,0,0,0
								c0-0.8,0.7-1.4,1.4-1.3c0,0,0,0,0,0c3.8,0.4,7.2,2.3,9.5,5.4c0.5,0.6,0.4,1.5-0.3,2C82.4,988,82.1,988.1,81.8,988.1"/>
							<path class="st10" d="M53,993.9c0,0,4.1,7.1,22.4,4.9c0,0-17.5,4.8-26,0.7C50.2,997.4,51.4,995.5,53,993.9"/>
							<path class="st11" d="M206,403.7H82.8c0,0-0.5,0.4-1,4.4c-0.2,1.8-1,9.9-1.9,12.3C70.5,446,59,506.2,60.3,584.7
								c1.7,104.8,24.1,375.9,24.1,375.9c12.9,2.2,26.1,2.4,39,0.6l17.3-407.1c0,0,84.6,346.7,92.1,408.8c0,0,19.2,1.8,35.6-4.7
								c0,0-43-380.2-46.4-431.3c-3-46.2-11.9-82.7-14.4-106.4c-0.2-2.2-0.8-6.6-0.9-8.3C206.5,407.4,207.2,404.7,206,403.7"/>
							<path class="st12" d="M139.9,554.5c-0.2,0-0.4-0.1-0.6-0.2l-22.6-17.7c-0.4-0.3-0.5-0.9-0.2-1.4c0.3-0.4,0.9-0.5,1.3-0.2
								l22.6,17.7c0.5,0.3,0.6,0.9,0.3,1.3C140.6,554.4,140.3,554.6,139.9,554.5"/>
							<path class="st7" d="M81,403.7l-1,16.8c0,0,11.5,16.3,127.7,0.3l-0.5-17H81z"/>
							<rect x="117.8" y="403.7" class="st13" width="34.3" height="25.8"/>
							<path class="st14" d="M118.5,195.5c0,0,25.3,16.2,57.8-1c0,0,37.7,21.2,56.6,35.5c0,0-16.3,98.3-24.8,155.2
								c-0.5,3.6,6.2,5.8,4.1,12.7c-0.7,2.5-6.2,5.3-6.2,5.3s-73.9,17.6-123.2-0.1c0,0-7.1-2.7-8-8.5c-0.4-2.3,2.5-5.5,2-8.5
								c-6.1-37.9-14.2-153.5-13.6-160.9C80.2,212.7,98.8,202.8,118.5,195.5"/>
							<path class="st15" d="M75.8,378.3c-3.7-35.7-7.2-102.5-9.3-126.5c-0.6,0.3-1.2,0.6-1.8,0.8c2.2,24.2,5.6,90.9,9.3,126.4
								C74.6,378.6,75.2,378.4,75.8,378.3"/>
							<path class="st16" d="M157.9,232.6l-14.5-27l-16.9,26.7l-11.2-35.5c1.1-0.5,2.2-0.9,3.3-1.3c0,0,25.3,16.2,57.8-1
								c0.5,0.2,0.9,0.5,1.3,0.8L157.9,232.6z"/>
							<polygon class="st14" points="125,181.6 143.2,201 168.7,180.7 178.1,194.5 157.9,225.1 143.5,203.8 127.1,225.1 
								114.9,195.9 							"/>
							<path class="st16" d="M134.4,406.6c-0.5,0-1-0.8-1-1.3c-0.5-65.6,2.6-131.2,9.1-196.4c0-0.6,0.5-1,1-1c0.5,0,0.9,0.4,0.9,0.9
								c0,0,0,0.1,0,0.1c-0.1,0.9-8,70.8-9.1,196.4C135.4,405.7,135,406.6,134.4,406.6L134.4,406.6z"/>
							<polygon class="st15" points="74.9,270.2 74.9,310.3 79.3,315 118.8,315 123.5,310 123.5,270.2 							"/>
							<polygon class="st9" points="74.9,260.7 74.9,274.1 99.2,279.5 123.5,273.6 123.5,260.7 							"/>
							<path class="st15" d="M101.3,272.9c0-1.5-1.2-2.8-2.8-2.8s-2.8,1.2-2.8,2.8c0,1.5,1.2,2.8,2.8,2.8c0,0,0,0,0,0
								C100,275.7,101.3,274.4,101.3,272.9"/>
							<polygon class="st15" points="151.2,270.2 151.2,310.3 155.6,315 195.1,315 199.8,310 199.8,270.2 							"/>
							<polygon class="st9" points="151.2,260.7 151.2,274.1 175.5,279.5 199.8,273.6 199.8,260.7 							"/>
							<path class="st15" d="M178.5,272.9c0-1.5-1.2-2.8-2.8-2.8s-2.8,1.2-2.8,2.8s1.2,2.8,2.8,2.8l0,0
								C177.3,275.7,178.5,274.4,178.5,272.9"/>
							<path class="st14" d="M232.8,230c0,0-19.8,20.9-41.6,93.7c0,0-9.3-0.7-21.3-2l-2.7-12.7l-8.4,2.2l-0.9-3.8l-30.9,7
								c-12.1-3-11.7-2.9-18.4-4.6l-1.4,5.4l0.9-3.7l-8-1.8l-2.8,6l-25.6,1.2c0,0,11.1-77.8-8.5-91.6c0,0-19.6,16.2-29.5,86.8
								c-8,57.3,26.5,58.7,34.1,58.7c7.6,0,57.4-14.6,57.4-14.6s53.4,18.4,74.2,16.8c3.6-0.3,45.2,1.6,49.8-87.5
								C249.9,271.5,244.6,239.7,232.8,230"/>
							<path class="st15" d="M166.3,310c0.1-0.5,0.1-1.1,0.2-1.6l-7.1,1.8l-0.9-3.8l-31.4,7.1l-2-0.5c-9.9-2.5-9.9-2.5-16.1-4.1
								l-0.8-0.2l-0.4,1.7l-6.6-1.4c0,0.5,0,1.1,0,1.6l6.1,1.4l1.6,0.3l0.4-1.6c5.5,1.4,5.9,1.5,15.4,3.9l2.4,0.6l30.3-6.8l0.9,3.8
								L166.3,310C166.4,310,166.4,310,166.3,310"/>
							<path class="st16" d="M218.5,365.6c-5.5,3.8-11.9,6-18.5,6.3c-0.3,0-0.5,0-0.6,0c-0.8,0.1-1.8,0-2.7,0l0,0
								c-22,0-70.6-16.6-71.1-16.7l-0.2,0l-0.2,0.1c-0.4,0.1-37.4,10.9-52.1,13.9c0.1,0.5,0.2,1,0.2,1.5
								c14.3-2.8,48.5-12.9,52.1-13.9c3.7,1.3,49.9,16.7,71.4,16.7l0,0c1,0,2,0.1,2.9,0c0.1,0,0.3,0.1,0.5,0.1
								c7-0.3,13.7-2.6,19.4-6.6C219,366.6,218.7,366.1,218.5,365.6"/>
							<path class="st16" d="M198.9,300.4c0.4,0,0.7-0.3,0.8-0.6c6.2-27,26.6-60.7,26.8-61c0.2-0.4,0.1-0.8-0.3-1.1
								c-0.4-0.2-0.8-0.1-1.1,0.2c0,0,0,0,0,0c-0.2,0.3-20.7,34.2-26.9,61.5c-0.1,0.4,0.2,0.8,0.6,0.9L198.9,300.4"/>
							<path class="st16" d="M72.6,286.3L72.6,286.3c0.5,0,0.8-0.4,0.8-0.8c-0.1-1.5-2.6-35.8-8-49.6c-0.2-0.4-0.6-0.6-1-0.4
								s-0.6,0.6-0.4,1c5.3,13.6,7.9,48.8,7.9,49.2C71.9,285.9,72.2,286.3,72.6,286.3"/>
							<path class="st16" d="M128.7,355.3c0.1,0,0.1,0,0.2,0l36.4-9.6l-1.3-8l8-1.9l-1.7-6.6c-0.1-0.4-0.5-0.7-0.9-0.6
								c-0.4,0.1-0.7,0.5-0.6,0.9l1.2,5.3l-7.7,1.7l1.3,8.1l-35,9.2c-0.4,0.1-0.7,0.5-0.6,0.9C128,355.1,128.4,355.3,128.7,355.3"/>
							<path class="st16" d="M47.8,325.8c0.2,0,0.4-0.1,0.6-0.3c6.8-7.6,26.5-7.9,26.7-7.9c0.4,0,0.8-0.4,0.8-0.8
								c0-0.4-0.4-0.8-0.8-0.8l0,0c-0.8,0-20.5,0.4-27.8,8.5c-0.3,0.3-0.3,0.8,0.1,1.1C47.4,325.7,47.6,325.8,47.8,325.8"/>
							<path class="st16" d="M208.3,325.8c0.4,0,0.8-0.4,0.8-0.8c0-0.3-0.2-0.6-0.5-0.7c-7.9-3.6-15.8-0.9-16.1-0.8
								c-0.4,0.1-0.6,0.6-0.5,1c0,0,0,0,0,0c0.1,0.4,0.6,0.6,1,0.5c0.1,0,7.7-2.6,15,0.7C208.1,325.7,208.2,325.8,208.3,325.8"/>
							<path class="st2" d="M99.7,309.6c0,0-9.7-15.7-23.8-19.8c0,0-13.5-9.5-20.3-0.4c0.1,1.3,1.2,2.2,2.5,2.1c0.1,0,0.1,0,0.2,0
								c1.9-0.3,7.1-3.6,14.6,4.9c0,0-10.6-3.1-17,1.3c-0.7,0.7-0.9,1.8-0.6,2.7c1.4,4.1,3.2,8.1,5.2,12c0.9,0.2,1.8,0.2,2.7,0
								c1-0.3,7.6,0.4,9.7,1.6c0,0,4,2.9,4.8,2.8l21.2-1.5C99.7,313.5,99.9,311.5,99.7,309.6"/>
							<path class="st2" d="M167,310.8c0,0,18.2-7.7,30.5-7.8l-6.3,20.7c0,0-14.4,4.3-20.5,4.3C170.8,328.1,167,318.6,167,310.8"/>
							<path class="st15" d="M100.5,316c-0.4,0-0.8-0.4-0.8-0.8c0-0.4,0.3-0.8,0.8-0.8c0.2,0,15.7-0.3,25.7-0.7
								c0.4,0,0.8,0.3,0.8,0.7c0,0.4-0.3,0.8-0.7,0.8C116.2,315.7,100.6,316,100.5,316L100.5,316z"/>
						</g>
					</g>
				</g>
			</g>
		</g>
	</g>
</g>
</svg>
