<?xml version="1.0" encoding="utf-8"?>
<!-- Generator: Adobe Illustrator 25.0.1, SVG Export Plug-In . SVG Version: 6.00 Build 0)  -->
<svg version="1.1" id="Layer_1" xmlns="http://www.w3.org/2000/svg" xmlns:xlink="http://www.w3.org/1999/xlink" x="0px" y="0px"
	 viewBox="0 0 351.6 1065.1" style="enable-background:new 0 0 351.6 1065.1;" xml:space="preserve">
<style type="text/css">
	.st0{clip-path:url(#SVGID_2_);}
	.st1{clip-path:url(#SVGID_4_);}
	.st2{fill:#BF8964;}
	.st3{fill:#A76F48;}
	.st4{fill:#23242B;}
	.st5{fill:#343438;}
	.st6{fill:#453878;}
	.st7{fill:#BF4545;}
	.st8{fill:#FFFFFF;}
	.st9{fill:#232326;}
	.st10{fill:#79787A;}
	.st11{fill:#592B14;}
	.st12{fill:#8E441B;}
	.st13{fill:#B56943;}
	.st14{fill:#344746;}
	.st15{fill:#E6E8EF;}
	.st16{fill:#455E5D;}
	.st17{fill:#CED2DD;}
	.st18{fill:#FF5D54;}
	.st19{fill:#324443;}
	.st20{fill:#9B9BA7;}
	.st21{fill:#C7CAD3;}
	.st22{fill:#717891;}
</style>
<g id="Layer_2_1_">
	<g id="Layer_1-2">
		<g id="Sunny">
			<g>
				<defs>
					<rect id="SVGID_1_" x="3.2" y="1.6" width="345.2" height="1062"/>
				</defs>
				<clipPath id="SVGID_2_">
					<use xlink:href="#SVGID_1_"  style="overflow:visible;"/>
				</clipPath>
				<g class="st0">
					<g>
						<defs>
							<rect id="SVGID_3_" x="3.2" y="1.6" width="345.2" height="1062"/>
						</defs>
						<clipPath id="SVGID_4_">
							<use xlink:href="#SVGID_3_"  style="overflow:visible;"/>
						</clipPath>
						<g class="st1">
							<path class="st2" d="M208.8,137.1c0,0-1.7,40,0,46.6c1.7,6.5,17.7,17.1,34,24.8c0,0-21,28.7-62.1,27.9
								c-41.1-0.9-51.5-17.9-58.1-27.3c0,0,31.3-10.9,32.1-24.2c0.8-13.3,0-47.7,0-47.7H208.8z"/>
							<path class="st3" d="M182.2,174.9c-13,0-22-8.6-27.1-15.6c-0.1-11.8-0.3-22.2-0.3-22.2h54.1c0,0-0.5,10.3-0.7,21.6
								C203.8,165.7,195.5,174.8,182.2,174.9"/>
							<path class="st2" d="M136.1,95.9c3.8,46.8,16.9,69.2,44.5,69.2s41-18.5,44.5-69.2c2.6-37.4-17-60.6-44.5-60.6
								S133,57.1,136.1,95.9"/>
							<path class="st4" d="M203.7,103.5c0,2.4,1.2,4.3,2.8,4.3c1.5,0,2.8-2,2.8-4.3c0-2.3-1.2-4.3-2.8-4.3
								C205,99.2,203.7,101.1,203.7,103.5"/>
							<path class="st4" d="M153,103.5c0,2.4,1.2,4.3,2.8,4.3c1.5,0,2.8-2,2.8-4.3c0-2.3-1.2-4.3-2.8-4.3
								C154.2,99.2,153,101.1,153,103.5"/>
							<path class="st5" d="M216.8,91.5c0.4-0.1,0.8-0.4,1-0.8c0.5-0.7,0.3-1.7-0.5-2.1c0,0-0.1,0-0.1-0.1c-3.1-2.3-13.5-4.3-18.4,1
								c-0.7,0.6-0.8,1.6-0.3,2.3c0.6,0.7,1.5,0.5,2.3,0.3c6.6-2.3,14.3-0.9,14.4-0.9C215.8,91.5,216.3,91.6,216.8,91.5"/>
							<path class="st5" d="M145,91.5c-0.4-0.1-0.8-0.4-1-0.8c-0.5-0.7-0.2-1.7,0.5-2.1c0,0,0,0,0.1,0c3.1-2.3,13.5-4.2,18.4,1.1
								c0.7,0.6,0.8,1.6,0.2,2.3c-0.6,0.7-1.5,0.5-2.3,0.2c-6.5-2.3-14.3-1-14.4-1C146,91.4,145.5,91.4,145,91.5"/>
							<path class="st3" d="M181.3,130.5c2.3-0.1,4.2-0.7,5.1-2.4c2.7-5.4-2.4-14-2.9-15.1c-0.3-0.7-0.8-1.2-1.6-0.8
								c-0.7,0.3-0.5,1.3-0.1,2c1.6,3.5,2.6,10,1.1,12.4c-0.4,0.6-1.1,1-1.8,1c-0.8,0.1-1.4,0.8-1.3,1.6
								C179.7,130.5,181.2,130.5,181.3,130.5"/>
							<path class="st6" d="M227.6,91.8l-1.6,7.1l-3.6,1.4c0,0-2.1-12.1-3-20.4c-1.6-14.2-2.3-25.6-37.6-26
								c-36.7-0.4-36.7,11.5-40,25.3c-1.5,7-2.3,14.1-2.5,21.3l-3.8-1.6l-2.3-7c0,0,0.2-11.9,0-23c0,0,1.7-25.4,14.2-28.2
								c0,0,7.7-15.5,30.9-15.5c29.6,0,30.4,7.4,31.3,9.2c3.6,1,6.8,3.2,9.1,6.3c3.5,4.9,4.3,5.8,8.2,17.3c0.6,2.9,0.8,5.9,0.7,8.8
								C227.4,69.1,229.4,82.9,227.6,91.8"/>
							<path class="st5" d="M226,97.7c0,0-2.6,27.6-6.4,39.3s-9.4,29.6-38.5,29.6s-36-22.1-38.6-29.7c-3.2-9.6-6.2-26.4-7.1-39.1
								l3.8-0.1c0,0,1,23.3,13.8,34.5c9.2,8,0.8,24.4,22,24.4c1.8,0,5.6-7.8,6.3-7.8s4.4,7.9,6.2,7.9c21.6,0,14.5-14.7,23.1-24.8
								c7.8-9.2,8.7-12.4,11.9-34.2L226,97.7z"/>
							<path class="st7" d="M182.3,142.7c4.6,0,9-1.3,12.8-3.8c0.6-0.5,0.8-1.4,0.3-2c-0.5-0.6-1.4-0.8-2-0.3
								c-0.4,0.3-10.3,7.2-22.7-0.1c-0.7-0.4-1.6-0.1-2,0.6c-0.4,0.7-0.2,1.5,0.5,1.9C173.3,141.4,177.8,142.6,182.3,142.7"/>
							<path class="st5" d="M181.8,131.6c0,0,19-1.3,21,6.9c2,8.2,5.4,12.7,5.4,12.7l-12.7,4.9c0,0,4-16.9-1.2-18.2
								c-5.2-1.3-22.9-1.5-26.6,0.1c-3.7,1.6-1,18-1,18l-12.3-5.1c0,0,5.4-8.2,6.8-12.4C163.1,132.3,170.8,130.8,181.8,131.6"/>
							<path class="st8" d="M142,71.2c25.4-6.7,52.1-6.9,77.6-0.6c1.6-20.4-17.9-37.2-40.1-36.6C157.9,34.6,140,51.5,142,71.2"/>
							<path class="st5" d="M153.1,30.6c0.3,6.3,8.8,8.2,21.1,18.3c0.4,0.3,1,0.8,2.2,1.9c29.1,25.5,44.2,38.8,47.6,57.1
								c0.5,2.5,0.5,7.8-0.1,13.4c5.6-4.1,10.2-9.4,13.5-15.5c0,0,0.2-0.3,0.4-0.7c1.5-3,4.7-11.6,4.3-34.7
								c-0.2-10.3-0.3-15.5-1.2-19.4c-6.1-27.1-56.7-38.3-64.3-39.9C165.8,15.7,152.7,22.7,153.1,30.6"/>
							<path class="st9" d="M215.3,24.4c-1,1.8-2.1,3.7-3.3,5.6c-7.2,11-16.3,20.7-27,28.5l-8.6-7.6l31.4-31.3L215.3,24.4"/>
							<path class="st9" d="M203.9,47.3c0.7-0.5,7.4,5.7,11.9,10.7c3.5,3.9,6.6,8.2,9.2,12.8c3.5,6.1,9.2,16.4,8.3,29.8
								c-0.3,5.5-1.8,11.4-2.8,11.4c-1.4-0.1,0.8-13.2-3.4-27.9C220.8,61.8,202.8,48,203.9,47.3"/>
							<path class="st9" d="M217,37.6c-0.3,0.2,2.6,3.6,5.7,8.2c5.3,7.9,9.4,16.6,12.2,25.7c4.1,14.5,2.1,24.7,2.4,24.7
								c0.5,0,7.3-24.7-6.9-44.9C225.3,44.2,217.4,37.3,217,37.6"/>
							<path class="st5" d="M139.4,120.4c-0.7-4-0.9-8.1-0.5-12.2c0.4-4.7,3.1-16.2,27.7-41.3c12.9-13.2,17.5-14,33.8-30.3
								c5.7-5.7,10.1-10.4,13-13.7c-4.6-4.5-9.6-8.5-15-12.2c-8-5.4-12.1-7.9-16.1-8.7c-9.4-2-17.5,2.4-31.6,10.3
								c0,0-30.8,17.3-35.1,35.3c-1,4.2,0.5,1.8,2.3,28.5c1.1,15.8,2.1,23.7,4.7,28.5C124.9,108.8,129.5,114.5,139.4,120.4"/>
							<path class="st9" d="M121.8,79.5c-1-0.4,4.4-10.6,8.9-17.5c8.3-12.8,25.5-33.2,63-52.5c-16.8,11.2-32.2,24.4-46,39.2
								C133.5,64.3,123.1,80,121.8,79.5"/>
							<path class="st9" d="M126,102.5c-1-0.2,1.9-11,4.7-18.4c5.2-13.7,17.3-36,49.7-59.9c-13.9,13.2-26,28.2-36.1,44.6
								C133.9,86,127.3,102.8,126,102.5"/>
							<path class="st9" d="M117.1,52.6c-0.6-0.5,6.2-8,11.4-13c9.7-9.2,27.9-23.1,60.6-32.5c-15.7,6.5-30.6,14.8-44.5,24.5
								C129.8,42,117.8,53.2,117.1,52.6"/>
							<polygon class="st10" points="76.5,990.3 71.4,1020.7 45.3,1017.5 47.8,986.3 							"/>
							<path class="st11" d="M64,1052.4c0,0-5.3,13.3-20.6,10.8s-12.4-15.5-12.4-15.5L64,1052.4z"/>
							<path class="st12" d="M33.8,1035.4c3.7-7.8,11.5-21.9,11.5-21.9c13.7-8.1,23.2-3.2,26.8,0.6l0,0c0,0,0.2-0.3,0.9-3.9
								c0,0,1.1,8.1-0.6,12.9l0,0c-0.9,2.9-4.4,7.4-5.1,18.5c-1,16.7-13.4,20.9-26.2,17.9C28.2,1056.3,30.1,1043.1,33.8,1035.4"/>
							<path class="st13" d="M61.5,1046.2c0,0-20.2,9.1-27.2-3.3c0,0-4.5,9,10.7,11.6C54.9,1056.1,61.5,1046.2,61.5,1046.2"/>
							<polygon class="st10" points="230.7,987.3 230.4,1020 201.8,1020 201.2,987.3 							"/>
							<path class="st11" d="M198.3,1029.5l0.6,7.8c5.1,2.9,10.9,4.4,16.8,4.1c0,0,9-3.2,14.1,1.2c9.6,8.4,40.4,14.7,43.6,3.5
								L198.3,1029.5z"/>
							<path class="st12" d="M199.2,1010.5c0,0-3.8,18.2-0.7,20.8c3.1,2.6,23.2,5.9,33.4,11.1c10.2,5.2,40.7,10.9,42.1,2.1
								c1.4-8.8-11.1-14.2-19.6-17.5c-8.5-3.3-17-15.1-21.5-16.6c0,0-2.4-2-11.6,4.3C216.5,1018,204.4,1007.9,199.2,1010.5"/>
							<path class="st13" d="M269.3,1035.9c0,0-4.2,7.2-22.7,5c0,0,17.7,4.9,26.3,0.7C272.1,1039.4,270.9,1037.5,269.3,1035.9"/>
							<path class="st14" d="M84.7,997.2c2.8-31.6,90.8-346.8,94.1-386.3c0,0,4.4,326.1,13,386.3h49.5
								c5.2-112.8,32.6-420,27.1-511.6H88.9c0,0-36.6,387.9-51.3,511.6H84.7z"/>
							<path class="st2" d="M341.1,569.8c0,0,5.1,56-23.8,62.2c0,0-12.6,2.7-15.6,1.6c0,0-1.3-2.9,2.1-5.7
								c3.3-2.8,14.1-5.9,13.8-10.5s0.7-18.5-2-17.7s-6.2,18.5-12,16.9c0,0-1.6-0.4-1-6.5c0.5-6.1,5.4-29.5,7.6-33.5
								s4.4-16.8,4.4-16.8s15.3-11.6,24.6-0.3L341.1,569.8z"/>
							<path class="st15" d="M341.8,545.9c0,0,1.1,15.6,1.3,19.9c0,0-17.1,9.2-34.4,2.1c0,0-1.2-15.4-1.7-18.6L341.8,545.9z"/>
							<path class="st16" d="M285.2,232.2c0,0,18.6,10.3,23.7,45.5c4.3,29.2,15.1,91.3,23.4,143.9c0,0,14.3,56,16.1,129.3
								c0,0-18.6,9-47.1,5.7c0,0-14.1-92.5-20.4-124.5c-3.2-16.2-15-63.5-19.8-109.8C256.7,278.8,265.4,237.8,285.2,232.2"/>
							<path class="st15" d="M151.5,192.9c0,0,28.3,20.5,64.1,0c0,0,42.7,24.1,62.1,36c0,0-5.2,194.5-9.2,251.8
								c0,0-93.9,11.8-179.6,0c0,0-7.3-239.5-6.5-248.9C82.4,231.9,123.3,206,151.5,192.9"/>
							<path class="st17" d="M185.4,202l-14.5,19.4l-25.7-25.5c2.1-1.1,4.2-2.1,6.2-3C161.5,199.4,173.4,202.5,185.4,202"/>
							<path class="st17" d="M185.8,202c10.5-0.6,20.7-3.7,29.7-9.1l2.9,1.6l-17.4,25L185.8,202z"/>
							<path class="st18" d="M199,210.1l-7.4,13c0,0,24.2,116.2,20.2,203.5c0,0-7.9,15.6-20.8,27.1c0,0-14.9-12.9-19.6-26.5
								c0,0-1-133.5,9.2-203.8l-7.8-11.9l12.7-14.8L199,210.1z"/>
							<polygon class="st15" points="152.5,174.8 185.4,196.6 210.7,177.3 218.2,193.2 200.5,213.8 185.3,198.8 171.4,215.6 
								146.3,195.2 							"/>
							<path class="st16" d="M216.6,189.8c0,0,14.5,170.8,17,292.9c0,0,1.6,71.3,16.7,76.2c15.1,4.9,40.6-1,42-8.3
								c1.5-7.3-7.3-83.6-8.6-110.9c-1.3-27.3,1.4-207.5,1.4-207.5s-14.3-15.6-49.3-29.4c-0.6-1.4-1.2-2.8-2-4.2
								C233.1,197.3,216.9,187.6,216.6,189.8"/>
							<path class="st19" d="M235.9,371.9c0.4,0,0.7-0.2,0.9-0.5c19.8-38.9,18.7-107.2,18.7-107.9v-0.4l-18-15.5l13.6-10.2
								l-13.6-31.7c-0.3-0.5-0.9-0.6-1.3-0.4c-0.4,0.2-0.6,0.7-0.5,1.1l13,30.2l-14.4,10.7l19.2,16.5c0.1,5.9,0.2,69.7-18.5,106.5
								c-0.2,0.5,0,1.1,0.4,1.3C235.6,371.9,235.7,371.9,235.9,371.9"/>
							<path class="st16" d="M147.9,190.1c0,0-1.7,170.5-4.3,292.6c0,0-10.4,71.3-25.5,76.2s-50.3-1-51.8-8.3
								c-1.5-7.3,13.2-83.6,14.5-110.9s-9.2-204.6-9.2-204.6s21.2-13.7,57.1-32.4c0.6-1.4,1.2-2.8,2-4.2
								C131.5,197.2,147.6,187.8,147.9,190.1"/>
							<path class="st19" d="M139.7,371.2c-0.4,0-0.7-0.2-0.9-0.5c-22.2-37.5-25.5-105.8-25.5-106.5v-0.4l17-16.6l-14.3-9.3
								l11.5-32.5c0.2-0.5,0.8-0.7,1.3-0.5c0.5,0.2,0.7,0.7,0.6,1.2l-11,31l15,9.8l-18.1,17.7c0.3,5.9,4.2,69.6,25.2,105.2
								c0.3,0.5,0.1,1.1-0.3,1.3C140,371.2,139.9,371.2,139.7,371.2"/>
							<path class="st19" d="M283.6,433.4c0.5,0,1-0.1,1-0.6l1-155.2c0-0.5-0.4-0.9-0.9-0.9c0,0,0,0-0.1,0c-0.5,0-1,0.4-1,1
								l-1,155.1C282.6,433.2,283.1,433.3,283.6,433.4L283.6,433.4z"/>
							<polygon class="st20" points="141,255.9 174.4,379.6 173.4,384.5 139,258.8 							"/>
							<path class="st16" d="M71.5,235.1c0,0-27.9,21.1-48.1,90.9c-18.3,62.9-26.5,81.5-13,91.2c23.6,16.9,39.2,7.2,72-56.7
								C82.4,360.6,96.9,267.4,71.5,235.1"/>
							<path class="st16" d="M40.5,349.2c0,0-10,1.8-17.2,14S5.2,385.3,3.7,396.3s0.1,21,11,25.5c10.9,4.5,22.4,2.4,27.8-2.3
								c5.4-4.7,26.3-40.5,26.3-40.5s6.7-14.1-12.2-25.2C45,346.9,40.5,349.2,40.5,349.2"/>
							<path class="st19" d="M14.2,374.7c3-3.9,5.7-7.9,8.3-12.1c4.6-7.9,10.3-11.5,14-13.2c-0.3,0.8-0.5,1.7-0.6,2.5
								c-4.9,2.7-9,6.8-11.7,11.7c-2.6,4.2-5.4,8.3-8.4,12.2c-3,3.8-5.7,7.9-8.1,12.1c-0.5-0.5-1-0.9-1.6-1.3
								C8.5,382.5,11.2,378.5,14.2,374.7"/>
							<path class="st19" d="M69.3,380c-2.3,3.9-15.4,26.2-22.7,36.1l-2-0.6c6.8-9,20.1-31.6,22.8-36.2L69.3,380"/>
							<path class="st15" d="M33.1,363c0-9.3,4.7-15.1,14-15.1s22.8,12.2,22.8,21.5s-7.3,14-16.7,14S33.1,372.4,33.1,363"/>
							<polygon class="st20" points="141,255.9 23.2,255.9 21.2,258.8 139,258.8 							"/>
							<polygon class="st21" points="139,258.7 21.7,258.7 65,385.8 173.2,383.9 							"/>
							<path class="st22" d="M99.4,309.8c-0.7-7-4.7-12.5-9-12.3s-7.3,6-6.6,13c0.6,7,4.7,12.5,9,12.3
								C97.1,322.6,100.1,316.7,99.4,309.8"/>
							<path class="st2" d="M51.1,345.4c0,0,22.8-21.9,31.4-30.2c0,0,3.7-4.3,6.4-1.3c2.7,3-1.3,7.6-1.3,7.6l-16.9,21l13.4-6.1
								c3.8-1.7,13.6-7.6,16.4-7.9c3-0.2,5.5,5.9-1.2,8.7c0,0,3.4-1.1,4.3,1.5c0.5,1.6,1.1,3.4-2,6.1c0,0,4.1,3.8-3.8,11
								c-6.8,6.1-15.7,13.6-17.8,15c-4.1,2.8-18.2,7.3-22,6.7c-3.8-0.6-17.3-6.7-16.7-25s4.6-22.6,4.6-22.6L51.1,345.4z"/>
							<path class="st3" d="M76.2,351.1c0.1,0,0.2,0,0.3-0.1l22.2-12.7c0.2-0.2,0.3-0.5,0.1-0.7c-0.1-0.2-0.4-0.3-0.7-0.2
								l-22.2,12.7c-0.2,0.2-0.3,0.5-0.2,0.7C75.8,351,76,351.1,76.2,351.1"/>
							<path class="st3" d="M81.9,359c0.1,0,0.2,0,0.3-0.1l19-13.1c0.2-0.2,0.3-0.5,0.1-0.7c0,0,0,0,0,0c-0.2-0.2-0.5-0.3-0.7-0.1
								l-19,13.2c-0.3,0.1-0.4,0.4-0.2,0.7C81.5,358.9,81.7,359.1,81.9,359"/>
						</g>
					</g>
				</g>
			</g>
		</g>
	</g>
</g>
</svg>
