<?xml version="1.0" encoding="utf-8"?>
<!-- Generator: Adobe Illustrator 25.0.1, SVG Export Plug-In . SVG Version: 6.00 Build 0)  -->
<svg version="1.1" id="Layer_1" xmlns="http://www.w3.org/2000/svg" xmlns:xlink="http://www.w3.org/1999/xlink" x="0px" y="0px"
	 viewBox="0 0 315.6 1065.1" style="enable-background:new 0 0 315.6 1065.1;" xml:space="preserve">
<style type="text/css">
	.st0{clip-path:url(#SVGID_2_);}
	.st1{clip-path:url(#SVGID_4_);}
	.st2{fill:#453878;}
	.st3{fill:#F7C2D0;}
	.st4{fill:#FF8EBE;}
	.st5{fill:#BC8A68;}
	.st6{fill:#BC806F;}
	.st7{fill:#EAB8AC;}
	.st8{fill:#CC9992;}
	.st9{fill:#23242B;}
	.st10{fill:#30323D;}
	.st11{fill:#A0695C;}
	.st12{fill:#AA533F;}
	.st13{fill:#FF8D94;}
	.st14{fill:#3A3C47;}
	.st15{fill:#5B5F70;}
</style>
<g id="Layer_2_1_">
	<g id="Layer_1-2">
		<g id="Uzma">
			<g>
				<defs>
					<rect id="SVGID_1_" x="10.1" width="295.4" height="1065.1"/>
				</defs>
				<clipPath id="SVGID_2_">
					<use xlink:href="#SVGID_1_"  style="overflow:visible;"/>
				</clipPath>
				<g class="st0">
					<g>
						<defs>
							<rect id="SVGID_3_" x="10.1" width="295.4" height="1065.1"/>
						</defs>
						<clipPath id="SVGID_4_">
							<use xlink:href="#SVGID_3_"  style="overflow:visible;"/>
						</clipPath>
						<g class="st1">
							<path class="st2" d="M38.7,1036.3c6.2-11.2,8.9-24.7,8.9-24.7c14-8.3,20.9-2,25.4,1.8c0,0,1.1,0.3,1.8-3.5
								c0,0,2.6,8.4-0.7,12.9c0,3.8-2.3,7.6-4.3,18.7c-3.9,21.4-15.2,25.8-26.7,22.8C30,1060.9,34.9,1043,38.7,1036.3"/>
							<path class="st2" d="M265.5,1017.9c-9-3.5-20.8-15.1-25.1-17.7c0,0-3.3-0.9-12.5,4.2c-8.6,4.7-15.4-6.1-18.4-5
								c0,0-6.4,12.6-1.1,25.6c0.9,2.2,24.5,2,35.6,11.9c11.3,10.1,40.7,8.6,42.3-0.6"/>
							<path class="st3" d="M88.4,531.1c8-50.6,18.6-89.2,21.3-115.4c0.2-1.6,0.4-5.5,0.5-8.4c0,0,1-11.4,1.1-14.3
								c0.5-11.8,1.1-14.4,0.4-18.4c-9.4-62.8-27.4-171.3-27.4-171.3c20.8-15.8,70.4-45.8,70.4-45.8c27.1,16.7,49.5,1,49.5,1
								c31.6,16.1,67.3,39.5,67.3,39.5c0.7,8.2-6.9,135.9-13.7,177.7c-0.6,3.4,31.9,125.6,30.6,225.6c-1.6,115.7-5,403-5,403
								s-33.8,20.2-104.2,7.5c0,0-28.9-5.3-70.3,3.3c0,0-56.5,6.6-99-15c0,0,69.5-413,78.3-468.9"/>
							<path class="st4" d="M265.5,1010.9c-7.1,1.8-14.3,3.1-21.5,3.9l10.8-208.9L265.5,1010.9z"/>
							<path class="st4" d="M142.3,1010.5c-11.2,0.7-22.3,2.2-33.2,4.4c0,0-5.5,0.7-14.4,0.9l37.9-175.2L142.3,1010.5z"/>
							<path class="st3" d="M84.5,203.3c0,0,20.8,22,44.9,102.4c0,0,10.3-0.7,23.6-2.2l2.9-14l9.2,2.4l1-4.2l34.1,7.7
								c13.4-3.3,12.9-3.2,20.3-5.1l1.6,5.9l-1.1-4.1l8.9-2l3.1,6.6l28.3,1.4c0,0-11.1-84.8,10.5-100.1c0,0,28.2,13.7,33.5,95
								c4.1,63.7-31.3,64.6-39.6,64.6s-63.3-16.2-63.3-16.2s-58.9,20.4-81.9,18.6c-4-0.3-42.8,9.4-55.8-96.4
								C61.2,236.2,71.5,214,84.5,203.3"/>
							<path class="st4" d="M156.8,290.5l-0.2-1.8l7.8,2l1-4.2l34.8,7.8l2.2-0.6c10.9-2.7,10.9-2.7,17.8-4.5l0.8-0.2l0.5,1.9
								l7.2-1.6c0,0.6,0,1.2,0,1.8l-6.8,1.5l-1.7,0.3l-0.5-1.8c-6.1,1.6-6.5,1.7-17,4.3l-2.6,0.7l-33.5-7.6l-1,4.2L156.8,290.5
								C156.9,290.5,156.8,290.5,156.8,290.5"/>
							<path class="st4" d="M99.3,352c6,4.2,13.1,6.6,20.5,7c0.3,0,0.5,0,0.7,0c0.9,0.1,1.9,0,3,0l0,0c24.3,0,78-18.3,78.5-18.4h0.3
								l0.3,0.1c0.5,0.1,41.3,12.1,57.5,15.3c-0.1,0.5-0.2,1.1-0.3,1.6c-15.8-3.1-53.5-14.2-57.5-15.4c-4.1,1.4-55.1,18.5-78.8,18.5
								l0,0c-1.1,0-2.2,0.1-3.1,0c-0.2,0-0.3,0.1-0.6,0.1c-7.7-0.4-15.1-2.9-21.4-7.3C98.7,353,99,352.5,99.3,352"/>
							<path class="st5" d="M120.8,279.9c-0.4,0-0.7-0.3-0.8-0.7c-6.9-29.8-29.3-67-29.5-67.3c-0.2-0.4,0-0.9,0.4-1.2
								c0.4-0.2,0.8-0.1,1.1,0.3c0.2,0.4,22.8,37.8,29.8,67.8c0.1,0.5-0.2,0.9-0.7,1L120.8,279.9"/>
							<path class="st4" d="M260.3,264.3L260.3,264.3c-0.5,0-0.9-0.4-0.9-0.9c0.1-1.6,2.9-39.6,8.9-54.8c0.2-0.4,0.7-0.7,1.1-0.5
								c0.4,0.2,0.7,0.7,0.5,1.1c-5.9,15-8.7,53.9-8.7,54.3C261.1,263.9,260.7,264.3,260.3,264.3"/>
							<path class="st4" d="M198.3,340.6c-0.1,0-0.1,0-0.2,0L157.9,330l1.5-8.9l-8.8-2.1l1.9-7.3c0.1-0.5,0.5-0.8,1-0.7
								c0.5,0.1,0.8,0.5,0.7,1l0,0l-1.3,5.8l8.5,1.9l-1.5,8.9l38.7,10.2c0.5,0.1,0.7,0.6,0.6,1c0,0,0,0,0,0.1
								C199.1,340.4,198.8,340.6,198.3,340.6"/>
							<path class="st4" d="M287.7,307.9c-0.2,0-0.5-0.1-0.6-0.3c-7.6-8.4-29.3-8.8-29.5-8.8c-0.4,0.1-0.8-0.3-0.9-0.7
								c-0.1-0.4,0.3-0.8,0.7-0.9c0.1,0,0.1,0,0.2,0l0,0c0.9,0,22.7,0.4,30.7,9.3c0.3,0.3,0.3,0.9,0,1.2c0,0,0,0,0,0
								C288.1,307.9,287.9,308,287.7,307.9"/>
							<path class="st4" d="M110.5,307.9c-0.5,0-0.9-0.4-0.9-0.9c0-0.3,0.2-0.6,0.5-0.8c5.6-2.4,11.9-2.7,17.8-0.9
								c0.5,0.1,0.7,0.6,0.6,1.1c-0.1,0.5-0.6,0.7-1.1,0.6c0,0-0.1,0-0.1,0c-0.1,0-8.5-2.8-16.5,0.8
								C110.7,307.9,110.6,307.9,110.5,307.9"/>
							<path class="st6" d="M230.4,290.1c0,0,10.7-17.3,26.2-21.9c0,0,14.9-10.5,22.5-0.4c-0.1,1.4-1.4,2.4-2.7,2.3
								c-0.1,0-0.1,0-0.2,0c-2.2-0.3-7.9-4-16.2,5.4c0,0,11.7-3.4,18.8,1.4c0.8,0.8,1,1.9,0.7,3c-1.6,4.5-3.5,9-5.7,13.2
								c-1,0.2-2,0.2-3,0c-1.1-0.3-8.4,0.4-10.7,1.7c0,0-4.4,3.2-5.3,3.1l-23.3-1.5C230.4,294.4,230.1,292.2,230.4,290.1"/>
							<path class="st6" d="M156.1,291.5c0,0-20.1-8.5-33.7-8.6l6.9,22.9c0,0,15.9,4.7,22.6,4.7C152,310.5,156.1,300.1,156.1,291.5"
								/>
							<path class="st4" d="M229.5,297.3c0.5,0,0.9-0.5,0.9-1c0-0.5-0.4-0.9-0.8-0.9c-0.2,0-17.3-0.3-28.4-0.7
								c-0.5,0-0.9,0.3-0.9,0.8c0,0,0,0,0,0c0,0.5,0.3,0.9,0.8,1C212.2,296.9,229.3,297.3,229.5,297.3L229.5,297.3z"/>
							<path class="st7" d="M201.4,117.2c0,0-1.4,32.5,0,37.8c1.4,5.3,14.6,13.8,28.1,20.2c0,0-17.3,23.6-51.3,22.9
								c-34-0.7-40.2-14.9-45.7-22.6c0,0,23.5-8.4,24.2-19.4c0.6-11,0-38.8,0-38.8L201.4,117.2z"/>
							<path class="st8" d="M179.4,147.1c-10.7,0-18.2-6.5-22.4-12.3c-0.1-9.8-0.3-17.7-0.3-17.7h44.7c0,0-0.4,7.9-0.5,17.2
								C197.3,140.3,190.4,147.1,179.4,147.1"/>
							<path class="st6" d="M131.4,68.9c3.9,48.4,22.4,71.6,46,71.6s42.4-19.1,46.1-71.6c2.7-38.7-17.6-62.6-46-62.6
								S128.2,28.7,131.4,68.9"/>
							<path class="st9" d="M199.8,79.9c0,2.3,1.3,4.2,2.9,4.2c1.6,0,2.9-1.9,2.9-4.2s-1.3-4.2-2.9-4.2
								C201.1,75.7,199.8,77.6,199.8,79.9"/>
							<path class="st9" d="M150.5,79.9c0,2.3,1.3,4.2,2.9,4.2c1.6,0,2.9-1.9,2.9-4.2s-1.3-4.2-2.9-4.2
								C151.9,75.7,150.6,77.6,150.5,79.9"/>
							<path class="st10" d="M213,67.4c0.5-0.1,0.9-0.3,1.3-0.7c0.6-0.6,0.5-1.6-0.1-2.1c-0.1-0.1-0.2-0.2-0.4-0.3
								c-4.1-2.3-13.8-7-23.7,1.2c-0.7,0.5-1,1.4-0.5,2.2c0.1,0.1,0.1,0.2,0.2,0.3c0.9,0.6,2.1,0.7,3,0.2c6-1.8,12.4-2.2,18.5-1.1
								C211.8,67.5,212.4,67.6,213,67.4"/>
							<path class="st10" d="M143.7,67.2c-0.5-0.1-0.9-0.3-1.2-0.7c-0.5-0.7-0.4-1.7,0.3-2.2c0.1-0.1,0.2-0.1,0.3-0.2
								c4-2.2,13.4-6.6,22.4,1.9c0.7,0.5,0.9,1.5,0.3,2.2c-0.1,0.1-0.1,0.1-0.2,0.2c-0.8,0.6-2,0.7-2.9,0.1
								c-5.6-2.2-11.6-2.8-17.5-1.6C144.8,67.2,144.3,67.3,143.7,67.2"/>
							<path class="st11" d="M178.2,104.6c2.4-0.1,4.3-0.7,5.2-2.5c2.8-5.6-2.5-14.5-3-15.6c-0.3-0.8-0.9-1.2-1.6-0.9
								c-0.8,0.3-0.5,1.3-0.1,2.1c1.6,3.6,2.6,10.3,1.1,12.8c-0.4,0.7-1.1,1.1-1.9,1.1c-0.8,0.1-1.4,0.8-1.4,1.6
								C176.6,104.7,178.2,104.7,178.2,104.6"/>
							<path class="st12" d="M179.2,117.4c3.9,0,7.8-1.1,11.1-3.3c0.6-0.4,0.7-1.2,0.3-1.7c0,0,0,0,0,0c-0.4-0.6-1.2-0.7-1.7-0.3
								c-0.4,0.3-8.9,6.2-19.5-0.1c-0.6-0.3-1.3-0.2-1.7,0.4c-0.3,0.6-0.2,1.3,0.4,1.7c0,0,0,0,0,0
								C171.4,116.3,175.3,117.5,179.2,117.4"/>
							<path class="st6" d="M139,75.5c0,0-2.3-6.8-11.4-6c-8.8,0.8-5.8,23.4,1.9,27.1c7.7,3.7,10.3-7.5,10.3-7.5L139,75.5z"/>
							<path class="st6" d="M216,75.5c0,0,2.3-6.8,11.4-6c8.8,0.8,5.8,23.4-1.9,27.1c-7.7,3.7-10.3-7.5-10.3-7.5L216,75.5z"/>
							<path class="st13" d="M126.1,55.7c0,0,44.7-33.6,102.2,0c0,0-4.7-50.6-52.4-50.6C135.1,5.1,126,55.7,126.1,55.7"/>
							<path class="st14" d="M142.8,114.7c-4.9-11.1-9.7-50.2,0-62.7c9.7-12.5,18.8-23,34.3-22.6s25.7,7.6,36.2,19.4
								s4.2,51.3,1.1,63.2c-3.1,11.8-17.5,27.7-34.9,28.5S147.8,125.8,142.8,114.7 M66.5,292.8c11.8,4.9,72.9-24.6,112.7-39
								c39.8-14.4,81.6-65.2,81.6-65.2c-3.3-14.2-20.6-19.7-20.9-24.6c-0.3-5-8.9-7.3-8.9-7.3c-20.6-11.8,0.5-51.7,1.9-69.3
								c1.2-14.8,0.6-21.1,0.6-21.1C223.8-3.8,179.1,0,179.1,0c-52.2,0-56.9,65.8-56.9,65.8c-1.9,8.1-1.9,16.6,0,24.7
								c4.8,18.4,17.6,58.6,17.6,58.6c-2.8,5.8-15.4,6.7-16.1,11.2c-0.2,1.5-1.3,9.2-6.3,11.7c-2.5,1.2-8.3,4.3-10.3,6.7
								c-5,5.8-4.7,8.9-7.9,11C43.8,224.7,66.5,292.8,66.5,292.8"/>
							<path class="st15" d="M140.7,149c6.8-5,16.3-3.5,25.1-3.8c8.8-0.3,23.6-5.5,23.6-5.5s-11,7.7-21.9,7.9
								c-10.9,0.3-13.6-1.4-21.1,0L140.7,149z"/>
							<path class="st15" d="M153.3,164.9c6.9-0.1,13.7-1.4,20.2-3.8c26.3-9,38.1-35.6,38.2-35.9c0.2-0.5,0-1.1-0.5-1.4
								c-0.5-0.2-1.1,0-1.4,0.6c-0.1,0.3-11.5,26-36.9,34.7c-15.5,5.3-24,3.7-31.5,2.3c-5.1-1-9.9-1.9-16.1-0.6
								c-0.5,0.3-0.8,0.9-0.5,1.4c0.2,0.4,0.5,0.6,0.9,0.6c5.8-1.2,10.2-0.4,15.3,0.6C145,164.3,149.2,164.8,153.3,164.9"/>
							<path class="st15" d="M175.2,193.2c1.9,0.1,3.8-0.2,5.6-0.8c13.8-5.3,38.3-51.4,39.4-53.4c0.4-0.4,0.4-1.1-0.1-1.5
								c-0.4-0.4-1.1-0.4-1.5,0.1c-0.1,0.1-0.2,0.3-0.3,0.5c-0.3,0.5-25.2,47.3-38.3,52.4s-61.5-17.3-62-17.6
								c-0.6-0.1-1.2,0.3-1.3,0.9c-0.1,0.4,0.1,0.8,0.4,1.1C118.9,175.6,157.1,193.2,175.2,193.2"/>
							<path class="st15" d="M180.4,195.4L180.4,195.4c37.4-2.4,57.3-27.8,57.5-28.1c0.2-0.5,0-1.2-0.5-1.4
								c-0.4-0.2-0.8-0.1-1.1,0.1c-0.2,0.2-19.5,24.9-55.9,27.2c-0.6,0.1-1,0.5-1,1.1C179.4,194.9,179.9,195.3,180.4,195.4"/>
							<path class="st15" d="M182.6,224.9c32.2,0,68.3-32.8,69.9-34.3c0.3-0.5,0.2-1.2-0.3-1.5c-0.3-0.2-0.8-0.2-1.1,0
								c-0.4,0.4-42.7,38.8-75.5,33.2c-32.8-5.6-62.2-43.7-62.5-44.1c-0.5-0.4-1.1-0.3-1.5,0.1c-0.3,0.3-0.3,0.8-0.2,1.1
								c0.3,0.4,30.1,39.1,63.8,44.9C177.7,224.7,180.2,224.9,182.6,224.9"/>
							<path class="st15" d="M215.2,49.4c0.6,0,1.1-0.5,1-1.1c0-0.1,0-0.3-0.1-0.4c-0.3-0.7-8.7-16.1-15.8-21.2
								c-0.4-0.5-1.1-0.5-1.5-0.1c-0.5,0.4-0.5,1.1-0.1,1.5c0.1,0.1,0.2,0.2,0.4,0.3c6.7,4.9,15.1,20.4,15.2,20.6
								C214.5,49.2,214.8,49.4,215.2,49.4"/>
							<path class="st15" d="M141.3,52.3c0.4,0,0.8-0.3,1-0.7c0-0.1,5.2-13.3,12-22.6c0.3-0.5,0.2-1.1-0.2-1.5
								c-0.5-0.3-1.1-0.2-1.5,0.2c-7,9.5-12.1,22.5-12.3,23.1c-0.2,0.5,0.1,1.1,0.6,1.4C141,52.3,141.1,52.3,141.3,52.3"/>
							<path class="st15" d="M158.5,142.9c0.6,0,1.1-0.6,1-1.1c0-0.2-0.1-0.4-0.2-0.6c-0.1-0.1-11.1-12.8-14-20.9
								c-0.2-0.5-0.8-0.8-1.3-0.6c-0.5,0.2-0.8,0.8-0.6,1.4c3,8.4,14,21,14.4,21.6C157.9,142.8,158.1,142.9,158.5,142.9"/>
							<path class="st15" d="M144.2,142.9c0.6,0,1.1-0.5,1-1.1c0-0.1,0-0.2-0.1-0.3c-0.1-0.2-9-24.8-9.2-49.8c0-0.6-0.5-1.1-1.1-1.1
								c-0.6,0-1.1,0.5-1.1,1.1c0.3,25.4,9.3,50.3,9.4,50.5C143.3,142.6,143.7,142.9,144.2,142.9"/>
							<path class="st15" d="M168.8,227.9c-9.8,0-56.2-1.6-66.4-32.2c-0.1-0.6,0.3-1.1,0.9-1.2c0.4-0.1,0.9,0.2,1.1,0.5
								c10.7,32,65.5,30.7,66.1,30.7c0.6-0.1,1.2,0.2,1.3,0.8c0.1,0.6-0.2,1.2-0.8,1.3c-0.2,0-0.4,0-0.5,0
								C170.2,227.8,169.6,227.8,168.8,227.9"/>
							<path class="st15" d="M68.8,275.5c-0.9,0-1.9-0.1-2.8-0.5c-0.5-0.4-0.6-1-0.2-1.5c0.2-0.3,0.6-0.5,1-0.4
								c4,1.6,16.8-3.4,30.3-8.8c15.3-6.1,32.7-13,46.7-14.6c26.6-3,48-17.8,48.2-18c0.6-0.2,1.2,0.1,1.4,0.6
								c0.2,0.4,0.1,0.8-0.2,1.1c-0.2,0.2-22,15.3-49.2,18.4c-13.7,1.5-31,8.4-46.2,14.4C85.2,271.3,74.7,275.5,68.8,275.5"/>
							<path class="st15" d="M71.2,259.7h-0.2c-0.6,0-1-0.4-1.1-0.9c0,0,0-0.1,0-0.1c0-0.6,0.5-1,1.1-1h0.2
								c15.6-0.2,31.2-1.4,46.6-3.8c0.6-0.1,1.1,0.3,1.2,0.9c0.1,0.6-0.3,1.1-0.9,1.2C102.6,258.3,86.9,259.5,71.2,259.7"/>
						</g>
					</g>
				</g>
			</g>
		</g>
	</g>
</g>
</svg>
