<?xml version="1.0" encoding="utf-8"?>
<!-- Generator: Adobe Illustrator 25.0.1, SVG Export Plug-In . SVG Version: 6.00 Build 0)  -->
<svg version="1.1" id="Layer_1" xmlns="http://www.w3.org/2000/svg" xmlns:xlink="http://www.w3.org/1999/xlink" x="0px" y="0px"
	 viewBox="0 0 312 1065.1" style="enable-background:new 0 0 312 1065.1;" xml:space="preserve">
<style type="text/css">
	.st0{clip-path:url(#SVGID_2_);}
	.st1{clip-path:url(#SVGID_4_);}
	.st2{fill:#BF8964;}
	.st3{fill:#A76F48;}
	.st4{fill:#8E441B;}
	.st5{fill:#EFB94D;}
	.st6{fill:#773615;}
	.st7{fill:#3C758C;}
	.st8{fill:#FFD4B1;}
	.st9{fill:#7FE2D8;}
	.st10{fill:#00CDC2;}
	.st11{fill:#343438;}
	.st12{fill:#050516;}
	.st13{fill:#FFB762;}
	.st14{fill:#EFEFEF;}
	.st15{fill:#D7D7E0;}
	.st16{fill:#C64444;}
	.st17{fill-rule:evenodd;clip-rule:evenodd;fill:#3E3E42;}
	.st18{fill-rule:evenodd;clip-rule:evenodd;fill:#4A4A4F;}
	.st19{fill-rule:evenodd;clip-rule:evenodd;fill:#343438;}
	.st20{fill-rule:evenodd;clip-rule:evenodd;fill:#A36043;}
	.st21{fill-rule:evenodd;clip-rule:evenodd;fill:#453878;}
	.st22{fill:#23242B;}
	.st23{fill:#363B42;}
	.st24{fill:#CAE0DD;}
</style>
<g id="Layer_2_1_">
	<g id="Layer_1-2">
		<g id="Winona">
			<g>
				<defs>
					<rect id="SVGID_1_" x="-84.7" width="433.7" height="1065.1"/>
				</defs>
				<clipPath id="SVGID_2_">
					<use xlink:href="#SVGID_1_"  style="overflow:visible;"/>
				</clipPath>
				<g class="st0">
					<g>
						<defs>
							<rect id="SVGID_3_" x="-84.7" width="433.7" height="1065.1"/>
						</defs>
						<clipPath id="SVGID_4_">
							<use xlink:href="#SVGID_3_"  style="overflow:visible;"/>
						</clipPath>
						<g class="st1">
							<path class="st2" d="M131.4,115.6c0,0,1.4,32.8,0,38.2c-1.4,5.4-14.5,14-28,20.3c0,0,17.3,23.6,51.1,22.9
								c33.8-0.7,40-14.7,45.4-22.4c0,0-23.4-8.8-24-19.8c-0.6-11,0-39.1,0-39.1L131.4,115.6z"/>
							<path class="st2" d="M11.8,501.1c0,0-16.1,9.6-18.9,15.4c-2.5,8.7-0.1,28.4-0.1,28.4l-0.1,0.3L-9.9,561c0,0-1.3,5.7,3.2,6.6
								c2.6,0.6,5.3-0.8,6.2-3.4l2-5.7c0.5,2,2.3,3.3,4.4,3.2c5.4,0,5.8-6.6,5.8-6.6c0.8,2,2.8,3.1,5,2.9c2.1-0.2,3.9-1.4,4.8-3.3
								c0,0,2,1.5,3.8,1c2.9-0.9,5.2-7,5.2-7c3-12.9,3.9-26.3,2.7-39.5C33.2,509.2,29.9,488,11.8,501.1"/>
							<path class="st3" d="M-8.2,545.2c0.4-1.1,0.6-2.2,0.7-3.3l3.2-6.6c0,0,15-7.7,17.2-16.8c0,0,6.1,14.2,17.7,16.1
								c0,0-0.5,11.1-2.5,15.6L27,538.6c0-2-1.7-3.5-3.6-3.5c-0.1,0-0.1,0-0.2,0c-3.8,0-3.4,4-3.4,4l0.8,15.6l-2.1-13.2
								c0,0-0.5-4.3-4.7-3.7c-3.6,0.5-3.3,4.5-3.3,4.5l0.2,12.2l-1.1-10.5c0,0-0.5-3-4.3-2.9c-3.8,0.1-4,4.3-4,4.3L0.5,558l-1.4,3.7
								c0,0-0.4-4-4-5s-5.7,3.3-5.7,3.3L-8.2,545.2z"/>
							<path class="st4" d="M-22.8,583.9l-3.8-24.5c-0.1-0.9,0.5-1.7,1.3-1.8l62.5-9.7c0.9-0.1,1.7,0.5,1.8,1.3l3.8,24.5l7.3-1.1
								L46.3,548c-0.8-4.9-5.4-8.2-10.2-7.5l-62.5,9.7c-4.9,0.8-8.2,5.4-7.5,10.2l3.8,24.5L-22.8,583.9z"/>
							<path class="st5" d="M54.9,564.6c0.2,1.7-0.9,3.3-2.6,3.6l-12.5,1.9c-1.7,0.5-3.5-0.4-4-2.1c-0.5-1.7,0.4-3.5,2.1-4
								c0.3-0.1,0.6-0.1,0.9-0.1l12.5-1.9C53,561.7,54.6,562.9,54.9,564.6"/>
							<path class="st6" d="M135.6,685.3c0.5,2.9-1.5,5.6-4.4,6c0,0,0,0,0,0L-59.5,721c-2.9,0.4-5.6-1.5-6-4.4l-19.1-123
								c-0.4-2.9,1.5-5.5,4.4-6L110.5,558c2.9-0.4,5.5,1.5,6,4.4L135.6,685.3z"/>
							<path class="st2" d="M24.1,535.1c-3.8,0-3.4,4-3.4,4l0.7,14.9l-2-12.5c0,0-0.5-4.3-4.7-3.7c-3.6,0.6-3.3,4.5-3.3,4.5
								l0.1,11.5l-1.1-9.8c0,0-0.4-3-4.3-2.9c-3.9,0.1-3.9,4.5-3.9,4.5l-0.8,13c0.6,1.9,2.3,3.1,4.3,3c5.4,0,5.8-6.6,5.8-6.6
								c0.8,2,2.8,3.1,5,2.9c2.1-0.2,3.9-1.4,4.8-3.3c0,0,2,1.5,3.8,1c1.4-0.4,2.7-2.1,3.7-3.8l-1.1-13.3
								C27.8,536.6,26.2,535.1,24.1,535.1c0,0,0,0-0.1,0"/>
							<path class="st2" d="M19.3,547.1l-0.9-5.6c0,0-0.5-4.3-4.7-3.7c-3.6,0.6-3.3,4.5-3.3,4.5l0.1,5.3
								C13.3,549.7,17,549.4,19.3,547.1"/>
							<path class="st2" d="M23.2,535.1c-3.8,0-3.4,4-3.4,4l0.2,5.4c3.3,2.5,6.3,0.3,7.5-0.8l-0.4-5.1c0-2-1.7-3.5-3.6-3.5
								C23.3,535.1,23.3,535.1,23.2,535.1"/>
							<path class="st2" d="M10.2,549.6l-0.6-5.4c0,0-0.5-3-4.3-2.9s-3.9,4.5-3.9,4.5l-0.3,5.7C5.7,554.6,9.4,550.7,10.2,549.6"/>
							<path class="st2" d="M-7.5,541.9c0,0,2.7-5.9,3.2-6.6c0.4-0.7,6.7-5.4,7.9-9.7c0.9-3.1,1.3-14.4-11.5-9.1
								c-0.1,0.2-0.2,0.3-0.2,0.5c-2,5.7-7.6,19.1-7.8,21.9c-0.6,7-4.6,16-2.7,16.7c1.8,0.7,3.8,2.7,11.2-10.4l0,0l-0.2-0.3
								C-7.5,543.9-7.4,542.9-7.5,541.9"/>
							<path class="st7" d="M3.5,486.2c0,0-1.1,14.6-1.3,18.6c0,0,16,8.6,32.2,2c0,0,1.1-14.5,1.6-17.4L3.5,486.2z"/>
							<path class="st8" d="M60.7,187.8c0,0-18.6,9.9-23.4,42.8c-4,27.3-10,68.8-17.7,118.1c0,0-17.6,76.5-19.2,145.3
								c0,0,17.4,8.4,44.1,5.3c0,0,18.5-96.1,24.3-126.1c3-15.2,8.8-50.1,13.3-93.5C86.3,238.9,79.3,192.9,60.7,187.8"/>
							<polygon class="st2" points="218.8,990.8 224.2,1023.3 252.2,1019.9 249.5,986.5 							"/>
							<path class="st2" d="M222.2,1011.6c0.1,3.1,0.6,6.2,1.5,9.2c1.4,3.7,11.4,28.8,11.4,28.8l29.3-7.1l-12.5-26.2
								C251.9,1016.3,240.3,1005.5,222.2,1011.6"/>
							<path class="st9" d="M264.6,1039.1c-1.5-3.1-12.4-23-12.6-22.7c-0.5,0.5,10.4,23,10.4,23c-14.7-8.7-22.7,2.4-26.9,6.4
								l-12.6-29.5c-0.1-1.6-0.3-3.1-0.7-4.6c0,0-0.8,8.2,1.1,13.4l0,0c0.9,3.1,4.8,8.3,5.5,20.2c1.1,19.2,19.9,21.3,28.1,19.4
								C270.6,1061.3,268.6,1047.4,264.6,1039.1"/>
							<polygon class="st2" points="91.2,987.3 91.5,1021.9 122.2,1021.9 122.8,987.3 							"/>
							<path class="st2" d="M68.3,1031.1c0,0,20.3-12,23.1-17.6c2.8-5.6,30.9,0,30.9,0l-3,17.6l-45.9,11.5L68.3,1031.1z"/>
							<path class="st10" d="M126,1032.7l-0.6,8.3c-5.5,3.1-11.7,4.7-18,4.4c0,0-9.7-3.5-15.1,1.3c-10.2,9-43.3,15.8-46.8,3.7
								L126,1032.7z"/>
							<path class="st9" d="M125,1012.4c0,0,4,19.5,0.8,22.4c-3.3,2.8-24.9,6.4-35.8,11.9s-43.7,11.7-45.2,2.3
								c-1.5-9.4,11.9-15.2,21-18.8s6.8,8.4,11.6,6.8c0,0,21.7-4.6,36.2-9.9C119.3,1025,119.4,1009.7,125,1012.4"/>
							<path class="st11" d="M217.3,400.6H82c0,0-1.4,1.2-3,5.2c-0.7,1.8-1.1,7.5-2,10c-10.3,28-31.2,87.2-23.7,176
								c9.6,114.7,15.3,395.5,15.3,395.5s20.2,13.3,77.2,0l-0.1-429c0,0,37.1,321.7,50.1,432.2c0,0,33.8,13.1,76-8.4
								c0,0-23.1-398-32-453.6c-8-50.4-15.4-80.4-18.1-106.4c-0.3-2.4-0.5-9.8-0.6-11.7C220.8,405.1,218.7,401.6,217.3,400.6"/>
							<path class="st12" d="M144.7,558.7c-0.2,0-0.4-0.1-0.6-0.2l-24.8-19.4c-0.5-0.3-0.6-1-0.3-1.5c0,0,0,0,0,0
								c0.3-0.5,1-0.6,1.5-0.3c0,0,0,0,0,0l24.8,19.4c0.5,0.3,0.6,1,0.3,1.5C145.5,558.6,145.1,558.8,144.7,558.7"/>
							<path class="st9" d="M120.7,164c0,0,24.2,56.8,61.7-1.1c0,0,40.2,19.5,60.4,34.7c0,0-14.3,122.6-23.4,183.4
								c-0.6,3.8,6.6,6.1,4.4,13.6c-0.8,2.7-6.6,5.7-6.6,5.7s-83.3,19.2-135.9,0.3c-3.3-1.1-5.8-4-6.2-7.5
								c-0.4-2.5,4.7-7.8,4.2-11.1c-6.6-40.5-17.2-180.7-16.6-188.5C62.8,193.6,85.7,177.2,120.7,164"/>
							<path class="st8" d="M117,161.2c0,0-5.8,136.3-7.9,233.8c0,0-1.7,57.6-12.1,60.9c-12.1,3.8-42.8-0.8-44-6.6
								c-1.4-7.2,16.2-93.5,17.2-115.7c1.1-21.8-9.6-145.8-9.6-145.8s16.2-6.2,44.1-17.2c0.4-1.2,0.9-2.3,1.5-3.4
								C107,166.1,116.7,159.5,117,161.2"/>
							<path class="st13" d="M59.4,216.4c3.1,36.2,7.5,99.7,6.8,114c-0.5,11.1-5.3,39.2-9.6,64c-3.8,22-7.1,41.5-7.6,49.1l2.1,0.2
								c0.4-7.2,4.1-28.4,7.6-49c4.5-26.1,9.1-53,9.7-64.2c0.7-14.5-3.8-78.4-6.9-114.7L59.4,216.4"/>
							<path class="st13" d="M109,306.1c-0.3,0-0.6-0.1-0.9-0.4c-16.7-30.5-17.6-85.1-17.6-85.6v-0.3l14.1-12.8l-11.1-7.7l10.1-25.6
								c0.2-0.4,0.7-0.5,1.1-0.3c0.3,0.2,0.5,0.6,0.4,0.9l-9.6,24.4l11.7,8.2l-14.9,13.7c0.1,4.7,1.5,55.6,17.3,84.5
								c0.2,0.4,0.1,0.9-0.3,1.1C109.2,306.2,109.1,306.2,109,306.1"/>
							<path class="st10" d="M145.9,405.1c-0.5,0-1-0.4-1.1-0.9c-4.3-74.8,1.5-213.7,1.5-214.7c0.1-0.5,0.5-0.9,1.1-0.9
								c0.6,0,1,0.5,1,1.1c0,0.9-5.8,139.8-1.5,214.4C146.9,404.7,146.4,405.1,145.9,405.1L145.9,405.1z"/>
							<path class="st8" d="M188.6,163.5c0,0,2.1,137.9,4.2,235.4c0,0,1.8,58.2,11.6,59.6c12.6,1.9,52.5-1.4,53.6-7.2
								c1.1-5.2-21.6-80.8-22.6-102.4c-1.1-21.8,15.2-152.6,15.2-152.6s-17.9-7.8-46.6-22.6c-0.4-1.1-0.9-2.2-1.5-3.3
								C201.8,169.4,188.9,161.9,188.6,163.5"/>
							<path class="st13" d="M194.7,305.4c0.3,0,0.6-0.1,0.7-0.4c16.9-30.4,18-85,18-85.5v-0.4l-13.8-12.9l11.2-7.7l-10-25.6
								c-0.1-0.4-0.6-0.6-1-0.5c-0.4,0.1-0.6,0.6-0.5,1c0,0,0,0.1,0,0.1l9.5,24.5l-11.8,8.1l14.8,13.8c-0.1,4.7-1.8,55.6-17.8,84.4
								c-0.2,0.4-0.1,0.9,0.3,1.1C194.4,305.4,194.5,305.4,194.7,305.4"/>
							<path class="st2" d="M244.5,395.4c-0.6-3.8-2.6-7.2-5.6-9.6c-0.2-0.2-24.2-13.5-24.4-13.6c-4-1.8-15.7-0.6-19.3,0.2
								c-1.8,0.4-9.9,5.3-11.7,6.6c-0.9,0.6-6.6,6.9-6.8,7.1c-1.6,1.8,0.6,4.5,3.7,3.4c2.6-0.9,5.9-4,6.7-4.5
								c1.1-0.7,6.7-4.3,8.8-4.7c3.1-0.4,6.3-0.6,9.4-0.7c-6.9,1.7-13.3,4.8-19,9.1c-2.8,2.1-5.3,4.6-7.6,7.3
								c-2.3,3.2,3.3,4.5,5.3,3.2c1.1-0.7,2.8-2.3,5-3.9c0.1-0.1,5.5-3.9,8.9-4.9c2.8-0.8,7.3-1.9,11-2.7c-3.4,1.3-7.6,2.3-10.4,4
								c-2.7,1.4-5.2,3-7.7,4.8c-2.4,1.8-4.6,3.8-6.5,6.1c-2.7,3.3,3.1,5.1,5.2,3.5c3.8-3,4.8-3.9,6-4.8c2.4-1.6,5-2.9,7.6-4.1
								c2.8-1.2,5.4-1.4,9.6-2c-2.5,1.6-3.6,3.1-5.6,5c-2.2,2.3-4.3,4.7-6.2,7.3c-2.5,3.4-4.1,5.8-4.3,6.2c-1.1,2,3.1,3.5,4.9,2.1
								c1.8-1.4,2.2-2.7,3.5-4.2c1.8-2.2,3.9-4.1,6.2-5.8c3-2.1,3.8-3,6.9-4.2c1.5,2.7,2.8,5.5,4,8.3c5.2,12.7,24.9-4.6,24.9-4.6
								C250.3,399.5,244.5,395.4,244.5,395.4"/>
							<path class="st7" d="M240.8,376.6l-6.8,6.9c0,0,1.1,17.5,13.6,23.8l10.7-8.8L240.8,376.6z"/>
							<path class="st8" d="M262.5,407.4c0,0,68.6-58.3,85.3-96.3c13.8-31.2-99.2-115.5-99.2-115.5s-11,18-12.9,40.9
								c-2,25.3,2.7,37.7,2.7,37.7s45.2,29.8,50.3,33.4c0,0-19.7,24-55,67.8C233.9,375.3,242.7,398.1,262.5,407.4"/>
							<path class="st13" d="M239.5,272.2h-0.3c-0.6-0.1-1-0.7-1-1.3l6.4-47.9c0.1-0.6,0.6-1,1.3-1s1,0.6,1,1.3l-6.4,47.9
								C240.5,271.7,240,272.1,239.5,272.2"/>
							<path class="st14" d="M175.5,250.7c0,0,39.1-54.2,39.8-59.3c0.7-5-7.6-9.2-12.8-12.9c-5.2-3.7-10.3-31.3-19.9-28.2
								s-35.2,36.9-37.3,40c-0.9,1.4-8.2,14.5-16.1,34.9L175.5,250.7z"/>
							<path class="st15" d="M195.1,193.4c-6.7-3.6-13.2-7.6-19.4-12.1c-5.3-3.7-10.3-6.6-15.2-10.2c-7.6,9-14.2,17.8-15.2,19.3
								c-1,1.5,29.8,61.8,30.2,60.4c0,0,23.2-32.3,34.2-49.3C204.8,198.6,200,195.8,195.1,193.4"/>
							<path class="st14" d="M120.7,146.2c0,0-7.4-0.4-8.1,10.2c-0.7,10.6-26.3,24.9-21.8,34.5c4.5,9.7,46.9,56.1,85.7,61.8
								c0,0,7,1.2,7.7-4.8c0.7-6,11.4-18.7,16.3-25.5s9.7-10.2,6.2-15.6c-3.4-5.2-52.3-30.1-81.2-58.4
								C124.3,147.1,122.5,146.3,120.7,146.2"/>
							<path class="st16" d="M134.7,157c0,0-5.9,3.7-6.9,10.3c-0.9,6.7-24.1,20.4-28.3,35.2l2.2,2.5c0,0,5.7-12.8,20.5-24
								c14.8-11.2,5.3-10.4,14.9-21.9L134.7,157z"/>
							<path class="st16" d="M156,173.1c0,0-6.3,3.8-7.3,10.8c-1,7-25.7,21.3-30.2,36.9l2.4,2.6c0,0,6.1-13.4,21.9-25.2
								s5.7-10.9,16-22.9L156,173.1z"/>
							<path class="st16" d="M182.5,190c0,0-6.6,3.9-7.7,11c-1.1,7.1-27.9,22.7-32.6,38.5l3.5,1.6c0,0,6.4-13.6,22.9-25.6
								s6-11,16.7-23.3L182.5,190z"/>
							<path class="st16" d="M214.4,195.4c-2.7-3.2-6.2-5.5-10.2-6.7c-6.3-1.6-16.8-26.7-30.6-32.3l-2.8,3c0,0,11.6,6.8,20.9,22.5
								s9.4,7.3,19.4,17.9L214.4,195.4z"/>
							<path class="st17" d="M201.2,160.8c0,7.7-4.5,14-10,14c-5.5,0-10-6.3-10-14s4.5-14,10-14
								C196.8,146.8,201.2,153.1,201.2,160.8"/>
							<path class="st18" d="M185,150.5c0,0-17.4,11-4.5,24.5c1.9,2,3.9,3.9,6.1,5.5c0,0-2.4-5.5,1.8-9.8s4.5-6.6,4.5-6.6
								S185.6,153.5,185,150.5"/>
							<path class="st19" d="M190.9,187.5c0,0-15.2-9.1,4.3-25.4c1.9-1.5,3.6-3.1,5.3-4.8c0,0,5.3,10.1,2.4,15.1
								S190.9,187.5,190.9,187.5"/>
							<path class="st17" d="M186.7,171.7c0,0-20,6.4-8.3,24.1c2.9,4.4,8.6,6.4,8.6,6.4s-3.7-4.7,0.5-9s4-7.8,4-7.8
								S182,182.6,186.7,171.7"/>
							<path class="st18" d="M190.1,208.2c0,0-15.2-9.1,4.3-25.4c2.1-1.6,3.8-3.6,5.1-6c0,0,5.4,11.2,2.5,16.3
								S190.1,208.2,190.1,208.2"/>
							<path class="st19" d="M185.8,193c0,0-20,6.4-8.3,24.1c2.9,4.4,6.1,5.5,6.1,5.5s-2.4-5.5,1.8-9.8c4.2-4.2,5.3-7.4,5.3-7.4
								S181.1,203.9,185.8,193"/>
							<path class="st17" d="M186.7,229.5c0,0-15.2-9.1,4.3-25.4c1.9-1.5,3.6-3.1,5.3-4.8c0,0,5.3,10.1,2.4,15.1
								C195.7,219.5,186.8,229.5,186.7,229.5"/>
							<path class="st17" d="M201.2,101c0,7.7-4.5,14-10,14c-5.5,0-10-6.3-10-14s4.5-14,10-14C196.8,87,201.2,93.2,201.2,101"/>
							<path class="st20" d="M185,90.6c0,0-17.4,11-4.5,24.5c1.9,2,3.9,3.9,6.1,5.5c0,0-2.4-5.5,1.8-9.8c4.2-4.3,4.5-6.6,4.5-6.6
								S185.6,93.6,185,90.6"/>
							<path class="st19" d="M190.9,127.6c0,0-15.2-9.1,4.3-25.4c1.9-1.5,3.6-3.1,5.3-4.8c0,0,5.3,10,2.4,15.1
								C199.9,117.5,190.9,127.6,190.9,127.6"/>
							<path class="st17" d="M186.7,111.8c0,0-20,6.4-8.3,24.1c2.9,4.4,6.1,5.5,6.1,5.5s-2.4-5.5,1.8-9.8s4.5-6.6,4.5-6.6
								S182,122.7,186.7,111.8"/>
							<path class="st18" d="M188.4,149.5c0,0-14.4-11,5-27.2c2.1-1.7,4.1-3.6,6.1-5.5c0,0,5.5,11.4,2.6,16.4
								c-2.9,5-12,15.1-12,15.1L188.4,149.5z"/>
							<path class="st19" d="M185.8,133c0,0-20,6.4-8.3,24.1c2.9,4.4,6.1,5.5,6.1,5.5s-2.4-5.5,1.8-9.8c4.2-4.3,4.5-6.6,4.5-6.6
								S181.1,144,185.8,133"/>
							<path class="st17" d="M187.2,171.1c0,0-15.6-10.7,3.8-26.9c1.9-1.5,3.6-3.1,5.3-4.8c0,0,4,9.5,2.4,15.1
								c-2,6.7-10.7,15.4-10.7,15.4L187.2,171.1z"/>
							<path class="st18" d="M184.8,212.2c0,0-22.2,8.6-10.5,26.4c2.9,4.4,6.1,5.5,6.1,5.5s-2.4-5.5,1.8-9.8
								c4.2-4.3,4.5-6.6,4.5-6.6s-7.4-2.9-2.7-13.8L184.8,212.2z"/>
							<path class="st19" d="M184.8,251c0,0-15.2-9.1,4.3-25.4c1.9-1.5,3.6-3.1,5.3-4.8c0,0,5.3,10.1,2.4,15.1S184.8,251,184.8,251"
								/>
							<path class="st17" d="M180.5,233.4c0,0-20,6.4-8.3,24.1c2.9,4.4,6.1,5.5,6.1,5.5c0.1-3.1,1-6.1,2.6-8.8
								c2.9-5.2,4.9-6.8,4.9-6.8S175.8,244.4,180.5,233.4"/>
							<path class="st18" d="M184.8,269.7c0,0-15.2-9.1,4.3-25.4c1.9-1.5,3.6-3.1,5.3-4.8c0,0,5.3,10.1,2.4,15.1
								S184.8,269.7,184.8,269.7"/>
							<path class="st19" d="M181.2,252.9c0,0-20.1,6.4-8.3,24.1c2.9,4.4,6.1,5.5,6.1,5.5c-0.5-3.4,0.2-6.8,1.8-9.8
								c2.9-5.2,5-6.4,5-6.4S176.4,263.9,181.2,252.9"/>
							<path class="st17" d="M182.9,289.3c0,0-15.2-9.1,4.3-25.4c1.8-1.5,3.6-3.1,5.3-4.8c0,0,5.3,10,2.4,15.1
								C191.8,279.2,182.9,289.3,182.9,289.3"/>
							<path class="st17" d="M194.8,313.3c1.1,3.8,2.7,7.5,3.2,11.3c0.9,5.7-0.9,11.5-4.9,15.6c2.6-6.6,5.3-12,1.8-19.1
								c-0.8,2.8-1.8,5.8-2.6,8.2c-0.6,1.3-1.9,2.2-3.3,2.2c-2.1,0.3-2.1-2.7-2.7-3.7c-1.3-2-2.6-4-3.8-6.1
								c-5.5-9.6-10.9-19.2-5.6-30.7c0.7-1.5-0.7-1.6-1.7-1.8l4.2-5.8l3,0.3c0.6,0.8,1.2,1.7,1.9,2.5
								C186.6,295.7,190.9,304.4,194.8,313.3"/>
							<path class="st19" d="M176.5,289.1c1,0.2,2.4,0.4,1.7,1.8c-5.3,11.6,0.1,21.2,5.6,30.7c1.2,2.1,2.6,4.1,3.8,6.1
								c0.6,1.1,0.4,3,2.5,2.6c1.6-0.3,2.1-1.7,2.6-2.9c0.8-2.4,1.4-4.9,2.2-7.7c3.5,7.1,2.1,13.7-0.5,20.3V340
								c-0.7,0.1-1,0.4-0.3,1l-0.3,1.2c-3.2,2.6-6.3,5.3-9.6,7.8c-1.1,0.8-2.4,1.5-3.8,0.4c-1.4-1.1-0.2-2,0.2-2.7
								c4.3-7.1,1.5-13.5-1.5-20c-3.4-7.3-7.5-14.3-8.1-22.6C170.7,299,171.8,293.5,176.5,289.1"/>
							<path class="st21" d="M173.1,285c0.5,7.8,6,4.6,10.6,5.3s8.4,1,8.9-3.2C193.6,278.1,172.6,277.3,173.1,285"/>
							<path class="st3" d="M153.7,146.4c10.6,0,17.9-6.9,22-12.7c0.1-9.7,0.3-18.1,0.3-18.1h-43.9c0,0,0.4,8.4,0.5,17.7
								C136.1,139.1,142.9,146.4,153.7,146.4"/>
							<path class="st2" d="M201,68.6c-3.9,48.1-22.6,71.2-46.5,71.2s-42.8-19.1-46.5-71.2c-2.8-38.5,17.7-62.3,46.5-62.3
								S204.3,28.7,201,68.6"/>
							<path class="st22" d="M132.1,79.5c0,2.3-1.3,4.2-2.9,4.2s-2.9-1.9-2.9-4.2s1.3-4.2,2.9-4.2C130.8,75.3,132.1,77.2,132.1,79.5
								"/>
							<path class="st22" d="M181.1,79.5c0,2.3-1.3,4.2-2.9,4.2s-2.9-1.9-2.9-4.2s1.3-4.2,2.9-4.2S181.1,77.2,181.1,79.5"/>
							<path class="st23" d="M119.1,68.4c-0.9-0.1-1.7-0.9-1.6-1.8c0-0.4,0.2-0.8,0.5-1.1c2.9-2.7,9.9-8.4,18.9-1.4
								c0.8,0.5,1,1.5,0.6,2.4c-0.5,0.8-1.4,0.8-2.4,0.6c-4.9-1.2-10.1-0.8-14.8,1C120,68.2,119.5,68.4,119.1,68.4"/>
							<path class="st23" d="M189.5,68.8c0.4,0,0.8-0.2,1.1-0.5c0.7-0.7,0.7-1.7,0.1-2.4c-2.7-2.9-9.5-9-18.8-2.5
								c-0.8,0.5-1.1,1.5-0.7,2.3c0.4,0.8,1.4,0.9,2.3,0.7c5-1.1,10.2-0.5,14.7,1.8C188.5,68.7,189,68.9,189.5,68.8"/>
							<path class="st3" d="M153.6,104.1c-2.4-0.1-4.3-0.7-5.2-2.5c-2.8-5.5,2.5-14.5,3-15.6c0.3-0.8,0.8-1.2,1.6-0.9
								c0.8,0.3,0.5,1.4,0.1,2.1c-1.6,3.6-2.6,10.2-1.1,12.8c0.4,0.7,1.1,1.1,1.9,1.1c0.8,0.1,1.4,0.8,1.4,1.6
								C155.1,104.3,153.6,104.2,153.6,104.1"/>
							<path class="st3" d="M152.6,116.9c-3.9,0-7.7-1.1-11-3.3c-0.5-0.4-0.7-1.2-0.3-1.7c0,0,0,0,0,0c0.4-0.6,1.2-0.7,1.7-0.3
								c0,0,0,0,0,0c0.4,0.3,8.9,6.2,19.4-0.1c0.6-0.3,1.3-0.2,1.7,0.4c0.3,0.6,0.2,1.3-0.4,1.7
								C160.3,115.8,156.5,116.9,152.6,116.9"/>
							<path class="st23" d="M151.9,30.5c0,0-34.4,0.9-38.1,24.3c-1.3,9.2-1.8,18.4-1.6,27.6c-0.4,6-0.1,12,0.8,17.9
								c-5.8-3.5-9.9-9.3-11.3-15.9c-8-35.8-11.5-38.7,11.2-71.5c9.3-13.5,35.4-16.2,44.5-8.9c0,0,61.3-7.2,52.9,51.9
								c-4.9,34.8-14.1,40.3-14.1,40.3c-1.4-14.1-0.8-30.2-1.9-36.8C193,51.2,184.8,33.9,151.9,30.5"/>
							<path class="st10" d="M116.7,112.5c0,5.9-3.5,8.2-7.8,8.2s-7.8-2.3-7.8-8.2s3.5-13.1,7.8-13.1S116.7,106.6,116.7,112.5"/>
							<path class="st9" d="M115.1,112c0,4.7-2.8,6.5-6.2,6.5c-3.4,0-6.2-1.8-6.2-6.5s2.8-10.4,6.2-10.4S115.1,107.3,115.1,112"/>
							<path class="st24" d="M113.4,111.4c0,3.4-2,4.8-4.5,4.8c-2.5,0-4.5-1.3-4.5-4.8c0-3.4,2-7.6,4.5-7.6
								C111.4,103.8,113.4,108,113.4,111.4"/>
							<path class="st24" d="M109.4,97c0-1.3-0.2-2.4-0.6-2.4c-0.3,0-0.6,1.1-0.6,2.4c0,1.3,0.3,2.4,0.6,2.4S109.4,98.3,109.4,97"/>
							<path class="st2" d="M192.6,75.1c0,0,2.3-6.8,11.4-6c10.9,0.9,6.2,23.1-1.9,27c-7.7,3.7-10.2-7.5-10.2-7.5L192.6,75.1z"/>
							<path class="st2" d="M116.8,75.1c0,0-2.3-6.8-11.4-6c-8.8,0.8-5.8,23.3,1.9,27c7.7,3.7,10.3-7.5,10.3-7.5L116.8,75.1z"/>
							<path class="st23" d="M112.8,65.4c0,0-2.8,26.4-0.8,36.4c2,10-7.6,24.1,2.8,35c0,0-13.1-3.3-13.1-11.1s4.5-16.2,4.4-23.6
								c-0.2-7.3,1.1-30.7,2.7-36.3L112.8,65.4z"/>
							<path class="st10" d="M207.8,112.5c0,5.9-3.5,8.2-7.8,8.2c-4.3,0-7.8-2.3-7.8-8.2s3.5-13.1,7.8-13.1
								C204.3,99.3,207.8,106.6,207.8,112.5"/>
							<path class="st9" d="M206.2,112c0,4.7-2.8,6.5-6.2,6.5c-3.4,0-6.2-1.8-6.2-6.5s2.8-10.4,6.2-10.4
								C203.4,101.5,206.2,107.3,206.2,112"/>
							<path class="st24" d="M204.5,111.4c0,3.4-2,4.8-4.5,4.8s-4.5-1.3-4.5-4.8c0-3.4,2-7.6,4.5-7.6S204.5,108,204.5,111.4"/>
							<path class="st24" d="M200.5,97c0-1.3-0.3-2.4-0.6-2.4s-0.6,1.1-0.6,2.4c0,1.3,0.3,2.4,0.6,2.4S200.5,98.3,200.5,97"/>
						</g>
					</g>
				</g>
			</g>
		</g>
	</g>
</g>
</svg>
