<?xml version="1.0" encoding="utf-8"?>
<!-- Generator: Adobe Illustrator 25.0.1, SVG Export Plug-In . SVG Version: 6.00 Build 0)  -->
<svg version="1.1" id="Layer_1" xmlns="http://www.w3.org/2000/svg" xmlns:xlink="http://www.w3.org/1999/xlink" x="0px" y="0px"
	 viewBox="0 0 312 1065.1" style="enable-background:new 0 0 312 1065.1;" xml:space="preserve">
<style type="text/css">
	.st0{clip-path:url(#SVGID_2_);}
	.st1{clip-path:url(#SVGID_4_);}
	.st2{fill:#EA997D;}
	.st3{fill:#D87E66;}
	.st4{fill:#4C4C4C;}
	.st5{fill:#CE6565;}
	.st6{fill:#30323D;}
	.st7{fill:#FF8EBE;}
	.st8{fill:#9B9BA7;}
	.st9{fill:#272733;}
	.st10{fill:#454456;}
	.st11{fill:#6C6C87;}
	.st12{fill:#343438;}
	.st13{fill:#CED2DD;}
	.st14{fill:#CC6A99;}
	.st15{fill:#C7CAD3;}
	.st16{fill:#717891;}
</style>
<g id="Layer_2_1_">
	<g id="Layer_1-2">
		<g id="Zilong">
			<g>
				<defs>
					<rect id="SVGID_1_" y="23.1" width="312" height="1019"/>
				</defs>
				<clipPath id="SVGID_2_">
					<use xlink:href="#SVGID_1_"  style="overflow:visible;"/>
				</clipPath>
				<g class="st0">
					<g>
						<defs>
							<rect id="SVGID_3_" y="23.1" width="312" height="1019"/>
						</defs>
						<clipPath id="SVGID_4_">
							<use xlink:href="#SVGID_3_"  style="overflow:visible;"/>
						</clipPath>
						<g class="st1">
							<path class="st2" d="M134.3,138.5c0,0,1.7,38.6,0,45s-17.2,16.5-33.1,24c0,0,20.5,27.9,60.5,27c40.1-0.8,50.2-17.5,56.6-26.6
								c0,0-30.5-10.2-31.3-23.2s0-46.1,0-46.1L134.3,138.5z"/>
							<path class="st3" d="M160.3,174.5c12.7,0,21.5-8,26.4-14.8c0.1-11.5,0.3-21.2,0.3-21.2h-52.7c0,0,0.4,9.7,0.6,20.7
								C139.2,166.1,147.3,174.5,160.3,174.5"/>
							<path class="st2" d="M127.2,101.6c0,0-2.1-6.2-10.4-5.5c-8,0.7-5.3,21.4,1.8,24.8c7.1,3.4,9.4-6.9,9.4-6.9L127.2,101.6z"/>
							<path class="st2" d="M197.7,101.6c0,0,2.1-6.2,10.4-5.5c8,0.7,5.3,21.4-1.8,24.8c-7.1,3.4-9.4-6.9-9.4-6.9L197.7,101.6z"/>
							<path class="st2" d="M204.6,100c-3.5,44.2-15.9,65.5-42.1,65.5s-38.7-17.5-42.1-65.5c-2.5-35.4,16.1-57.3,42.1-57.3
								S207.6,63.2,204.6,100"/>
							<path class="st4" d="M129,97.5c-0.4,0-0.8-0.1-1.1-0.4c-0.6-0.6-0.7-1.6-0.1-2.2c2.4-2.7,8.5-8.5,17.2-2.7
								c0.7,0.4,1,1.3,0.7,2.1c-0.4,0.8-1.3,1.1-2.1,0.7c-4.4-2.4-9.9-1.6-13.5,2C129.8,97.3,129.4,97.5,129,97.5"/>
							<path class="st4" d="M196.9,97.5c0.9,0,1.6-0.7,1.6-1.5c0-0.4-0.1-0.8-0.4-1.1c-2.4-2.7-8.5-8.5-17.2-2.7
								c-0.7,0.4-1,1.3-0.7,2.1c0.4,0.8,1.3,1.1,2.1,0.7c0,0,0,0,0,0c4.4-2.4,9.9-1.6,13.5,2C196.1,97.3,196.5,97.5,196.9,97.5"/>
							<path class="st3" d="M161.8,132.6c-2.2-0.1-4-0.7-4.8-2.3c-2.6-5.1,2.3-13.3,2.8-14.3c0.3-0.7,0.8-1.1,1.5-0.8
								c0.7,0.3,0.4,1.2,0.1,1.9c-1.5,3.3-2.4,9.4-1,11.7c0.3,0.6,1,1,1.7,1c0.8,0.1,1.3,0.7,1.3,1.5
								C163.3,132.1,162.6,132.7,161.8,132.6C161.9,132.6,161.8,132.6,161.8,132.6"/>
							<path class="st4" d="M112.8,91.7c0,0,7,6.9,9,7.2c1.9,0.3,4.2-8,4.2-8s12-0.8,16.2-26.1c0,0,5.6,13.1-4.2,24.3
								c0,0,5.7,2.7,12.5-1.4c0,0,4.4,3.8,15.3,1.2c10.9-2.6,15.4,2.2,22.8-0.3c7.4-2.5,10.7,4.3,12.4,3.8c0,0,1.7,4.8,2.7,4.9
								c2.5,0.4,2.9-1.2,2.9-1.2l2.6-5c0,0,6.2-4.6,6.9-7.4c0.7-2.7-2.4-5.9-3-10.5c-1-7.2,0-42-33.2-48.6
								C152.3,19,144,30.4,144,30.4S113.8,29,111.8,55c-1.4,17.8-3.5,25.8-5.5,28C104.4,85.2,107.3,88.5,112.8,91.7"/>
							<path class="st5" d="M161.9,145.2c-4.3,0-8.5-1.2-12.1-3.6c-0.6-0.5-0.7-1.3-0.2-1.9c0.4-0.5,1.2-0.7,1.8-0.3
								c0.4,0.3,9.8,6.8,21.4-0.1c0.6-0.4,1.5-0.2,1.9,0.5c0.4,0.6,0.2,1.5-0.5,1.9C170.5,143.9,166.2,145.2,161.9,145.2"/>
							<path class="st6" d="M141.3,108.9c-0.3,0-0.6-0.1-0.9-0.2c-0.7-0.5-1.6-0.5-2.4-0.2c-0.8,0.6-2,0.4-2.6-0.5
								c-0.6-0.8-0.4-2,0.5-2.6c1.9-1.1,4.3-1.1,6.2,0c0.9,0.5,1.2,1.6,0.7,2.5c0,0,0,0,0,0C142.6,108.6,142,108.9,141.3,108.9"/>
							<path class="st6" d="M182.4,108.9c0.3,0,0.6-0.1,0.9-0.2c0.7-0.5,1.6-0.5,2.4-0.2c0.9,0.5,2,0.3,2.6-0.6
								c0.5-0.8,0.3-1.9-0.5-2.5c-1.9-1.1-4.3-1.1-6.2,0c-0.9,0.5-1.2,1.6-0.8,2.5C181.1,108.6,181.8,108.9,182.4,108.9"/>
							<path class="st2" d="M3.2,520.3c0,0-9.4,51,16.7,59.1c0,0,8.6,3.3,11.5,2.5c0,0,1.4-2.6-1.4-5.4c-2.8-2.9-9.8-6.3-9.1-10.6
								s0.9-17.1,3.3-16.1c2.4,1,4.1,17.5,9.6,16.6c0,0,1.5-0.2,1.5-5.9c0-5.7-2.5-27.5-4.2-31.4c-1.7-3.9-2.7-15.8-2.7-15.8
								s-13.1-12-22.6-2.3L3.2,520.3z"/>
							<path class="st7" d="M59.4,229.2c0,0-15,8.2-17.7,33.9C39.2,288,30,324.4,23,374.6c-9.8,36.6-17.4,73.8-22.9,111.3
								c-0.8,6,3.7,7.5,3.2,12.1c-0.5,4.6-1.2,9.4-1.7,14.1c0,0,6.6,9.6,29.4,6.7l4.5-15c1-3.5,7.5-1.1,8.9-8
								c6-29,33.1-132.4,39.7-154.9C93,310.1,97.9,243.8,59.4,229.2"/>
							<polygon class="st8" points="209.2,970.1 213.4,997.9 240.2,996.7 237.3,966.1 							"/>
							<path class="st9" d="M221.6,1031.7c0,0,5,12.5,20.1,10c15-2.4,12.1-15.3,12.1-15.3L221.6,1031.7z"/>
							<path class="st10" d="M251.1,1014.3c-3.6-7.7-12.4-22.7-12.4-22.7c-13.5-8-22.3-1.9-26.1,1.7l0,0c0,0-0.2,0.2-0.9-3.4
								c0,0-0.2,7.6,1.5,12.4l0,0c0.9,2.9,4.4,7.2,5,18.1c1,16.4,13.2,20.5,25.8,17.5C256.7,1035,254.8,1022,251.1,1014.3"/>
							<path class="st9" d="M220.5,999.1c-0.3,0-0.6-0.1-0.9-0.2c-0.5-0.2-0.7-0.8-0.4-1.3c0-0.1,0.1-0.2,0.2-0.2
								c0.2-0.2,5.9-5.7,17-2.6c0.6,0.1,1,0.6,0.9,1.2c0,0.1,0,0.2-0.1,0.2c-0.4,0.6-1.1,0.9-1.8,0.7c-9.2-2.5-13.8,1.9-13.8,1.9
								C221.3,998.9,220.9,999.1,220.5,999.1"/>
							<path class="st9" d="M222.6,1004.6c-0.3,0-0.6-0.1-0.9-0.2c-0.5-0.2-0.7-0.8-0.4-1.3c0-0.1,0.1-0.2,0.2-0.2
								c0.2-0.2,5.9-5.7,17-2.6c0.6,0.1,1,0.6,0.9,1.2c0,0.1,0,0.1,0,0.2c-0.4,0.6-1.1,0.9-1.8,0.7c-9.2-2.5-13.8,1.9-13.8,1.9
								C223.4,1004.4,223,1004.5,222.6,1004.6"/>
							<path class="st9" d="M224.7,1010c-0.3,0-0.6-0.1-0.9-0.2c-0.5-0.2-0.7-0.8-0.4-1.3c0-0.1,0.1-0.2,0.2-0.2
								c0.2-0.2,5.9-5.7,16.9-2.6c0.7,0.2,1.1,0.8,0.9,1.4c-0.4,0.6-1.1,0.9-1.8,0.7c-9.2-2.5-13.8,1.9-13.8,1.9
								C225.5,1009.8,225.1,1010,224.7,1010"/>
							<path class="st11" d="M225.4,1024.7c0,0,19.9,8.9,26.7-3.3c0,0,4.5,8.9-10.5,11.4C231.8,1034.4,225.3,1024.7,225.4,1024.7"/>
							<polygon class="st8" points="107.5,967.8 107.8,999.5 136,999.5 136.5,967.8 							"/>
							<path class="st9" d="M139.4,1008.5l-0.6,7.7c-5,2.9-10.7,4.3-16.5,4c0,0-8.9-3.2-13.9,1.2c-9.4,8.3-39.7,14.8-42.9,3.7
								L139.4,1008.5z"/>
							<path class="st10" d="M138.5,989.9c0,0,3.7,17.9,0.7,20.5c-3,2.6-22.8,5.8-32.8,10.9c-10,5.1-40,10.7-41.4,2.1
								c-1.4-8.6,10.9-14,19.3-17.2c8.4-3.3,16.8-14.9,21.2-16.3c0,0,2.4-2,11.4,4.2C121.5,997.2,133.4,987.4,138.5,989.9"/>
							<path class="st9" d="M107.9,999.7c-0.4,0-0.8-0.2-1.1-0.5c-1.7-2.4-4.4-3.9-7.3-4.3c-0.8,0-1.4-0.7-1.3-1.4c0,0,0,0,0,0
								c0-0.8,0.7-1.4,1.4-1.3c0,0,0,0,0,0c3.8,0.4,7.2,2.3,9.4,5.3c0.5,0.6,0.4,1.5-0.3,2C108.5,999.6,108.2,999.7,107.9,999.7"/>
							<path class="st9" d="M103,1004.6c-0.4,0-0.8-0.2-1.1-0.5c-1.7-2.4-4.4-3.9-7.3-4.3c-0.8,0-1.4-0.7-1.3-1.5
								c0-0.8,0.7-1.4,1.5-1.3c3.8,0.4,7.2,2.3,9.4,5.3c0.5,0.6,0.4,1.5-0.2,2c0,0,0,0,0,0C103.6,1004.5,103.3,1004.6,103,1004.6"/>
							<path class="st9" d="M98.8,1008.8c-0.4,0-0.8-0.2-1.1-0.5c-1.7-2.4-4.4-3.9-7.3-4.3c-0.8-0.1-1.3-0.8-1.2-1.5
								c0.1-0.7,0.7-1.2,1.3-1.2c3.8,0.4,7.2,2.3,9.4,5.3c0.5,0.6,0.4,1.5-0.2,1.9C99.4,1008.7,99.1,1008.8,98.8,1008.8"/>
							<path class="st11" d="M70.1,1014.6c0,0,4.1,7.1,22.3,4.9c0,0-17.4,4.8-25.9,0.7C67.4,1018.1,68.6,1016.2,70.1,1014.6"/>
							<path class="st12" d="M201.1,976.9c-2.8-31.1-39.3-341-42.6-379.8c0,0-4.3,320.6-12.8,379.8H97c-5-111-32-412.9-26.7-503
								h176.6c0,0,0.1,382.7,0.5,503L201.1,976.9z"/>
							<path class="st13" d="M100.6,316.3c-0.5,0.1-0.9-0.3-1-0.7c0,0,0,0,0-0.1l-1.8-51c0-0.5,0.4-1,1-1c0.5,0,1,0.4,1,1l1.8,50.9
								c0,0.5-0.4,0.9-0.8,0.9C100.6,316.3,100.6,316.3,100.6,316.3L100.6,316.3z"/>
							<path class="st7" d="M189.3,190.9c0,0-30.2,11.3-63.1,0c0,0-47.7,26.6-66.8,38.3c0,0,5,132.5,8.9,208.6
								c0.4,7.6-7.4,17.5-7.1,23.8c0.3,5.7,6,10.1,9.1,12.4c0,0,92.3,11.6,176.6,0c0,0,7.6-4.1,8.2-16c0.2-5.5-6.7-15.2-6.4-22.6
								c3.1-67.2,9-199.3,8.5-206.2C257.2,229.2,217,203.8,189.3,190.9"/>
							<polygon class="st13" points="188.3,173.1 155.9,194.5 131.9,173.1 123.7,191.1 141,211.4 156,196.7 169.7,213.2 195,192.1 
															"/>
							<path class="st14" d="M156,198l-15,19.1L124.3,192l2-1.1c32.9,11.3,63.1,0,63.1,0c1.5,0.7,3.1,1.5,4.8,2.3L169.7,219L156,198
								z"/>
							<path class="st14" d="M148.4,477.8c0.3,0,0.5-0.1,0.7-0.3c0.4-0.4,0.4-1,0-1.4c0,0,0,0,0,0c-4.8-4.8-7.2-16.7-3.1-24.2
								c4.5-8.3,3.9-20.7,3.9-21.2c-3.8-74,8.1-224.2,8.2-225.7c0-0.5-0.3-1-0.9-1c0,0,0,0,0,0c-0.5,0-1,0.3-1,0.9c0,0,0,0,0,0
								c-0.1,1.5-12,151.8-8.2,225.9c0,0.1,0.5,12.4-3.7,20.2c-4.5,8.4-1.8,21.1,3.5,26.5C147.9,477.7,148.1,477.8,148.4,477.8"/>
							<polygon class="st7" points="188.3,173.1 155.9,194.5 131.9,173.1 123.7,191.1 141,211.4 156,196.7 169.7,213.2 195,192.1 
															"/>
							<polygon class="st15" points="132.5,449.3 66.3,320.9 155.1,275 221.2,403.4 							"/>
							<path class="st16" d="M144.9,342.4c-3-6.2-8.5-9.8-12.4-8.1c-3.9,1.7-4.6,8-1.6,14.1c3,6.1,8.5,9.8,12.4,8.2
								C147.2,354.9,147.9,348.6,144.9,342.4"/>
							<path class="st2" d="M154.6,390.5c0,0-12.4-13.7-17.9-14.5s-18.8-3.4-21.4-3.1c-6.5,0.7-15.3-1.5-15.7,0.3
								c-0.4,1.8-1.6,5.4,11.5,8l-14.8,0.4c0,0-5.4-0.2-5.4,4.1c-0.2,2.3,1.6,4.4,3.9,4.6c0.1,0,0.2,0,0.3,0l5.5,1.3
								c-1.7,0.8-2.6,2.7-2.1,4.6c0.6,3.6,7,4.1,7,4.1c-1.6,1.1-2.3,3.2-1.8,5c0.5,1.8,2,3.3,3.8,3.8c0,0-1,2.1-0.2,3.7
								c1.3,2.5,7.3,3.5,7.3,3.5c12.3,0.4,24.6-1.2,36.5-4.6C151,411.5,169.7,404.6,154.6,390.5"/>
							<path class="st7" d="M257.2,229.2c0,0,26.5,17.1,33.7,58.4c7.7,44.3,36.8,104.3,10,124.7c-17.9,13.6-83.2,14.2-123,12.4
								c-7.7-0.3-9.7-7.8-14-8.3c-9.8-1.1-15.9-2-15.9-2s-8.2-9.3,0.1-34l16.2-0.9c3.9-0.2,4.2-8.3,12.2-8c31.2,1.3,71.8,0,74.6-1.5
								c4.5-2.3-17.8-59.9-17.8-59.9S215.6,242.5,257.2,229.2"/>
							<path class="st14" d="M244.7,338.9c-4.8-14.1-10.2-28.1-10.5-29.1c-0.3-1.1-4.9-19.8-3.2-39c-0.6-0.2-1.3-0.4-1.9-0.6
								c-0.1,1.4-0.2,2.9-0.3,4.4c-0.3,12,0.9,24.1,3.6,35.8v0.1c10.3,26.7,19.9,55.9,18.2,58.7c-1.9,0.8-19,1.8-43.5,1.9
								c0.3,0.6,0.6,1.3,1,1.9c19.6-0.1,41.1-0.9,43.5-2.1C252.8,370.3,255.1,369.1,244.7,338.9"/>
							<path class="st14" d="M247.8,423.2c-11,0.8-23.5,1.2-37.3,1.2c-0.5,0.6-1.1,1.3-1.6,1.9h0.9c12.1,0,25.4-0.3,38.2-1.2
								C247.8,424.5,247.8,423.9,247.8,423.2"/>
							<path class="st14" d="M66.2,396L66.2,396c0.5-1,1-0.6,1-1.2L62,271.3c0-0.5-0.4-1-1-1s-1,0.4-1,1l5.2,123.6
								C65.3,395.5,65.7,395.9,66.2,396"/>
						</g>
					</g>
				</g>
			</g>
		</g>
	</g>
</g>
</svg>
