<svg xmlns="http://www.w3.org/2000/svg" width="84.583" height="84.582" viewBox="0 0 84.583 84.582">
  <g id="Page-1" transform="translate(-736.5 -619.927)">
    <g id="Group_328" data-name="Group 328">
      <rect id="Rectangle-path" width="8.458" height="8.458" rx="1.41" stroke-width="2.819" transform="translate(737.91 621.337)" stroke="#453878" stroke-linecap="round" stroke-linejoin="round" fill="none"/>
      <rect id="Rectangle_68" data-name="Rectangle 68" width="8.458" height="8.458" rx="1.41" transform="translate(774.562 621.337)" stroke-width="2.819" stroke="#453878" stroke-linecap="round" stroke-linejoin="round" fill="none"/>
      <rect id="Rectangle_69" data-name="Rectangle 69" width="8.458" height="8.458" rx="1.41" transform="translate(811.215 621.337)" stroke-width="2.819" stroke="#453878" stroke-linecap="round" stroke-linejoin="round" fill="none"/>
      <rect id="Rectangle_70" data-name="Rectangle 70" width="8.458" height="8.458" rx="1.41" transform="translate(737.91 657.989)" stroke-width="2.819" stroke="#453878" stroke-linecap="round" stroke-linejoin="round" fill="none"/>
      <rect id="Rectangle_71" data-name="Rectangle 71" width="8.458" height="8.458" rx="1.41" transform="translate(811.215 657.989)" stroke-width="2.819" stroke="#453878" stroke-linecap="round" stroke-linejoin="round" fill="none"/>
      <rect id="Rectangle_72" data-name="Rectangle 72" width="8.458" height="8.458" rx="1.41" transform="translate(737.91 694.641)" stroke-width="2.819" stroke="#453878" stroke-linecap="round" stroke-linejoin="round" fill="none"/>
      <rect id="Rectangle_73" data-name="Rectangle 73" width="8.458" height="8.458" rx="1.41" transform="translate(774.562 694.641)" stroke-width="2.819" stroke="#453878" stroke-linecap="round" stroke-linejoin="round" fill="none"/>
      <rect id="Rectangle_74" data-name="Rectangle 74" width="8.458" height="8.458" rx="1.41" transform="translate(811.215 694.641)" stroke-width="2.819" stroke="#453878" stroke-linecap="round" stroke-linejoin="round" fill="none"/>
      <path id="Shape" d="M742.139,629.795v2.114" fill="none" stroke="#453878" stroke-linecap="round" stroke-linejoin="round" stroke-width="2.819"/>
      <path id="Path_1068" data-name="Path 1068" d="M742.139,637.616v15.4" fill="none" stroke="#453878" stroke-linecap="round" stroke-linejoin="round" stroke-width="2.819" stroke-dasharray="3.424"/>
      <path id="Path_1069" data-name="Path 1069" d="M742.139,655.874v2.115" fill="none" stroke="#453878" stroke-linecap="round" stroke-linejoin="round" stroke-width="2.819"/>
      <path id="Path_1070" data-name="Path 1070" d="M742.139,666.447v2.115" fill="none" stroke="#453878" stroke-linecap="round" stroke-linejoin="round" stroke-width="2.819"/>
      <path id="Path_1071" data-name="Path 1071" d="M742.139,674.268v15.406" fill="none" stroke="#453878" stroke-linecap="round" stroke-linejoin="round" stroke-width="2.819" stroke-dasharray="3.424"/>
      <path id="Path_1072" data-name="Path 1072" d="M742.139,692.527v2.114" fill="none" stroke="#453878" stroke-linecap="round" stroke-linejoin="round" stroke-width="2.819"/>
      <path id="Path_1073" data-name="Path 1073" d="M815.444,629.795v2.114" fill="none" stroke="#453878" stroke-linecap="round" stroke-linejoin="round" stroke-width="2.819"/>
      <path id="Path_1074" data-name="Path 1074" d="M815.444,637.616v15.4" fill="none" stroke="#453878" stroke-linecap="round" stroke-linejoin="round" stroke-width="2.819" stroke-dasharray="3.424"/>
      <path id="Path_1075" data-name="Path 1075" d="M815.444,655.874v2.115" fill="none" stroke="#453878" stroke-linecap="round" stroke-linejoin="round" stroke-width="2.819"/>
      <path id="Path_1076" data-name="Path 1076" d="M815.444,666.447v2.115" fill="none" stroke="#453878" stroke-linecap="round" stroke-linejoin="round" stroke-width="2.819"/>
      <path id="Path_1077" data-name="Path 1077" d="M815.444,674.268v15.406" fill="none" stroke="#453878" stroke-linecap="round" stroke-linejoin="round" stroke-width="2.819" stroke-dasharray="3.424"/>
      <path id="Path_1078" data-name="Path 1078" d="M815.444,692.527v2.114" fill="none" stroke="#453878" stroke-linecap="round" stroke-linejoin="round" stroke-width="2.819"/>
      <path id="Path_1079" data-name="Path 1079" d="M811.215,625.566H809.1" fill="none" stroke="#453878" stroke-linecap="round" stroke-linejoin="round" stroke-width="2.819"/>
      <path id="Path_1080" data-name="Path 1080" d="M803.394,625.566H787.988" fill="none" stroke="#453878" stroke-linecap="round" stroke-linejoin="round" stroke-width="2.819" stroke-dasharray="3.424"/>
      <path id="Path_1081" data-name="Path 1081" d="M785.135,625.566h-2.114" fill="none" stroke="#453878" stroke-linecap="round" stroke-linejoin="round" stroke-width="2.819"/>
      <path id="Path_1082" data-name="Path 1082" d="M774.562,625.566h-2.114" fill="none" stroke="#453878" stroke-linecap="round" stroke-linejoin="round" stroke-width="2.819"/>
      <path id="Path_1083" data-name="Path 1083" d="M766.741,625.566H751.336" fill="none" stroke="#453878" stroke-linecap="round" stroke-linejoin="round" stroke-width="2.819" stroke-dasharray="3.424"/>
      <path id="Path_1084" data-name="Path 1084" d="M748.483,625.566h-2.115" fill="none" stroke="#453878" stroke-linecap="round" stroke-linejoin="round" stroke-width="2.819"/>
      <path id="Path_1085" data-name="Path 1085" d="M811.215,698.871H809.1" fill="none" stroke="#453878" stroke-linecap="round" stroke-linejoin="round" stroke-width="2.819"/>
      <path id="Path_1086" data-name="Path 1086" d="M803.394,698.871H787.988" fill="none" stroke="#453878" stroke-linecap="round" stroke-linejoin="round" stroke-width="2.819" stroke-dasharray="3.424"/>
      <path id="Path_1087" data-name="Path 1087" d="M785.135,698.871h-2.114" fill="none" stroke="#453878" stroke-linecap="round" stroke-linejoin="round" stroke-width="2.819"/>
      <path id="Path_1088" data-name="Path 1088" d="M774.562,698.871h-2.114" fill="none" stroke="#453878" stroke-linecap="round" stroke-linejoin="round" stroke-width="2.819"/>
      <path id="Path_1089" data-name="Path 1089" d="M766.741,698.871H751.336" fill="none" stroke="#453878" stroke-linecap="round" stroke-linejoin="round" stroke-width="2.819" stroke-dasharray="3.424"/>
      <path id="Path_1090" data-name="Path 1090" d="M748.483,698.871h-2.115" fill="none" stroke="#453878" stroke-linecap="round" stroke-linejoin="round" stroke-width="2.819"/>
      <path id="Path_1091" data-name="Path 1091" d="M767.207,681.776l-15.949,7.975,7.975-15.948,37.885-37.88a4.229,4.229,0,0,1,5.98,0l1.994,2a4.229,4.229,0,0,1,0,5.98Z" fill="none" stroke="#453878" stroke-linecap="round" stroke-linejoin="round" stroke-width="2.819"/>
      <path id="Path_1092" data-name="Path 1092" d="M788.141,644.894a4.229,4.229,0,0,1,5.98,0l1.994,1.995a4.229,4.229,0,0,1,0,5.98" fill="none" stroke="#453878" stroke-linecap="round" stroke-linejoin="round" stroke-width="2.819"/>
      <path id="Path_1093" data-name="Path 1093" d="M770.827,662.218l-18.51-18.509a4.229,4.229,0,0,1,0-5.977l1.988-1.988a4.229,4.229,0,0,1,5.977,0l18.51,18.509" fill="none" stroke="#453878" stroke-linecap="round" stroke-linejoin="round" stroke-width="2.819"/>
      <path id="Path_1094" data-name="Path 1094" d="M786.756,662.218l1.875,1.875.945.93" fill="none" stroke="#453878" stroke-linecap="round" stroke-linejoin="round" stroke-width="2.819"/>
      <path id="Path_1095" data-name="Path 1095" d="M781.6,673l-.93-.945-1.875-1.875" fill="none" stroke="#453878" stroke-linecap="round" stroke-linejoin="round" stroke-width="2.819"/>
      <path id="Path_1096" data-name="Path 1096" d="M767.207,681.776a12.608,12.608,0,0,0-7.974-7.973" fill="none" stroke="#453878" stroke-linecap="round" stroke-linejoin="round" stroke-width="2.819"/>
      <path id="Path_1097" data-name="Path 1097" d="M755.505,681.259a5.633,5.633,0,0,1,4.246,4.246" fill="none" stroke="#453878" stroke-linecap="round" stroke-linejoin="round" stroke-width="2.819"/>
      <path id="Path_1098" data-name="Path 1098" d="M764.217,676.793l14.952-14.953" fill="none" stroke="#453878" stroke-linecap="round" stroke-linejoin="round" stroke-width="2.819"/>
      <path id="Path_1099" data-name="Path 1099" d="M783.156,657.854l11.961-11.962" fill="none" stroke="#453878" stroke-linecap="round" stroke-linejoin="round" stroke-width="2.819"/>
      <path id="Path_1100" data-name="Path 1100" d="M781.595,673a58.8,58.8,0,0,1,8.972,12.958l12.958,1-1-12.959a58.823,58.823,0,0,1-12.958-8.971" fill="none" stroke="#453878" stroke-linecap="round" stroke-linejoin="round" stroke-width="2.819"/>
      <path id="Path_1101" data-name="Path 1101" d="M788.636,664.087a5.69,5.69,0,0,1-7.975,7.975" fill="none" stroke="#453878" stroke-linecap="round" stroke-linejoin="round" stroke-width="2.819"/>
      <circle id="Oval" cx="1.41" cy="1.41" r="1.41" transform="translate(792.147 675.574)" fill="none" stroke="#453878" stroke-miterlimit="10" stroke-width="1.41"/>
      <path id="Path_1102" data-name="Path 1102" d="M798.292,681.719l5.98,5.98" fill="none" stroke="#453878" stroke-linecap="round" stroke-linejoin="round" stroke-width="2.819"/>
    </g>
  </g>
</svg>
