<svg xmlns="http://www.w3.org/2000/svg" width="87.35" height="92.295" viewBox="0 0 87.35 92.295">
  <g id="Page-1" transform="translate(-25.17 -12.324)">
    <g id="Group_330" data-name="Group 330">
      <path id="Shape" d="M89.446,93.082H33.41a6.592,6.592,0,0,1-6.592-6.593V20.565a6.592,6.592,0,0,1,6.592-6.593H99.335a6.592,6.592,0,0,1,6.592,6.593V83.7s0,9.418-9.418,9.418H73.04" fill="none" stroke="#453878" stroke-linecap="round" stroke-linejoin="round" stroke-width="3.296"/>
      <path id="Path_1124" data-name="Path 1124" d="M112.52,61.768" fill="none" stroke="#453878" stroke-linecap="round" stroke-linejoin="round" stroke-width="3.296"/>
      <path id="Path_1125" data-name="Path 1125" d="M89.446,73.3" fill="none" stroke="#453878" stroke-linecap="round" stroke-linejoin="round" stroke-width="3.296"/>
      <path id="Path_1126" data-name="Path 1126" d="M112.52,104.619" fill="none" stroke="#453878" stroke-linecap="round" stroke-linejoin="round" stroke-width="3.296"/>
      <path id="Path_1127" data-name="Path 1127" d="M89.446,93.082" fill="none" stroke="#453878" stroke-linecap="round" stroke-linejoin="round" stroke-width="3.296"/>
      <rect id="Rectangle-path" width="36.259" height="26.37" rx="3.296" stroke-width="3.296" transform="translate(48.243 40.342)" stroke="#453878" stroke-linecap="round" stroke-linejoin="round" fill="none"/>
      <path id="Path_1128" data-name="Path 1128" d="M63.076,46.935V60.12l8.241-6.592Z" fill="none" stroke="#453878" stroke-linecap="round" stroke-linejoin="round" stroke-width="3.296"/>
      <path id="Path_1129" data-name="Path 1129" d="M98.331,83.193H33.41" fill="none" stroke="#453878" stroke-linecap="round" stroke-linejoin="round" stroke-width="3.296"/>
      <path id="Path_1130" data-name="Path 1130" d="M41.651,79.9v6.592" fill="none" stroke="#453878" stroke-linecap="round" stroke-linejoin="round" stroke-width="3.296"/>
      <path id="Path_1131" data-name="Path 1131" d="M91.094,20.565v1.648" fill="none" stroke="#453878" stroke-linecap="round" stroke-linejoin="round" stroke-width="3.296"/>
      <path id="Path_1132" data-name="Path 1132" d="M84.5,20.565v1.648" fill="none" stroke="#453878" stroke-linecap="round" stroke-linejoin="round" stroke-width="3.296"/>
      <path id="Path_1133" data-name="Path 1133" d="M97.687,20.565v1.648" fill="none" stroke="#453878" stroke-linecap="round" stroke-linejoin="round" stroke-width="3.296"/>
    </g>
  </g>
</svg>
