<?xml version="1.0" encoding="utf-8"?>
<!-- Generator: Adobe Illustrator 25.4.6, SVG Export Plug-In . SVG Version: 6.00 Build 0)  -->
<svg version="1.1" id="Layer_1" xmlns="http://www.w3.org/2000/svg" xmlns:xlink="http://www.w3.org/1999/xlink" x="0px" y="0px"
	 viewBox="0 0 84.6 84.6" style="enable-background:new 0 0 84.6 84.6;" xml:space="preserve">
<style type="text/css">
	.st0{fill:none;stroke:#FFFFFF;stroke-width:2.819;stroke-linecap:round;stroke-linejoin:round;}
	.st1{fill:none;stroke:#FFFFFF;stroke-width:2.819;stroke-linecap:round;stroke-linejoin:round;stroke-dasharray:3.424;}
	.st2{fill:none;stroke:#FFFFFF;stroke-width:1.41;stroke-miterlimit:10;}
</style>
<g id="Page-1" transform="translate(-736.5 -619.927)">
	<g id="Group_328">
		<path id="Rectangle-path" class="st0" d="M739.3,621.3h5.6c0.8,0,1.4,0.6,1.4,1.4v5.6c0,0.8-0.6,1.4-1.4,1.4h-5.6
			c-0.8,0-1.4-0.6-1.4-1.4v-5.6C737.9,622,738.5,621.3,739.3,621.3z"/>
		<path id="Rectangle_68" class="st0" d="M776,621.3h5.6c0.8,0,1.4,0.6,1.4,1.4v5.6c0,0.8-0.6,1.4-1.4,1.4H776
			c-0.8,0-1.4-0.6-1.4-1.4v-5.6C774.6,622,775.2,621.3,776,621.3z"/>
		<path id="Rectangle_69" class="st0" d="M812.6,621.3h5.6c0.8,0,1.4,0.6,1.4,1.4v5.6c0,0.8-0.6,1.4-1.4,1.4h-5.6
			c-0.8,0-1.4-0.6-1.4-1.4v-5.6C811.2,622,811.8,621.3,812.6,621.3z"/>
		<path id="Rectangle_70" class="st0" d="M739.3,658h5.6c0.8,0,1.4,0.6,1.4,1.4v5.6c0,0.8-0.6,1.4-1.4,1.4h-5.6
			c-0.8,0-1.4-0.6-1.4-1.4v-5.6C737.9,658.6,738.5,658,739.3,658z"/>
		<path id="Rectangle_71" class="st0" d="M812.6,658h5.6c0.8,0,1.4,0.6,1.4,1.4v5.6c0,0.8-0.6,1.4-1.4,1.4h-5.6
			c-0.8,0-1.4-0.6-1.4-1.4v-5.6C811.2,658.6,811.8,658,812.6,658z"/>
		<path id="Rectangle_72" class="st0" d="M739.3,694.6h5.6c0.8,0,1.4,0.6,1.4,1.4v5.6c0,0.8-0.6,1.4-1.4,1.4h-5.6
			c-0.8,0-1.4-0.6-1.4-1.4v-5.6C737.9,695.3,738.5,694.6,739.3,694.6z"/>
		<path id="Rectangle_73" class="st0" d="M776,694.6h5.6c0.8,0,1.4,0.6,1.4,1.4v5.6c0,0.8-0.6,1.4-1.4,1.4H776
			c-0.8,0-1.4-0.6-1.4-1.4v-5.6C774.6,695.3,775.2,694.6,776,694.6z"/>
		<path id="Rectangle_74" class="st0" d="M812.6,694.6h5.6c0.8,0,1.4,0.6,1.4,1.4v5.6c0,0.8-0.6,1.4-1.4,1.4h-5.6
			c-0.8,0-1.4-0.6-1.4-1.4v-5.6C811.2,695.3,811.8,694.6,812.6,694.6z"/>
		<path id="Shape" class="st0" d="M742.1,629.8v2.1"/>
		<path id="Path_1068" class="st1" d="M742.1,637.6V653"/>
		<path id="Path_1069" class="st0" d="M742.1,655.9v2.1"/>
		<path id="Path_1070" class="st0" d="M742.1,666.4v2.1"/>
		<path id="Path_1071" class="st1" d="M742.1,674.3v15.4"/>
		<path id="Path_1072" class="st0" d="M742.1,692.5v2.1"/>
		<path id="Path_1073" class="st0" d="M815.4,629.8v2.1"/>
		<path id="Path_1074" class="st1" d="M815.4,637.6V653"/>
		<path id="Path_1075" class="st0" d="M815.4,655.9v2.1"/>
		<path id="Path_1076" class="st0" d="M815.4,666.4v2.1"/>
		<path id="Path_1077" class="st1" d="M815.4,674.3v15.4"/>
		<path id="Path_1078" class="st0" d="M815.4,692.5v2.1"/>
		<path id="Path_1079" class="st0" d="M811.2,625.6h-2.1"/>
		<path id="Path_1080" class="st1" d="M803.4,625.6H788"/>
		<path id="Path_1081" class="st0" d="M785.1,625.6H783"/>
		<path id="Path_1082" class="st0" d="M774.6,625.6h-2.1"/>
		<path id="Path_1083" class="st1" d="M766.7,625.6h-15.4"/>
		<path id="Path_1084" class="st0" d="M748.5,625.6h-2.1"/>
		<path id="Path_1085" class="st0" d="M811.2,698.9h-2.1"/>
		<path id="Path_1086" class="st1" d="M803.4,698.9H788"/>
		<path id="Path_1087" class="st0" d="M785.1,698.9H783"/>
		<path id="Path_1088" class="st0" d="M774.6,698.9h-2.1"/>
		<path id="Path_1089" class="st1" d="M766.7,698.9h-15.4"/>
		<path id="Path_1090" class="st0" d="M748.5,698.9h-2.1"/>
		<path id="Path_1091" class="st0" d="M767.2,681.8l-15.9,8l8-15.9l37.9-37.9c1.7-1.7,4.3-1.7,6,0l2,2c1.7,1.7,1.7,4.3,0,6
			L767.2,681.8z"/>
		<path id="Path_1092" class="st0" d="M788.1,644.9c1.7-1.7,4.3-1.7,6,0l2,2c1.7,1.7,1.7,4.3,0,6"/>
		<path id="Path_1093" class="st0" d="M770.8,662.2l-18.5-18.5c-1.6-1.7-1.6-4.3,0-6l2-2c1.7-1.6,4.3-1.6,6,0l18.5,18.5"/>
		<path id="Path_1094" class="st0" d="M786.8,662.2l1.9,1.9l0.9,0.9"/>
		<path id="Path_1095" class="st0" d="M781.6,673l-0.9-0.9l-1.9-1.9"/>
		<path id="Path_1096" class="st0" d="M767.2,681.8c-1.3-3.8-4.2-6.7-8-8"/>
		<path id="Path_1097" class="st0" d="M755.5,681.3c2.1,0.5,3.8,2.1,4.2,4.2"/>
		<path id="Path_1098" class="st0" d="M764.2,676.8l15-15"/>
		<path id="Path_1099" class="st0" d="M783.2,657.9l12-12"/>
		<path id="Path_1100" class="st0" d="M781.6,673c3.6,3.9,6.6,8.3,9,13l13,1l-1-13c-4.7-2.4-9.1-5.4-13-9"/>
		<path id="Path_1101" class="st0" d="M788.6,664.1c1.9,2.5,1.4,6.1-1.1,8c-2,1.6-4.9,1.6-6.9,0"/>
		<circle id="Oval" class="st2" cx="793.6" cy="677" r="1.4"/>
		<path id="Path_1102" class="st0" d="M798.3,681.7l6,6"/>
	</g>
</g>
</svg>
